<svg xmlns="http://www.w3.org/2000/svg" viewBox="0 0 500 500"><g id="freepik--background-complete--inject-82"><path d="M467.65,249.81a3.91,3.91,0,1,1-4.93-2.48A3.91,3.91,0,0,1,467.65,249.81Z" style="fill:#ebebeb"></path><path d="M466.7,248.76c-.13.2-3.56-2.09-7.18-5.58s-6.48-6.32-6.34-6.49,3.34,2.38,6.93,5.86S466.84,248.56,466.7,248.76Z" style="fill:#ebebeb"></path><path d="M458.67,230.35c.22,0,.07,2.2-1.57,4.22s-3.75,2.64-3.79,2.42,1.65-1.12,3.12-3S458.42,230.29,458.67,230.35Z" style="fill:#ebebeb"></path><path d="M461.43,233.31c.23,0,.17,2.17-1.58,4s-3.91,2.09-3.9,1.86,1.76-.79,3.27-2.45S461.18,233.26,461.43,233.31Z" style="fill:#ebebeb"></path><path d="M61.12,201.94a3.91,3.91,0,1,1-2.68-4.83A3.91,3.91,0,0,1,61.12,201.94Z" style="fill:#ebebeb"></path><path d="M60.93,200.54c-.22.09-1.78-3.73-2.81-8.65S56.31,183,56.52,183,58,186.81,59,191.7,61.15,200.45,60.93,200.54Z" style="fill:#ebebeb"></path><path d="M64.62,180.8c.19.12-1.17,1.85-3.67,2.6s-4.58.09-4.5-.12,2,0,4.25-.7S64.45,180.61,64.62,180.8Z" style="fill:#ebebeb"></path><path d="M65.24,184.8c.21.11-1.07,1.89-3.56,2.44s-4.41-.46-4.28-.65,1.9.34,4.09-.18S65.07,184.62,65.24,184.8Z" style="fill:#ebebeb"></path><path d="M422.16,210a4.21,4.21,0,1,1,1.07-5.86A4.21,4.21,0,0,1,422.16,210Z" style="fill:#e0e0e0"></path><path d="M423,208.74c-.39-.13.82-4.43,3.33-9.26s4.66-8.57,5-8.43-1.2,4.31-3.7,9.09S423.35,208.87,423,208.74Z" style="fill:#e0e0e0"></path><path d="M442,199.52c0,.34-3.53.29-7.1-2a9.83,9.83,0,0,1-3.6-4c-.6-1.3-.46-2.23-.28-2.24s.44.74,1.18,1.73a13.39,13.39,0,0,0,3.51,3.26C438.92,198.37,442.11,199.07,442,199.52Z" style="fill:#e0e0e0"></path><path d="M432.87,218.51a4.22,4.22,0,1,1,1.06-5.86A4.23,4.23,0,0,1,432.87,218.51Z" style="fill:#e0e0e0"></path><path d="M433.67,217.21c-.39-.13.82-4.43,3.34-9.26s4.66-8.58,5-8.43-1.21,4.31-3.71,9.09S434.05,217.33,433.67,217.21Z" style="fill:#e0e0e0"></path><path d="M440.81,202.13c0,.38-3.33.56-6.75-1.52s-4.86-5.1-4.51-5.25,2.17,2.18,5.26,4S440.85,201.7,440.81,202.13Z" style="fill:#e0e0e0"></path><path d="M36.36,293.6a3.94,3.94,0,1,1-3.06-4.66A3.94,3.94,0,0,1,36.36,293.6Z" style="fill:#e0e0e0"></path><path d="M36.07,292.2c-.34.17-2.31-3.53-3.72-8.43s-2.39-8.83-2.05-8.95,2,3.7,3.36,8.55S36.41,292,36.07,292.2Z" style="fill:#e0e0e0"></path><path d="M43,273.64c.22.24-2.2,2.48-6.12,3.2a9.24,9.24,0,0,1-5-.36c-1.25-.49-1.75-1.22-1.64-1.34s.78.22,1.92.41a12.37,12.37,0,0,0,4.49-.06C40.19,274.87,42.8,273.27,43,273.64Z" style="fill:#e0e0e0"></path><path d="M49.09,292.43A3.95,3.95,0,1,1,46,287.76,3.94,3.94,0,0,1,49.09,292.43Z" style="fill:#e0e0e0"></path><path d="M48.8,291c-.35.17-2.31-3.53-3.73-8.43s-2.38-8.82-2-8.95,2,3.7,3.37,8.56S49.14,290.86,48.8,291Z" style="fill:#e0e0e0"></path><path d="M43.89,276.19c.27.24-1.89,2.53-5.55,3.33s-6.59-.31-6.45-.64,2.87.07,6.15-.69S43.65,275.87,43.89,276.19Z" style="fill:#e0e0e0"></path><path d="M157.44,234.36a3.95,3.95,0,1,1-3.07-4.66A3.94,3.94,0,0,1,157.44,234.36Z" style="fill:#e0e0e0"></path><path d="M157.14,233c-.34.17-2.3-3.53-3.72-8.43s-2.38-8.82-2-8.95,2,3.7,3.36,8.56S157.49,232.8,157.14,233Z" style="fill:#e0e0e0"></path><path d="M164.1,214.4c.21.24-2.2,2.48-6.13,3.2a9.24,9.24,0,0,1-5-.36c-1.24-.49-1.74-1.22-1.63-1.33s.78.21,1.91.41a12.64,12.64,0,0,0,4.49-.07C161.26,215.63,163.87,214,164.1,214.4Z" style="fill:#e0e0e0"></path><path d="M170.17,233.19a3.95,3.95,0,1,1-3.07-4.66A3.95,3.95,0,0,1,170.17,233.19Z" style="fill:#e0e0e0"></path><path d="M169.87,231.79c-.34.16-2.3-3.54-3.72-8.44s-2.38-8.82-2.05-8.95,2,3.7,3.36,8.56S170.21,231.63,169.87,231.79Z" style="fill:#e0e0e0"></path><path d="M165,217c.27.24-1.9,2.53-5.56,3.34s-6.58-.32-6.44-.65,2.87.07,6.14-.69S164.72,216.63,165,217Z" style="fill:#e0e0e0"></path><path d="M363,266.69a2.62,2.62,0,1,1-2.76-4.46,2.62,2.62,0,0,1,2.76,4.46Z" style="fill:#e0e0e0"></path><path d="M363.51,265.91c-.24-.09.65-2.73,2.37-5.66s3.18-5.18,3.39-5.08-.89,2.65-2.6,5.54S363.74,266,363.51,265.91Z" style="fill:#e0e0e0"></path><path d="M375.66,260.78c0,.22-2.21.07-4.35-1.5a6,6,0,0,1-2.11-2.58c-.34-.82-.21-1.4-.11-1.4s.26.47.68,1.11a8.23,8.23,0,0,0,2.08,2.14C373.77,260,375.73,260.51,375.66,260.78Z" style="fill:#e0e0e0"></path><path d="M369.35,272.3a2.62,2.62,0,1,1,.86-3.61A2.62,2.62,0,0,1,369.35,272.3Z" style="fill:#e0e0e0"></path><path d="M369.9,271.52c-.24-.09.65-2.73,2.37-5.65s3.18-5.19,3.39-5.09-.89,2.65-2.6,5.54S370.13,271.61,369.9,271.52Z" style="fill:#e0e0e0"></path><path d="M374.82,262.37c0,.24-2.09.24-4.15-1.16s-2.85-3.33-2.63-3.41,1.28,1.42,3.14,2.65S374.86,262.1,374.82,262.37Z" style="fill:#e0e0e0"></path><path d="M111.72,73.53a27,27,0,0,1,3.19-6.62,9.11,9.11,0,0,1,6-3.9,5.58,5.58,0,0,1,5.94,3.34c.35-5.24,1.09-10.61,3.71-15.16s7.51-8.12,12.75-7.8c4.94.3,9.17,4,11.52,8.33S158,61.07,158.76,66c1.87-2.3,5.82-1.58,7.78.65S169,72,169.4,74.89H111.35Z" style="fill:#ebebeb"></path><path d="M316.2,71.26a26.91,26.91,0,0,1,3.19-6.61,9.1,9.1,0,0,1,6-3.91,5.57,5.57,0,0,1,5.93,3.34c.35-5.23,1.1-10.61,3.72-15.15s7.51-8.12,12.75-7.8c4.94.3,9.17,4,11.52,8.33s3.15,9.35,3.92,14.23c1.88-2.29,5.83-1.57,7.78.66s2.45,5.34,2.87,8.27H315.83Z" style="fill:#ebebeb"></path><path d="M410.68,104.61A26.91,26.91,0,0,1,413.87,98a9.16,9.16,0,0,1,6-3.91,5.59,5.59,0,0,1,5.94,3.34c.35-5.23,1.09-10.61,3.71-15.15s7.51-8.12,12.75-7.8c4.94.3,9.17,4,11.52,8.33S457,92.16,457.72,97c1.87-2.29,5.82-1.57,7.78.66S468,103,468.36,106H410.31Z" style="fill:#f5f5f5"></path><path d="M51.89,57.44a12.35,12.35,0,0,1,1.49-3.08,4.26,4.26,0,0,1,2.8-1.83A2.62,2.62,0,0,1,59,54.09,16.18,16.18,0,0,1,60.68,47c1.23-2.12,3.51-3.79,5.95-3.64A7,7,0,0,1,72,47.27a20.42,20.42,0,0,1,1.83,6.64c.88-1.07,2.72-.73,3.63.31a7.21,7.21,0,0,1,1.34,3.86H51.72Z" style="fill:#f5f5f5"></path><path d="M412,48.46a12.42,12.42,0,0,1,1.49-3.09,4.26,4.26,0,0,1,2.8-1.82A2.6,2.6,0,0,1,419,45.11,16.22,16.22,0,0,1,420.77,38a6.77,6.77,0,0,1,6-3.63,7,7,0,0,1,5.38,3.88,20.66,20.66,0,0,1,1.83,6.65c.87-1.08,2.72-.74,3.63.3a7.29,7.29,0,0,1,1.34,3.86H411.81Z" style="fill:#f5f5f5"></path><path d="M53.9,105a13.35,13.35,0,0,1,1.49-3.09,4.3,4.3,0,0,1,2.8-1.82A2.6,2.6,0,0,1,61,101.6a16.19,16.19,0,0,1,1.74-7.07,6.75,6.75,0,0,1,6-3.64A7,7,0,0,1,74,94.77a20.55,20.55,0,0,1,1.83,6.65c.88-1.07,2.72-.74,3.64.3a7.23,7.23,0,0,1,1.33,3.87H53.73Z" style="fill:#f5f5f5"></path><path d="M265.39,369.08l7.31-.54,15.53-.92,1.1-1s-.14-1.12-.45-2.94c-2.67-6-.39-8.53-.39-8.53h0a24.36,24.36,0,0,1,3.21-6l.91-15.17s-2.69,0-3.6,1c-.52.57-1.1,1.52-1.67,2.3h0c.06,1.72-1.78,1.47-1.81,1.47a4.09,4.09,0,0,0-1,.76s-.2,3.12-1.21,4.33a9.12,9.12,0,0,1-3.52,2l-.39-1.55-.18.18.08-.21-.82.1a10.27,10.27,0,0,1,1-3.23A9.29,9.29,0,0,1,281,339s0-.65-.44-.78L278,341.59a7.39,7.39,0,0,0-.13,1,1.23,1.23,0,0,1-1.54,1.25l-.07.09s0-.07,0-.1l-.12,0s-1,1.41-1.71.61-.8-2.12-1.61-2.82-2.43-1.74-2.63-3.66.52-2.49,2.23-4.2a17.3,17.3,0,0,0,1.89-3l1.08-2c2.32-4.47,5-10.23,5-10.23l.1-2s-1.61-.31-.5-2.52,1.31-2.72,1.31-2.72-2.34-6.34,6.58-7.75l-.25-4.53a41.68,41.68,0,0,0,4.74,4.23s3.53-3.53,7.76-2l.17.08.09-.06a5.83,5.83,0,0,1,4.07,3.9,4.93,4.93,0,0,1,.3,1s5.54-.81,7.25,5.33c0,0,3.72-1,3.72,4.13,0,0,3.95,1.58,1.57,6.83a5,5,0,0,1,3.16,5.53l0,.43s3.47,1.71.87,5.22a3.1,3.1,0,0,1,.58.78l-.14-.11a3.32,3.32,0,0,1-.55,4.07q-.45.49-.84.87h0a8.08,8.08,0,0,1-2.53,1.93h0c.23,1.65.35,2.76.35,2.76s1.46-2,2.92-1.83c.43,0,1.31,1.69,2.87,3.84l15.87,10.4a27.39,27.39,0,0,0,10.32-.58l10.05-3.06s3.84,1.64,3.47,3.47c0,0,8.53,1.9,13.36,7.29A8.91,8.91,0,0,1,385,361a8.33,8.33,0,0,1,2.23,0l-.78.37a13.6,13.6,0,0,1,4.63,2.7c3.5,3.09,5.06,7.76,7.38,11.82a33.31,33.31,0,0,0,11.76,12c.78.47,1.71,1.13,1.58,2a1.51,1.51,0,0,1-.57.92l.13.1-.27,0a3.84,3.84,0,0,1-.54.35c-4.6,2.52-10.56,1.8-15-1.08s-7.31-7.63-8.78-12.67c-.31-1.05-.57-2.13-.89-3.18l-5.6-5.63a2.32,2.32,0,0,0-.37,0h0a13.78,13.78,0,0,1,.55,3.61c1,8.63-.36,13.78-.36,13.78l3.29,3.65h6.21l2.92,3.11a28.85,28.85,0,0,0,1.47,8.84c1.46,3.77,10.23,13.44,10.23,13.44l5.12-.25s6,6.84,4.2,10.86l-1.1,1.1-6.94-2.74a19.92,19.92,0,0,0-5.67-5.28c-3.1-1.67-5.48-4.41-6-6.05s-9-12.45-9-12.45-5.3,2.92-15.17-.72a28.24,28.24,0,0,1-13.55-11v.1a8.54,8.54,0,0,1-.51-.94c-.13-.22-.19-.35-.19-.35H349c0,.71.09,1.15.09,1.15a54.49,54.49,0,0,1-13.3,2.82v0a40.51,40.51,0,0,1-8.71-.16A50,50,0,0,1,312,386.85h0c-1.24-.61-1.89-1-1.89-1l.07-.15-6.78-4.35-.39.28a16.5,16.5,0,0,1-2.35,1.46h0a7,7,0,0,1-2.93,1c-2,0-12.43-1.81-12.43-1.81l-11.68-4.33a2.66,2.66,0,0,0-.28,0l-1.19,1.36,6,10.05,8.22,4.34,3.29-2.54,9.5,8.72a29.49,29.49,0,0,1-9.74,1.88l.09.28c-.05-.09-.08-.19-.13-.28a11.28,11.28,0,0,1-1.18-.09c-4.75-.62-12.79-4.57-12.79-4.57s-9.51-13.95-12.79-17.79Z" style="fill:#f5f5f5"></path><rect x="138.62" y="192.78" width="6.68" height="240.41" style="fill:#f5f5f5"></rect><rect x="341.28" y="192.78" width="6.68" height="240.41" style="fill:#f5f5f5"></rect><path d="M70,300l7.31-.55,15.53-.91,1.09-1s-.13-1.12-.44-2.94c-2.67-6-.39-8.53-.39-8.53h0a24.53,24.53,0,0,1,3.21-6L97.23,265s-2.69,0-3.6,1c-.52.57-1.1,1.52-1.67,2.3h0c.06,1.72-1.79,1.47-1.81,1.47a4.09,4.09,0,0,0-1,.76S89,273.59,88,274.8a9.12,9.12,0,0,1-3.52,2l-.39-1.55-.18.18.08-.21-.82.09a10.25,10.25,0,0,1,1-3.22A9.29,9.29,0,0,1,85.57,270s0-.66-.44-.78l-2.55,3.35a7.39,7.39,0,0,0-.13.95,1.23,1.23,0,0,1-1.55,1.24l-.06.09s0-.06,0-.1l-.12,0s-1,1.41-1.71.6-.8-2.11-1.61-2.82-2.43-1.74-2.63-3.65.52-2.49,2.23-4.2a17.3,17.3,0,0,0,1.89-3l1.08-2c2.32-4.48,5-10.24,5-10.24l.1-2s-1.61-.3-.5-2.51,1.31-2.72,1.31-2.72-2.34-6.34,6.58-7.75l-.25-4.53a41.68,41.68,0,0,0,4.74,4.23s3.53-3.53,7.76-2l.17.07.09-.05A5.83,5.83,0,0,1,109,236a5,5,0,0,1,.3,1s5.53-.8,7.25,5.34c0,0,3.72-1,3.72,4.13,0,0,4,1.58,1.57,6.83a5,5,0,0,1,3.16,5.53l0,.43s3.47,1.7.87,5.22a3.37,3.37,0,0,1,.58.78l-.14-.11a3.32,3.32,0,0,1-.55,4.07c-.3.33-.58.61-.84.87h0a8.08,8.08,0,0,1-2.53,1.93h0c.23,1.65.35,2.75.35,2.75s1.46-2,2.92-1.82c.43.05,1.31,1.69,2.87,3.83l15.87,10.41a27.59,27.59,0,0,0,10.32-.58l10-3.06s3.84,1.64,3.47,3.47c0,0,8.53,1.9,13.36,7.29a8.91,8.91,0,0,1,7.93-2.45,8.33,8.33,0,0,1,2.23,0l-.78.36a13.62,13.62,0,0,1,4.63,2.71c3.5,3.09,5.06,7.76,7.38,11.82a33.31,33.31,0,0,0,11.76,12c.78.47,1.71,1.13,1.58,2a1.51,1.51,0,0,1-.57.92l.13.1h-.27a6.33,6.33,0,0,1-.54.36c-4.61,2.52-10.56,1.8-14.95-1.08s-7.31-7.64-8.78-12.68c-.31-1-.57-2.12-.89-3.17l-5.61-5.64h-.36v0a13.79,13.79,0,0,1,.56,3.6c1,8.63-.36,13.79-.36,13.79l3.29,3.65h6.21l2.92,3.11a29,29,0,0,0,1.46,8.84c1.47,3.77,10.24,13.43,10.24,13.43l5.12-.24s6,6.84,4.2,10.86l-1.1,1.1L210.17,355a19.92,19.92,0,0,0-5.67-5.28c-3.1-1.67-5.48-4.41-6-6.05s-8.95-12.45-8.95-12.45-5.3,2.92-15.17-.72a28.19,28.19,0,0,1-13.55-11.05v.11a10.54,10.54,0,0,1-.5-.94c-.13-.22-.19-.35-.19-.35h-6.5c.05.71.09,1.15.09,1.15a54.49,54.49,0,0,1-13.3,2.82v0a40.51,40.51,0,0,1-8.71-.16,50,50,0,0,1-15.05-4.32h0c-1.24-.61-1.89-1-1.89-1l.07-.15L108,312.28l-.39.27a14.87,14.87,0,0,1-2.35,1.46h0a7,7,0,0,1-2.93,1c-2,0-12.43-1.82-12.43-1.82l-11.68-4.33-.28,0-1.19,1.37,6,10.05L91,324.66l3.29-2.54,9.5,8.72a29.49,29.49,0,0,1-9.74,1.88l.09.28c0-.1-.08-.19-.13-.28-.4,0-.8,0-1.18-.09-4.75-.62-12.79-4.57-12.79-4.57s-9.51-14-12.8-17.79Z" style="fill:#f5f5f5"></path></g><g id="freepik--Floor--inject-82"><path d="M469.18,475.44c0,.14-99.91.26-223.14.26s-223.15-.12-223.15-.26,99.89-.27,223.15-.27S469.18,475.29,469.18,475.44Z" style="fill:#263238"></path></g><g id="freepik--Carousel--inject-82"><path d="M178.44,176.88s30.11,144.17,19.43,244.93h98.95s-1.45-174.5,23-245.4Z" style="fill:#263238"></path><path d="M175.53,430.91s10.1-21.18,12.51-39.53l117.94.77s5.77,30,13.81,39.64Z" style="fill:#92E3A9"></path><g style="opacity:0.30000000000000004"><polygon points="188.61 391.38 206.45 431.1 220.22 392.15 235.8 431.1 248.54 392.15 264.14 431.1 278.14 392.15 291.52 430.34 305.98 392.15 188.61 391.38"></polygon></g><rect x="176.99" y="386.28" width="140.52" height="10.2" rx="4.71" style="fill:#92E3A9"></rect><path d="M310.84,396.48c0,.15-28.48.26-63.59.26s-63.6-.11-63.6-.26,28.47-.26,63.6-.26S310.84,396.34,310.84,396.48Z" style="fill:#263238"></path><path d="M310.89,386.28c0,.14-28.48.26-63.59.26s-63.6-.12-63.6-.26,28.47-.26,63.6-.26S310.89,386.14,310.89,386.28Z" style="fill:#263238"></path><polygon points="78.47 146.05 106.78 190.02 399.83 190.02 428.04 144.41 78.47 146.05" style="fill:#92E3A9"></polygon><g style="opacity:0.30000000000000004"><polygon points="106.05 190.02 112.82 146.05 157.41 190.75 177.4 146.05 217.75 187.88 251 146.05 291.42 188.94 325.38 146.05 356.42 187.88 390.3 144.58 399.11 190.02 427.31 144.41 77.75 146.05 106.05 190.02"></polygon></g><rect x="91.85" y="184.28" width="322.81" height="9.32" rx="4.54" style="fill:#92E3A9"></rect><path d="M404.61,184.28c0,.15-67.77.26-151.35.26s-151.36-.11-151.36-.26,67.76-.26,151.36-.26S404.61,184.14,404.61,184.28Z" style="fill:#263238"></path><path d="M404.61,193.9c0,.15-67.77.26-151.35.26s-151.36-.11-151.36-.26,67.76-.26,151.36-.26S404.61,193.76,404.61,193.9Z" style="fill:#263238"></path><polygon points="253.88 78.94 248.03 78.94 249.66 34.79 252.25 34.79 253.88 78.94" style="fill:#92E3A9"></polygon><polygon points="250.96 22.51 255.12 30.95 264.44 32.3 257.7 38.87 259.29 48.15 250.96 43.77 242.62 48.15 244.21 38.87 237.47 32.3 246.79 30.95 250.96 22.51" style="fill:#92E3A9"></polygon><g style="opacity:0.30000000000000004"><polygon points="259.29 48.15 250.96 35.33 257.7 38.87 259.29 48.15"></polygon></g><g style="opacity:0.30000000000000004"><polygon points="250.96 35.33 264.44 32.3 255.12 30.95 250.96 35.33"></polygon></g><g style="opacity:0.30000000000000004"><polygon points="250.96 35.33 250.96 22.51 246.79 30.95 250.96 35.33"></polygon></g><g style="opacity:0.30000000000000004"><polygon points="237.47 32.3 250.96 35.33 244.21 38.87 237.47 32.3"></polygon></g><g style="opacity:0.30000000000000004"><polygon points="242.62 48.15 250.96 35.33 250.96 43.77 242.62 48.15"></polygon></g><rect x="230.34" y="50.73" width="41.45" height="7.49" rx="3.65" style="fill:#92E3A9"></rect><path d="M268.25,58.21H233.74c-32.62,56.49-193.28,78-193.28,78l11.83,23.21H452.2l9.25-26.5S300.87,114.7,268.25,58.21Z" style="fill:#92E3A9"></path><g style="opacity:0.30000000000000004"><path d="M135.44,128.13s82.12-25.61,102.44-69.92h6.9s-30.92,58.14-56.17,77.88l-76.51.16Z"></path></g><g style="opacity:0.30000000000000004"><path d="M366.64,128.13s-58.16-9.55-106.78-69.92H253s41.57,58.15,66.82,77.89l70.19.15Z"></path></g><path d="M268.82,58.2c0,.14-7.93.26-17.71.26s-17.72-.12-17.72-.26,7.93-.26,17.72-.26S268.82,58.06,268.82,58.2Z" style="fill:#263238"></path><path d="M260.42,50.73c0,.14-4.68.26-10.45.26s-10.45-.12-10.45-.26A103,103,0,0,1,250,50.47,103,103,0,0,1,260.42,50.73Z" style="fill:#263238"></path><g style="opacity:0.30000000000000004"><path d="M224.89,136.25c12.31-9.68,22.53-63.91,23.16-78h2.88s4.18,49.7,25.07,78Z"></path></g><g style="opacity:0.30000000000000004"><polygon points="46.37 147.85 74.45 136.25 105.24 147.85 76.89 159.46 46.37 147.85"></polygon></g><g style="opacity:0.5"><polygon points="103.83 147.85 131.91 136.25 162.69 147.85 134.35 159.46 103.83 147.85" style="fill:#fff"></polygon></g><g style="opacity:0.5"><polygon points="220.56 147.85 248.63 136.25 279.42 147.85 251.08 159.46 220.56 147.85" style="fill:#fff"></polygon></g><g style="opacity:0.5"><polygon points="337.28 147.85 365.36 136.25 396.15 147.85 367.8 159.46 337.28 147.85" style="fill:#fff"></polygon></g><g style="opacity:0.30000000000000004"><polygon points="162.32 147.85 190.4 136.25 221.19 147.85 192.84 159.46 162.32 147.85"></polygon></g><g style="opacity:0.30000000000000004"><polygon points="279.05 147.85 307.12 136.25 337.91 147.85 309.57 159.46 279.05 147.85"></polygon></g><g style="opacity:0.30000000000000004"><polygon points="395.52 147.85 423.59 136.25 454.38 147.85 426.04 159.46 395.52 147.85"></polygon></g><path d="M458.49,136.25c0,.14-93.4.26-208.58.26s-208.59-.12-208.59-.26,93.37-.26,208.59-.26S458.49,136.1,458.49,136.25Z" style="fill:#263238"></path><path d="M452.2,159.46c0,.14-89.53.26-199.94.26s-200-.12-200-.26,89.51-.26,200-.26S452.2,159.31,452.2,159.46Z" style="fill:#263238"></path><rect x="38.27" y="431.16" width="413.7" height="13.31" rx="6.49" style="fill:#92E3A9"></rect><polygon points="52.16 444.48 59.13 475.94 430.26 475.94 439.19 437.82 52.16 444.48" style="fill:#92E3A9"></polygon><path d="M50.52,444.48c0-.15,88.32-.26,197.25-.26s197.27.11,197.27.26-88.31.26-197.27.26S50.52,444.62,50.52,444.48Z" style="fill:#263238"></path><path d="M426.61,430.67c0,.14-82.77.26-184.84.26s-184.86-.12-184.86-.26,82.75-.26,184.86-.26S426.61,430.53,426.61,430.67Z" style="fill:#263238"></path><g style="opacity:0.30000000000000004"><polygon points="67.22 444.46 72.69 475.94 100.55 475.94 99.59 444.48 67.22 444.46"></polygon></g><g style="opacity:0.5"><polygon points="111.76 444.46 113.5 475.94 145.09 475.94 144.13 444.48 111.76 444.46" style="fill:#fff"></polygon></g><g style="opacity:0.30000000000000004"><polygon points="159.72 444.46 161.47 475.94 193.05 475.94 192.09 444.48 159.72 444.46"></polygon></g><g style="opacity:0.5"><polygon points="207.68 444.46 209.43 475.94 241.01 475.94 240.05 444.48 207.68 444.46" style="fill:#fff"></polygon></g><g style="opacity:0.30000000000000004"><polygon points="255.64 444.46 257.39 475.94 288.98 475.94 288.01 444.48 255.64 444.46"></polygon></g><g style="opacity:0.5"><polygon points="303.6 444.46 305.98 475.94 335.29 475.94 335.98 444.48 303.6 444.46" style="fill:#fff"></polygon></g><g style="opacity:0.30000000000000004"><polygon points="351.56 444.46 353.31 475.94 383.38 475.94 383.94 444.48 351.56 444.46"></polygon></g><g style="opacity:0.5"><polygon points="401.49 444.47 401.27 475.94 430.26 475.94 433.25 444.48 401.49 444.47" style="fill:#fff"></polygon></g></g><g id="freepik--carousel-horse-3--inject-82"><rect x="393.84" y="190.75" width="6.28" height="240.41" style="fill:#92E3A9"></rect><path d="M400.41,195a20.88,20.88,0,0,1-6.57,0,20.88,20.88,0,0,1,6.57,0Z" style="fill:#263238"></path><path d="M400.41,198.57a20.88,20.88,0,0,1-6.57,0,20.88,20.88,0,0,1,6.57,0Z" style="fill:#263238"></path><path d="M400.41,202.17a20.88,20.88,0,0,1-6.57,0,20.88,20.88,0,0,1,6.57,0Z" style="fill:#263238"></path><path d="M400.41,205.77a20.88,20.88,0,0,1-6.57,0,20.88,20.88,0,0,1,6.57,0Z" style="fill:#263238"></path><path d="M400.41,209.38a20.88,20.88,0,0,1-6.57,0,20.88,20.88,0,0,1,6.57,0Z" style="fill:#263238"></path><path d="M400.41,213a20.88,20.88,0,0,1-6.57,0,20.88,20.88,0,0,1,6.57,0Z" style="fill:#263238"></path><path d="M400.41,216.58a20.88,20.88,0,0,1-6.57,0,20.88,20.88,0,0,1,6.57,0Z" style="fill:#263238"></path><path d="M400.41,220.19a20.88,20.88,0,0,1-6.57,0,20.88,20.88,0,0,1,6.57,0Z" style="fill:#263238"></path><path d="M400.41,223.79a20.88,20.88,0,0,1-6.57,0,20.88,20.88,0,0,1,6.57,0Z" style="fill:#263238"></path><path d="M400.41,227.4a20.88,20.88,0,0,1-6.57,0,20.12,20.12,0,0,1,6.57,0Z" style="fill:#263238"></path><path d="M400.41,231a20.88,20.88,0,0,1-6.57,0,20.88,20.88,0,0,1,6.57,0Z" style="fill:#263238"></path><path d="M400.41,234.6a20.88,20.88,0,0,1-6.57,0,20.88,20.88,0,0,1,6.57,0Z" style="fill:#263238"></path><path d="M400.41,238.21a20.88,20.88,0,0,1-6.57,0,20.88,20.88,0,0,1,6.57,0Z" style="fill:#263238"></path><path d="M400.41,241.81a20.88,20.88,0,0,1-6.57,0,20.88,20.88,0,0,1,6.57,0Z" style="fill:#263238"></path><path d="M400.41,245.41a20.88,20.88,0,0,1-6.57,0,20.88,20.88,0,0,1,6.57,0Z" style="fill:#263238"></path><path d="M400.41,249a20.88,20.88,0,0,1-6.57,0,20.88,20.88,0,0,1,6.57,0Z" style="fill:#263238"></path><path d="M400.41,252.62a20.88,20.88,0,0,1-6.57,0,20.88,20.88,0,0,1,6.57,0Z" style="fill:#263238"></path><path d="M400.41,256.22a20.88,20.88,0,0,1-6.57,0,20.88,20.88,0,0,1,6.57,0Z" style="fill:#263238"></path><path d="M400.41,259.83a20.88,20.88,0,0,1-6.57,0,20.88,20.88,0,0,1,6.57,0Z" style="fill:#263238"></path><path d="M400.41,263.43a20.88,20.88,0,0,1-6.57,0,20.88,20.88,0,0,1,6.57,0Z" style="fill:#263238"></path><path d="M400.41,267a20.88,20.88,0,0,1-6.57,0,20.12,20.12,0,0,1,6.57,0Z" style="fill:#263238"></path><path d="M400.41,270.64a20.88,20.88,0,0,1-6.57,0,20.88,20.88,0,0,1,6.57,0Z" style="fill:#263238"></path><path d="M400.41,274.24a20.88,20.88,0,0,1-6.57,0,20.88,20.88,0,0,1,6.57,0Z" style="fill:#263238"></path><path d="M400.41,277.85a20.88,20.88,0,0,1-6.57,0,20.88,20.88,0,0,1,6.57,0Z" style="fill:#263238"></path><path d="M400.41,281.45a20.88,20.88,0,0,1-6.57,0,20.88,20.88,0,0,1,6.57,0Z" style="fill:#263238"></path><path d="M400.41,285.05a20.88,20.88,0,0,1-6.57,0,20.88,20.88,0,0,1,6.57,0Z" style="fill:#263238"></path><path d="M400.41,288.66a20.88,20.88,0,0,1-6.57,0,20.88,20.88,0,0,1,6.57,0Z" style="fill:#263238"></path><path d="M400.41,292.26a20.88,20.88,0,0,1-6.57,0,20.88,20.88,0,0,1,6.57,0Z" style="fill:#263238"></path><path d="M400.41,295.86a20.12,20.12,0,0,1-6.57,0,20.88,20.88,0,0,1,6.57,0Z" style="fill:#263238"></path><path d="M400.41,299.47a20.88,20.88,0,0,1-6.57,0,20.88,20.88,0,0,1,6.57,0Z" style="fill:#263238"></path><path d="M400.41,303.07a20.88,20.88,0,0,1-6.57,0,20.88,20.88,0,0,1,6.57,0Z" style="fill:#263238"></path><path d="M400.41,306.68a20.88,20.88,0,0,1-6.57,0,20.88,20.88,0,0,1,6.57,0Z" style="fill:#263238"></path><path d="M400.41,310.28a20.88,20.88,0,0,1-6.57,0,20.88,20.88,0,0,1,6.57,0Z" style="fill:#263238"></path><path d="M400.41,313.88a20.88,20.88,0,0,1-6.57,0,20.88,20.88,0,0,1,6.57,0Z" style="fill:#263238"></path><path d="M400.41,317.49a20.88,20.88,0,0,1-6.57,0,20.88,20.88,0,0,1,6.57,0Z" style="fill:#263238"></path><path d="M400.41,321.09a20.88,20.88,0,0,1-6.57,0,20.88,20.88,0,0,1,6.57,0Z" style="fill:#263238"></path><path d="M400.41,324.69a20.88,20.88,0,0,1-6.57,0,20.88,20.88,0,0,1,6.57,0Z" style="fill:#263238"></path><path d="M400.41,328.3a20.88,20.88,0,0,1-6.57,0,20.88,20.88,0,0,1,6.57,0Z" style="fill:#263238"></path><path d="M400.41,331.9a20.88,20.88,0,0,1-6.57,0,20.88,20.88,0,0,1,6.57,0Z" style="fill:#263238"></path><path d="M400.41,335.51a20.88,20.88,0,0,1-6.57,0,20.12,20.12,0,0,1,6.57,0Z" style="fill:#263238"></path><path d="M400.41,339.11a20.88,20.88,0,0,1-6.57,0,20.88,20.88,0,0,1,6.57,0Z" style="fill:#263238"></path><path d="M400.41,342.71a20.88,20.88,0,0,1-6.57,0,20.88,20.88,0,0,1,6.57,0Z" style="fill:#263238"></path><path d="M400.41,346.32a20.88,20.88,0,0,1-6.57,0,20.88,20.88,0,0,1,6.57,0Z" style="fill:#263238"></path><path d="M400.41,349.92a20.88,20.88,0,0,1-6.57,0,20.88,20.88,0,0,1,6.57,0Z" style="fill:#263238"></path><path d="M400.41,353.52a20.88,20.88,0,0,1-6.57,0,20.88,20.88,0,0,1,6.57,0Z" style="fill:#263238"></path><path d="M400.41,357.13a20.88,20.88,0,0,1-6.57,0,20.88,20.88,0,0,1,6.57,0Z" style="fill:#263238"></path><path d="M400.41,360.73a20.88,20.88,0,0,1-6.57,0,20.88,20.88,0,0,1,6.57,0Z" style="fill:#263238"></path><path d="M400.41,364.33a20.88,20.88,0,0,1-6.57,0,20.88,20.88,0,0,1,6.57,0Z" style="fill:#263238"></path><path d="M400.41,367.94a20.88,20.88,0,0,1-6.57,0,20.88,20.88,0,0,1,6.57,0Z" style="fill:#263238"></path><path d="M400.41,371.54a20.88,20.88,0,0,1-6.57,0,20.88,20.88,0,0,1,6.57,0Z" style="fill:#263238"></path><path d="M400.41,375.15a20.88,20.88,0,0,1-6.57,0,20.88,20.88,0,0,1,6.57,0Z" style="fill:#263238"></path><path d="M400.41,378.75a20.88,20.88,0,0,1-6.57,0,20.88,20.88,0,0,1,6.57,0Z" style="fill:#263238"></path><path d="M400.41,382.35a20.88,20.88,0,0,1-6.57,0,20.88,20.88,0,0,1,6.57,0Z" style="fill:#263238"></path><path d="M400.41,386a20.88,20.88,0,0,1-6.57,0,20.88,20.88,0,0,1,6.57,0Z" style="fill:#263238"></path><path d="M400.41,389.56a20.88,20.88,0,0,1-6.57,0,20.88,20.88,0,0,1,6.57,0Z" style="fill:#263238"></path><path d="M400.41,393.16a20.88,20.88,0,0,1-6.57,0,20.88,20.88,0,0,1,6.57,0Z" style="fill:#263238"></path><path d="M400.41,396.77a20.88,20.88,0,0,1-6.57,0,20.88,20.88,0,0,1,6.57,0Z" style="fill:#263238"></path><path d="M400.41,400.37a20.88,20.88,0,0,1-6.57,0,20.88,20.88,0,0,1,6.57,0Z" style="fill:#263238"></path><path d="M400.41,404a20.12,20.12,0,0,1-6.57,0,20.88,20.88,0,0,1,6.57,0Z" style="fill:#263238"></path><path d="M400.41,407.58a20.88,20.88,0,0,1-6.57,0,20.88,20.88,0,0,1,6.57,0Z" style="fill:#263238"></path><path d="M400.41,411.18a20.88,20.88,0,0,1-6.57,0,20.88,20.88,0,0,1,6.57,0Z" style="fill:#263238"></path><path d="M400.41,414.79a20.88,20.88,0,0,1-6.57,0,20.88,20.88,0,0,1,6.57,0Z" style="fill:#263238"></path><path d="M400.41,418.39a20.88,20.88,0,0,1-6.57,0,20.88,20.88,0,0,1,6.57,0Z" style="fill:#263238"></path><path d="M400.41,422a20.88,20.88,0,0,1-6.57,0,20.88,20.88,0,0,1,6.57,0Z" style="fill:#263238"></path><path d="M400.41,425.6a20.88,20.88,0,0,1-6.57,0,20.88,20.88,0,0,1,6.57,0Z" style="fill:#263238"></path><path d="M340.94,342.88c-3.67,3.23-5.3,8.12-7.73,12.36a34.89,34.89,0,0,1-12.29,12.53c-.82.49-1.79,1.18-1.66,2.13a2.21,2.21,0,0,0,1.31,1.45c4.82,2.64,11.05,1.89,15.64-1.12s7.65-8,9.19-13.26c.67-2.31,1.11-4.76,2.5-6.72s4.13-3.24,6.24-2.09l2.53-4.83C351.49,337.32,345,339.32,340.94,342.88Z" style="fill:#ffbf9d"></path><path d="M369.57,334.59s-15.49,3.45-17.21,14.15,0,17.2,0,17.2l-3.44,3.83h-6.5L339.36,373a30.35,30.35,0,0,1-1.53,9.25c-1.52,3.94-10.7,14.05-10.7,14.05l-5.35-.26s-6.31,7.16-4.4,11.36l1.15,1.15,7.26-2.87a20.94,20.94,0,0,1,5.93-5.52c3.25-1.74,5.73-4.61,6.31-6.33s9.36-13,9.36-13,5.55,3.06,15.87-.75a29.37,29.37,0,0,0,14.91-12.8h8.41l37.06-.52,9-5.79s3.82,2.87,5.92,2.87,13-1.89,13-1.89L464,357.34l1.33,1.53L459,369.38l-8.61,4.55L447,371.27,437,380.39s6.5,2.52,11.47,1.88,13.38-4.79,13.38-4.79,9.94-14.59,13.38-18.61l-2.86-10.7-7.65-.58-16.25-.95-1.14-1.05s.38-3.16,1.33-7.55-3.82-10.71-3.82-10.71l-.95-15.86s-17.59-16.25-18.36-16.25-4,6.31-5.73,12a101.56,101.56,0,0,0-2.68,14.53s-1.53-2.11-3.05-1.91-8.42,19.41-30.4,14.29L373.2,331S369.18,332.68,369.57,334.59Z" style="fill:#ffbf9d"></path><path d="M386.52,351.89c-.37.09-1.65,16.59-1.65,16.59s11.52,4.35,23,2.79,17.72-5.59,17.72-5.59L416.3,344,411.19,338,388.89,344Z" style="fill:#ff9a6c"></path><path d="M386.52,351.89a3.31,3.31,0,0,1,.13-.55c.11-.38.25-.9.43-1.56.4-1.38,1-3.35,1.68-5.84l0-.07.08,0,22.27-6,.14,0,.1.11,5.13,5.93,0,0,0,0c2.63,6.12,5.52,12.83,8.54,19.84l.79,1.85.1.23-.2.11a43.21,43.21,0,0,1-11.34,4.38,49.6,49.6,0,0,1-11.14,1.55,51.43,51.43,0,0,1-10.06-.93,55.7,55.7,0,0,1-8.42-2.25l-.13-.05v-.14c.43-5.18.82-9.33,1.13-12.19s.57-4.43.7-4.39a4.7,4.7,0,0,0-.18,1.13c-.07.79-.18,1.88-.31,3.28-.26,2.86-.59,7-1,12.2l-.12-.19a55.83,55.83,0,0,0,18.34,3,49.4,49.4,0,0,0,11-1.58,43.1,43.1,0,0,0,11.17-4.32l-.1.34c-.26-.6-.52-1.23-.79-1.85l-8.51-19.86,0,.06-5.1-5.95.24.08-22.32,5.84L389,344c-.78,2.5-1.39,4.47-1.83,5.86-.2.63-.37,1.14-.49,1.51A2.84,2.84,0,0,1,386.52,351.89Z" style="fill:#263238"></path><path d="M417.05,330.83s20.57-2.74,31.19,2.76c0,0,2.39,2.68-.41,8.92,0,0-17.55-5-29.68-2.34L415.49,338Z" style="fill:#455a64"></path><polygon points="423.74 332.26 424.48 333.76 426.13 334 424.94 335.17 425.22 336.82 423.74 336.04 422.25 336.82 422.54 335.17 421.34 334 423 333.76 423.74 332.26" style="fill:#fff"></polygon><polygon points="431.08 332.47 431.78 333.99 433.43 334.27 432.2 335.41 432.44 337.07 430.98 336.25 429.47 336.99 429.8 335.35 428.63 334.14 430.3 333.95 431.08 332.47" style="fill:#fff"></polygon><polygon points="438.74 333.4 439.14 335.03 440.71 335.61 439.3 336.5 439.23 338.18 437.94 337.1 436.33 337.55 436.95 336 436.02 334.6 437.7 334.72 438.74 333.4" style="fill:#fff"></polygon><polygon points="446.11 334.75 446.45 336.39 448 337.03 446.54 337.87 446.41 339.54 445.17 338.41 443.54 338.79 444.22 337.27 443.35 335.83 445.02 336.02 446.11 334.75" style="fill:#fff"></polygon><g style="opacity:0.30000000000000004"><path d="M419.31,335.8c-.65-2.67-1.62-5.44-3.78-7.15l-35.93,18a28.13,28.13,0,0,0,5.15,5.52,9.47,9.47,0,0,0,7.07,2c3.25-.56,5.66-3.28,8.62-4.72a22.7,22.7,0,0,1,7.16-1.74,25.06,25.06,0,0,0,7.19-1.63,8.25,8.25,0,0,0,4.84-5.26A10.8,10.8,0,0,0,419.31,335.8Z"></path></g><path d="M369.57,334.59a10.74,10.74,0,0,0,.18,1.26c.47,2.39,2.11,7.54,7.63,9.74,7.31,2.92,6.95,6.22,12.61,6.3s8.41-3.2,12.24-4.3,13.29-1.86,15.54-5.3c2.36-3.61-.37-9.68-1.28-14.43a39.56,39.56,0,0,0-2.38-8s-.12-.37-1,.85c-.37.48-.86,1.69-1.53,2.55-2.33,3-9.05,10.57-17.68,10.89s-19.24-2.65-20.42-3.13c-1.65-.67-4.48,1.44-3.84,4" style="fill:#455a64"></path><path d="M432.93,323.85a11.78,11.78,0,0,1-.29-2.75,64.23,64.23,0,0,1,.79-13.29,12.17,12.17,0,0,1,.62-2.7,15.48,15.48,0,0,1-.23,2.75c-.2,1.69-.43,4-.59,6.61s-.2,4.92-.21,6.62A16,16,0,0,1,432.93,323.85Z" style="fill:#263238"></path><path d="M442.86,327.88c-.09.17-3-2-7.3-2.78a29,29,0,0,0-7.81-.19,6.81,6.81,0,0,1,2.27-.55A17.84,17.84,0,0,1,441,326.51,7.42,7.42,0,0,1,442.86,327.88Z" style="fill:#263238"></path><path d="M435.51,362.79a2.45,2.45,0,0,1-.88-.35,15.31,15.31,0,0,1-2.17-1.39,14.13,14.13,0,0,1-2.76-2.66,5.43,5.43,0,0,1-1.07-2.07,7.44,7.44,0,0,1,0-2.49,21.71,21.71,0,0,1,1.46-4.45,19.69,19.69,0,0,0,1.19-3.55,10.5,10.5,0,0,0,.12-3.42,2.19,2.19,0,0,1,.29.91,7.26,7.26,0,0,1,0,2.59,18.46,18.46,0,0,1-1.1,3.66,22.85,22.85,0,0,0-1.39,4.35,6.82,6.82,0,0,0,0,2.29,4.9,4.9,0,0,0,.94,1.88,15.34,15.34,0,0,0,2.6,2.66C434.35,362.12,435.55,362.71,435.51,362.79Z" style="fill:#263238"></path><path d="M447,353.56a28.31,28.31,0,0,0,.74-3.93,29.3,29.3,0,0,0-.36-4,7.75,7.75,0,0,1-.38,7.92Z" style="fill:#263238"></path><path d="M470.13,354.55c.06,0-.08.45-.5,1a5.76,5.76,0,0,1-4.78,2.15c-.7-.05-1.1-.22-1.08-.29a11.83,11.83,0,0,0,3.5-.7A11.56,11.56,0,0,0,470.13,354.55Z" style="fill:#263238"></path><path d="M447.14,382.65a43.76,43.76,0,0,1,1.49-4.27,44.73,44.73,0,0,1,1.41-4.3,17.64,17.64,0,0,1-2.9,8.57Z" style="fill:#263238"></path><path d="M343.64,377.24c-.1.11-.76-.47-1-1.49s.07-1.83.21-1.79.09.79.31,1.66S343.77,377.14,343.64,377.24Z" style="fill:#263238"></path><path d="M430,300l13.92,11.5s2.82,0,3.77,1,2.11,3.37,3.06,3.68a4,4,0,0,1,1.58,1.05s.21,3.27,1.26,4.53a9.57,9.57,0,0,0,3.69,2.08l.42-1.66,1,.11a10.71,10.71,0,0,0-1.06-3.37,10,10,0,0,0-1.47-2.21s0-1.48,1.37-.53,1.79,2.95,1.89,4.21a1.32,1.32,0,0,0,1.8,1.27s1.05,1.47,1.79.63.84-2.21,1.68-2.95,2.54-1.82,2.75-3.82-.54-2.6-2.33-4.39-8.32-15.92-8.32-15.92l-.1-2.09s1.68-.32.52-2.64-1.37-2.84-1.37-2.84,2.45-6.63-6.88-8.11l.26-4.74a44.29,44.29,0,0,1-5,4.43s-3.69-3.69-8.11-2.11-4.84,5.16-4.84,5.16-5.8-.84-7.59,5.58c0,0-3.89-1.05-3.89,4.32,0,0-4.14,1.65-1.64,7.15a5.2,5.2,0,0,0-3.31,5.78l-.05.44s-3.64,1.79-.9,5.48a3.62,3.62,0,0,0,.1,5c2.32,2.53,3.53,2.93,3.53,2.93Z" style="fill:#ffbf9d"></path><path d="M434.59,284.17c.53.43,7.41,8.56,7.41,8.56a3.73,3.73,0,0,1,2.06-2.15l-7.4-8.81Z" style="fill:#455a64"></path><path d="M449.19,284.3l-4.36,6.26a2.56,2.56,0,0,1,1.83,1.79l4.67-6.31Z" style="fill:#455a64"></path><path d="M435.16,303l7-9.21a2.19,2.19,0,0,0,2,1.44l-7.52,10.45Z" style="fill:#455a64"></path><path d="M445.08,295.22c.26.45,8.24,16,8.24,16a3.57,3.57,0,0,1,2-1.56s-5.47-12.06-8.85-15.44Z" style="fill:#455a64"></path><path d="M457.61,312a2.13,2.13,0,0,0-1.25-2l5.61-4.06,1.15,2.15Z" style="fill:#455a64"></path><path d="M449.44,314.91l3.57-2.27a4.88,4.88,0,0,0,1.43,1.67l-3.11,2.13S449.37,316.72,449.44,314.91Z" style="fill:#455a64"></path><g style="opacity:0.30000000000000004"><path d="M465.06,318.34c-.14-1.23.1-2.75,0-4a.78.78,0,0,1,.09-.62.53.53,0,0,1,.55-.12,1.06,1.06,0,0,1,.46.38,2.64,2.64,0,0,1,.24,2.31,6,6,0,0,1-1.3,2"></path></g><path d="M455.32,315a2.89,2.89,0,1,1,2.89-2.89A2.89,2.89,0,0,1,455.32,315Zm0-4.73a1.84,1.84,0,1,0,1.84,1.84A1.84,1.84,0,0,0,455.32,310.27Z" style="fill:#455a64"></path><path d="M444.37,295.82a2.89,2.89,0,1,1,2.89-2.89A2.89,2.89,0,0,1,444.37,295.82Zm0-4.74a1.85,1.85,0,1,0,1.84,1.85A1.85,1.85,0,0,0,444.37,291.08Z" style="fill:#455a64"></path><path d="M440.38,279.88a5.34,5.34,0,0,1-1.13-.06,5.8,5.8,0,0,0-2.92.39,2.67,2.67,0,0,0-1.37,1.36,5.08,5.08,0,0,0-.14,2.3,4.46,4.46,0,0,1-.47,2.77,4,4,0,0,1-2.4,1.84,3.79,3.79,0,0,1-.93.13l-.62,0,.42-.47a3.22,3.22,0,0,0,.58-2.39c-.07-.85-.29-1.68-.33-2.53a6.12,6.12,0,0,1,1.41-4.11,6,6,0,0,1,2.33-1.74,2.63,2.63,0,0,1,1-.25,9.89,9.89,0,0,1-1,.43,6.34,6.34,0,0,0-2.12,1.8,5.8,5.8,0,0,0-1.22,3.84c.05.78.28,1.6.37,2.51a3.7,3.7,0,0,1-.71,2.8l-.2-.45a3.66,3.66,0,0,0,.79-.11,3.57,3.57,0,0,0,2.08-1.59,4,4,0,0,0,.43-2.47,5.32,5.32,0,0,1,.23-2.51,3.09,3.09,0,0,1,1.61-1.53,5.6,5.6,0,0,1,3.12-.25A4.27,4.27,0,0,1,440.38,279.88Z" style="fill:#263238"></path><path d="M433.09,280.73c-.06,0,.1-.7.87-1.46a5.22,5.22,0,0,1,3.84-1.41,7,7,0,0,1,3.88,1.29c.86.61,1.24,1.15,1.2,1.19a15.07,15.07,0,0,1-1.4-.87,8.1,8.1,0,0,0-3.69-1.07,5.42,5.42,0,0,0-3.57,1.15C433.45,280.18,433.17,280.77,433.09,280.73Z" style="fill:#263238"></path><path d="M450.05,284.8c0-.06.34-.39,1.05-.8a3.51,3.51,0,0,1,3.21-.29,2.11,2.11,0,0,1,1.16,1.49,1.93,1.93,0,0,1-.42,1.49c-.55.66-1.06.82-1.09.77s.38-.36.78-1a1.66,1.66,0,0,0,.24-1.17,1.76,1.76,0,0,0-.91-1.11,3.51,3.51,0,0,0-2.8.16C450.55,284.65,450.09,284.87,450.05,284.8Z" style="fill:#263238"></path><path d="M450,282.38c0-.05.14-.33.59-.62a3.4,3.4,0,0,1,3.94.26c.41.35.56.65.5.7a7,7,0,0,0-2.46-.92A7.32,7.32,0,0,0,450,282.38Z" style="fill:#263238"></path><path d="M425.72,285.5s-.17.18-.32.56a2.54,2.54,0,0,0,.08,1.68,13.27,13.27,0,0,1,1,2.57,5.25,5.25,0,0,1-1.08,3.3l-.24-.41a2.26,2.26,0,0,0,.78-.18,2.8,2.8,0,0,0,1.33-1.08,3.34,3.34,0,0,0,.47-1.57,5.39,5.39,0,0,1,.74-3,2.65,2.65,0,0,1,1.85-1,1.21,1.21,0,0,1,.75.11c0,.05-.27,0-.72.1a2.59,2.59,0,0,0-1.57,1,5.37,5.37,0,0,0-.55,2.8,3.81,3.81,0,0,1-.52,1.81,3.28,3.28,0,0,1-1.58,1.3,3,3,0,0,1-.95.21l-.53,0,.28-.44a4.94,4.94,0,0,0,1.05-3,16.16,16.16,0,0,0-.86-2.52,2.54,2.54,0,0,1,.09-1.87C425.45,285.57,425.71,285.48,425.72,285.5Z" style="fill:#263238"></path><path d="M426.44,286.57c-.07,0,0-.34.31-.75a3.28,3.28,0,0,1,1.6-1.14,3.36,3.36,0,0,1,2,0c.48.15.73.36.7.42a8.32,8.32,0,0,0-2.49.13C427.21,285.62,426.56,286.66,426.44,286.57Z" style="fill:#263238"></path><path d="M418.32,294.57c-.06,0,.1-.45.56-1a5.11,5.11,0,0,1,2.31-1.48,5,5,0,0,1,2.74-.06c.69.18,1.05.44,1,.5a9.5,9.5,0,0,0-3.6.08A9.08,9.08,0,0,0,418.32,294.57Z" style="fill:#263238"></path><path d="M418.11,299.83a4.29,4.29,0,0,1,2.13-2.58,4.24,4.24,0,0,1,3.25-.77,20.53,20.53,0,0,0-3,1.23A19.4,19.4,0,0,0,418.11,299.83Z" style="fill:#263238"></path><path d="M414.8,305.55c-.06,0,.07-.54.49-1.33a4,4,0,0,1,1-1.23,5.63,5.63,0,0,1,.75-.56,2.8,2.8,0,0,1,1-.35c1.35-.23,2.51-.21,3.31-.46s1.21-.58,1.27-.51-.28.54-1.14.87a16.31,16.31,0,0,1-3.34.63,2.56,2.56,0,0,0-.82.28,6.33,6.33,0,0,0-.7.49,4.55,4.55,0,0,0-1,1C415.14,305.12,414.87,305.59,414.8,305.55Z" style="fill:#263238"></path><path d="M413.75,310.59s-.14-.12-.21-.43a2,2,0,0,1,.2-1.27c.48-1,1.82-1.84,3.21-2.52a37.34,37.34,0,0,0,3.46-1.95c.87-.54,1.25-1,1.31-1s-.24.66-1.08,1.3a19.82,19.82,0,0,1-3.44,2.13,7.29,7.29,0,0,0-3.12,2.22A2.71,2.71,0,0,0,413.75,310.59Z" style="fill:#263238"></path><path d="M413.28,311.84c-.07,0,.08-.59.74-1.22a9.4,9.4,0,0,1,3-1.66,11.36,11.36,0,0,0,2.77-1.71,5.86,5.86,0,0,0,.88-1c.08,0,0,.64-.61,1.29a8.71,8.71,0,0,1-2.82,1.93,13.48,13.48,0,0,0-2.93,1.45C413.61,311.41,413.35,311.88,413.28,311.84Z" style="fill:#263238"></path><path d="M414.88,316.89s-.39-.39-.49-1.24a4.63,4.63,0,0,1,.95-3.06,5.25,5.25,0,0,1,2.64-1.82c.77-.26,1.29-.25,1.3-.18s-.46.2-1.16.54a5.86,5.86,0,0,0-2.33,1.78,4.91,4.91,0,0,0-1,2.73C414.76,316.39,415,316.86,414.88,316.89Z" style="fill:#263238"></path><path d="M415.08,304.06c-.06,0-.15-.77.52-1.73a5.15,5.15,0,0,1,1.47-1.37,12.9,12.9,0,0,1,2.18-1,17.19,17.19,0,0,0,2.13-.93,5.91,5.91,0,0,0,1.46-1.13,7.69,7.69,0,0,0,.9-1.46c.06,0,.1.77-.61,1.71a5.49,5.49,0,0,1-1.5,1.32,14.64,14.64,0,0,1-2.18,1,15.1,15.1,0,0,0-2.12.94,5.76,5.76,0,0,0-1.42,1.17A6.42,6.42,0,0,0,415.08,304.06Z" style="fill:#263238"></path><path d="M430.82,288.49a5.78,5.78,0,0,1-.76,1.11c-.53.69-1.27,1.7-2.14,3a61.68,61.68,0,0,0-5.79,10.56,62.51,62.51,0,0,0-3.57,11.5c-.31,1.51-.53,2.74-.65,3.6a6.28,6.28,0,0,1-.27,1.32,6,6,0,0,1,.05-1.35c.07-.86.23-2.11.49-3.65a53.72,53.72,0,0,1,9.42-22.2c.92-1.26,1.71-2.24,2.29-2.89A8.49,8.49,0,0,1,430.82,288.49Z" style="fill:#263238"></path><path d="M442.33,280.28c0,.16-1.43.23-3.11.72s-2.94,1.17-3,1a7.54,7.54,0,0,1,6.13-1.76Z" style="fill:#263238"></path><path d="M448.86,275.83a18.23,18.23,0,0,0-1.22,3.86,7,7,0,0,0,.4,4c.28-2.58.56-5.17.85-7.75" style="fill:#263238"></path><path d="M455.19,288.49a17.76,17.76,0,0,1-7-4.8,30.33,30.33,0,0,1,3.5,2.37A31.42,31.42,0,0,1,455.19,288.49Z" style="fill:#263238"></path><path d="M451.14,296.06a5,5,0,0,1,2.36-2.24,1.54,1.54,0,0,1,.91-.19.94.94,0,0,1,.63.51,1.77,1.77,0,0,1,.12.75,8.46,8.46,0,0,1-.31,2.34.93.93,0,0,1-.52.71,1.19,1.19,0,0,1-.9-.12,5.49,5.49,0,0,1-2.29-1.76" style="fill:#fff"></path><path d="M455.16,294.89a1.77,1.77,0,0,0-.12-.75.94.94,0,0,0-.63-.51,1.54,1.54,0,0,0-.91.19,5.52,5.52,0,0,0-.93.57l-.06.05-.13.13a4.19,4.19,0,0,0,1.14,3,1.7,1.7,0,0,0,.46.35.71.71,0,0,0,.32.07h0a.93.93,0,0,0,.52-.71A8.46,8.46,0,0,0,455.16,294.89Z" style="fill:#263238"></path><path d="M455.39,296.12c-.08,0-.27-.41-.37-1.09a1.8,1.8,0,0,0-.42-1c-.28-.28-.6-.27-1.06,0a11.22,11.22,0,0,0-2.73,2.56c-.06,0,0-.47.42-1.09a5.65,5.65,0,0,1,2-2,1.79,1.79,0,0,1,.87-.28,1.15,1.15,0,0,1,.82.39,2,2,0,0,1,.45,1.28A4.8,4.8,0,0,1,455.39,296.12Z" style="fill:#263238"></path><path d="M465.69,312.22c0,.14-.87.26-1.45,1s-.42,1.66-.57,1.69-.21-.18-.26-.56a2.08,2.08,0,0,1,1.66-2.25C465.46,312.06,465.69,312.15,465.69,312.22Z" style="fill:#263238"></path><path d="M456.27,315.49c0-.06.5-.25,1.33,0a4.42,4.42,0,0,1,2.5,2,8,8,0,0,1,.95,3,3,3,0,0,1,0,1.31c-.08,0-.21-.47-.41-1.24a10.27,10.27,0,0,0-1-2.82,4.65,4.65,0,0,0-2.15-1.92C456.77,315.54,456.27,315.58,456.27,315.49Z" style="fill:#263238"></path><path d="M457.89,322.42a4.43,4.43,0,0,1-2.13-2.53,4.38,4.38,0,0,1-.3-3.29,28.19,28.19,0,0,0,.8,3.08A27.2,27.2,0,0,0,457.89,322.42Z" style="fill:#263238"></path><path d="M445.78,309.53a2.06,2.06,0,0,1-.73.16,8.75,8.75,0,0,1-2,0,9.89,9.89,0,0,1-8.61-9.05,8.72,8.72,0,0,1,.07-2,1.81,1.81,0,0,1,.2-.72c.1,0-.11,1.05.12,2.7a10.38,10.38,0,0,0,2.7,5.73,10.5,10.5,0,0,0,5.58,3C444.72,309.58,445.77,309.43,445.78,309.53Z" style="fill:#263238"></path><g style="opacity:0.30000000000000004"><path d="M439.86,308.22a9.26,9.26,0,0,1-4.3-4.79l-.15.22a5.35,5.35,0,0,0,1.54,4.49,7.4,7.4,0,0,0,4.38,2,12.2,12.2,0,0,0,4.87-.51A12.85,12.85,0,0,1,439.86,308.22Z"></path></g><path d="M414.59,321.61a3.11,3.11,0,0,1,.25.62c.15.46.36,1.06.61,1.8.51,1.56,1.24,3.84,2,6.7.38,1.42.76,3,1.09,4.71a11.07,11.07,0,0,1,.1,5.59,5.63,5.63,0,0,1-1.8,2.52,9.57,9.57,0,0,1-2.81,1.53,57.87,57.87,0,0,1-6.42,1.54,63.48,63.48,0,0,0-6.35,1.52,45.74,45.74,0,0,0-5.42,2.73,11.59,11.59,0,0,1-5.42,1.39,9,9,0,0,1-4.7-1.31,31.19,31.19,0,0,1-3.24-2.34,18.42,18.42,0,0,0-4.72-2.86,3,3,0,0,1,.64.17,12.18,12.18,0,0,1,1.74.78,22.59,22.59,0,0,1,2.52,1.67,34.28,34.28,0,0,0,3.25,2.24,8.58,8.58,0,0,0,4.5,1.19,11,11,0,0,0,5.19-1.37,44.65,44.65,0,0,1,5.49-2.79,60.2,60.2,0,0,1,6.42-1.55,60,60,0,0,0,6.34-1.52c1.94-.67,3.72-1.91,4.32-3.7a10.87,10.87,0,0,0-.07-5.35c-.31-1.7-.67-3.27-1-4.7-.71-2.86-1.39-5.14-1.84-6.73l-.51-1.83A2.78,2.78,0,0,1,414.59,321.61Z" style="fill:#263238"></path><path d="M411.86,323.13a4.51,4.51,0,0,1,.18.67c.11.5.26,1.14.44,1.94.36,1.76.87,4.19,1.49,7.16a11.81,11.81,0,0,1,.31,5.09,4.78,4.78,0,0,1-1.52,2.48,9,9,0,0,1-2.63,1.55c-3.86,1.55-8.57,1.45-12.63,3.81-2,1.12-4,2.45-6.33,2.84a6.66,6.66,0,0,1-3.35-.26A12.87,12.87,0,0,1,385,346.9c-3.24-2.46-6.8-3.68-9.14-5.84a8.81,8.81,0,0,1-2.44-3.43,6.1,6.1,0,0,1-.28-3.17,4.37,4.37,0,0,1,.77-1.85,2.28,2.28,0,0,1,.47-.52,5.45,5.45,0,0,0-1,2.41,6.06,6.06,0,0,0,.35,3,8.59,8.59,0,0,0,2.41,3.25c2.27,2.05,5.87,3.26,9.17,5.72a12.75,12.75,0,0,0,2.71,1.43,6.09,6.09,0,0,0,3.09.22c2.15-.36,4.09-1.64,6.16-2.79a21.72,21.72,0,0,1,6.54-2.25,40.31,40.31,0,0,0,6.17-1.55c1.85-.69,3.5-1.94,3.9-3.67a11.75,11.75,0,0,0-.26-4.9c-.55-3-1-5.43-1.32-7.2-.14-.81-.25-1.46-.34-2A2.76,2.76,0,0,1,411.86,323.13Z" style="fill:#263238"></path><path d="M398.79,371.47a15,15,0,0,1-1-2.88c-.51-1.8-1.13-4.31-1.7-7.11s-1-5.36-1.22-7.21a15.51,15.51,0,0,1-.25-3,18.73,18.73,0,0,1,.63,3c.34,1.83.8,4.37,1.37,7.16s1.13,5.3,1.54,7.12A19.32,19.32,0,0,1,398.79,371.47Z" style="fill:#263238"></path><path d="M413.48,370.39c-.15,0-1.45-5.32-2.9-11.94s-2.51-12-2.36-12.07,1.44,5.32,2.89,11.95S413.62,370.36,413.48,370.39Z" style="fill:#263238"></path><path d="M376.46,354.31a6.51,6.51,0,0,1,1.17,1.89,16,16,0,0,1,1.5,5.16,13.48,13.48,0,0,1,0,3,10.54,10.54,0,0,1-.58,2.37,5,5,0,0,1-1.11,1.93c-.09-.05.35-.78.74-2.06a12.62,12.62,0,0,0,.41-5.16C378.13,357.32,376.28,354.39,376.46,354.31Z" style="fill:#263238"></path><path d="M356.73,341.11a22.73,22.73,0,0,0-3.45,5.39,23.06,23.06,0,0,0-1.28,6.26,4.69,4.69,0,0,1-.19-1.91,13.3,13.3,0,0,1,3.45-8.5A4.58,4.58,0,0,1,356.73,341.11Z" style="fill:#263238"></path><path d="M319.72,371c0-.06.68,0,1.86-.13a11.51,11.51,0,0,0,4.67-1.81,17.11,17.11,0,0,0,5.13-5.39,74.45,74.45,0,0,0,4.18-8.25,29.68,29.68,0,0,1,5-7.9,14.17,14.17,0,0,1,3.2-2.58,11.76,11.76,0,0,1,3.33-1.3,9.17,9.17,0,0,1,5.13.2,6.19,6.19,0,0,1,1.27.59c.27.18.41.27.4.29s-.59-.33-1.73-.68a9.43,9.43,0,0,0-5,0,12.5,12.5,0,0,0-6.25,3.86,30.26,30.26,0,0,0-4.87,7.78,68.14,68.14,0,0,1-4.25,8.29,17,17,0,0,1-5.34,5.44,11.05,11.05,0,0,1-4.85,1.7,8.1,8.1,0,0,1-1.41,0A2,2,0,0,1,319.72,371Z" style="fill:#263238"></path><path d="M352.52,347.41c0,.06-.52-.2-1.49-.28a6.77,6.77,0,0,0-3.9.94,10,10,0,0,0-3.86,4.55,52.48,52.48,0,0,0-2.39,7.15,19.43,19.43,0,0,1-3.55,6.76,18.59,18.59,0,0,1-4.7,4.1,16.5,16.5,0,0,1-3.81,1.78,9.68,9.68,0,0,1-1.1.3c-.25.06-.39.08-.39.06a27.12,27.12,0,0,0,5.09-2.46,19.09,19.09,0,0,0,7.94-10.71,51,51,0,0,1,2.45-7.2,10.22,10.22,0,0,1,4.13-4.66,6.65,6.65,0,0,1,4.12-.82,4.46,4.46,0,0,1,1.11.3A1.27,1.27,0,0,1,352.52,347.41Z" style="fill:#263238"></path><path d="M345,339.67a3.38,3.38,0,0,1,1.6-.28,9.18,9.18,0,0,1,3.86.85,9,9,0,0,1,3.13,2.41,3.38,3.38,0,0,1,.82,1.42,14.11,14.11,0,0,0-4.18-3.33A14.26,14.26,0,0,0,345,339.67Z" style="fill:#263238"></path><g style="opacity:0.30000000000000004"><path d="M377.12,355.55a15.6,15.6,0,0,1,1.12,11.72,3.63,3.63,0,0,0,2.31-1.85,6.15,6.15,0,0,0,.63-3C381.15,359.51,379.52,357.28,377.12,355.55Z"></path></g></g><g id="freepik--carousel-horse-2--inject-82"><rect x="256.46" y="182.02" width="7.27" height="250.12" style="fill:#92E3A9"></rect><path d="M264.07,186.41a27.9,27.9,0,0,1-7.6,0,27.9,27.9,0,0,1,7.6,0Z" style="fill:#263238"></path><path d="M264.07,190.15a27.9,27.9,0,0,1-7.6,0,27.9,27.9,0,0,1,7.6,0Z" style="fill:#263238"></path><path d="M264.07,193.9a27.9,27.9,0,0,1-7.6,0,27.9,27.9,0,0,1,7.6,0Z" style="fill:#263238"></path><path d="M264.07,197.65a27.9,27.9,0,0,1-7.6,0,27.9,27.9,0,0,1,7.6,0Z" style="fill:#263238"></path><path d="M264.07,201.4a27.9,27.9,0,0,1-7.6,0,27.9,27.9,0,0,1,7.6,0Z" style="fill:#263238"></path><path d="M264.07,205.15a27.9,27.9,0,0,1-7.6,0,27.9,27.9,0,0,1,7.6,0Z" style="fill:#263238"></path><path d="M264.07,208.9a27.9,27.9,0,0,1-7.6,0,27.9,27.9,0,0,1,7.6,0Z" style="fill:#263238"></path><path d="M264.07,212.65a27.9,27.9,0,0,1-7.6,0,27.9,27.9,0,0,1,7.6,0Z" style="fill:#263238"></path><path d="M264.07,216.4a27.9,27.9,0,0,1-7.6,0,27.9,27.9,0,0,1,7.6,0Z" style="fill:#263238"></path><path d="M264.07,220.15a27.9,27.9,0,0,1-7.6,0,27.9,27.9,0,0,1,7.6,0Z" style="fill:#263238"></path><path d="M264.07,223.9a27.9,27.9,0,0,1-7.6,0,27.9,27.9,0,0,1,7.6,0Z" style="fill:#263238"></path><path d="M264.07,227.65a27.9,27.9,0,0,1-7.6,0,27.9,27.9,0,0,1,7.6,0Z" style="fill:#263238"></path><path d="M264.07,231.4a27.9,27.9,0,0,1-7.6,0,27.9,27.9,0,0,1,7.6,0Z" style="fill:#263238"></path><path d="M264.07,235.15a27.9,27.9,0,0,1-7.6,0,27.9,27.9,0,0,1,7.6,0Z" style="fill:#263238"></path><path d="M264.07,238.89a26.88,26.88,0,0,1-7.6,0,27.9,27.9,0,0,1,7.6,0Z" style="fill:#263238"></path><path d="M264.07,242.64a27.9,27.9,0,0,1-7.6,0,27.9,27.9,0,0,1,7.6,0Z" style="fill:#263238"></path><path d="M264.07,246.39a27.9,27.9,0,0,1-7.6,0,27.9,27.9,0,0,1,7.6,0Z" style="fill:#263238"></path><path d="M264.07,250.14a27.9,27.9,0,0,1-7.6,0,27.9,27.9,0,0,1,7.6,0Z" style="fill:#263238"></path><path d="M264.07,253.89a27.9,27.9,0,0,1-7.6,0,27.9,27.9,0,0,1,7.6,0Z" style="fill:#263238"></path><path d="M264.07,257.64a27.9,27.9,0,0,1-7.6,0,27.9,27.9,0,0,1,7.6,0Z" style="fill:#263238"></path><path d="M264.07,261.39a27.9,27.9,0,0,1-7.6,0,27.9,27.9,0,0,1,7.6,0Z" style="fill:#263238"></path><path d="M264.07,265.14a27.9,27.9,0,0,1-7.6,0,27.9,27.9,0,0,1,7.6,0Z" style="fill:#263238"></path><path d="M264.07,268.89a27.9,27.9,0,0,1-7.6,0,27.9,27.9,0,0,1,7.6,0Z" style="fill:#263238"></path><path d="M264.07,272.64a27.9,27.9,0,0,1-7.6,0,27.9,27.9,0,0,1,7.6,0Z" style="fill:#263238"></path><path d="M264.07,276.39a27.9,27.9,0,0,1-7.6,0,27.9,27.9,0,0,1,7.6,0Z" style="fill:#263238"></path><path d="M264.07,280.14a27.9,27.9,0,0,1-7.6,0,27.9,27.9,0,0,1,7.6,0Z" style="fill:#263238"></path><path d="M264.07,283.89a27.9,27.9,0,0,1-7.6,0,27.9,27.9,0,0,1,7.6,0Z" style="fill:#263238"></path><path d="M264.07,287.63a26.88,26.88,0,0,1-7.6,0,27.9,27.9,0,0,1,7.6,0Z" style="fill:#263238"></path><path d="M264.07,291.38a27.9,27.9,0,0,1-7.6,0,27.9,27.9,0,0,1,7.6,0Z" style="fill:#263238"></path><path d="M264.07,295.13a27.9,27.9,0,0,1-7.6,0,27.9,27.9,0,0,1,7.6,0Z" style="fill:#263238"></path><path d="M264.07,298.88a27.9,27.9,0,0,1-7.6,0,27.9,27.9,0,0,1,7.6,0Z" style="fill:#263238"></path><path d="M264.07,302.63a27.9,27.9,0,0,1-7.6,0,27.9,27.9,0,0,1,7.6,0Z" style="fill:#263238"></path><path d="M264.07,306.38a27.9,27.9,0,0,1-7.6,0,27.9,27.9,0,0,1,7.6,0Z" style="fill:#263238"></path><path d="M264.07,310.13a27.9,27.9,0,0,1-7.6,0,27.9,27.9,0,0,1,7.6,0Z" style="fill:#263238"></path><path d="M264.07,313.88a27.9,27.9,0,0,1-7.6,0,27.9,27.9,0,0,1,7.6,0Z" style="fill:#263238"></path><path d="M264.07,317.63a27.9,27.9,0,0,1-7.6,0,27.9,27.9,0,0,1,7.6,0Z" style="fill:#263238"></path><path d="M264.07,321.38a27.9,27.9,0,0,1-7.6,0,27.9,27.9,0,0,1,7.6,0Z" style="fill:#263238"></path><path d="M264.07,325.13a27.9,27.9,0,0,1-7.6,0,27.9,27.9,0,0,1,7.6,0Z" style="fill:#263238"></path><path d="M264.07,328.88a27.9,27.9,0,0,1-7.6,0,27.9,27.9,0,0,1,7.6,0Z" style="fill:#263238"></path><path d="M264.07,332.63a27.9,27.9,0,0,1-7.6,0,27.9,27.9,0,0,1,7.6,0Z" style="fill:#263238"></path><path d="M264.07,336.37a26.88,26.88,0,0,1-7.6,0,27.9,27.9,0,0,1,7.6,0Z" style="fill:#263238"></path><path d="M264.07,340.12a27.9,27.9,0,0,1-7.6,0,27.9,27.9,0,0,1,7.6,0Z" style="fill:#263238"></path><path d="M264.07,343.87a27.9,27.9,0,0,1-7.6,0,27.9,27.9,0,0,1,7.6,0Z" style="fill:#263238"></path><path d="M264.07,347.62a27.9,27.9,0,0,1-7.6,0,27.9,27.9,0,0,1,7.6,0Z" style="fill:#263238"></path><path d="M264.07,351.37a27.9,27.9,0,0,1-7.6,0,27.9,27.9,0,0,1,7.6,0Z" style="fill:#263238"></path><path d="M264.07,355.12a27.9,27.9,0,0,1-7.6,0,27.9,27.9,0,0,1,7.6,0Z" style="fill:#263238"></path><path d="M264.07,358.87a27.9,27.9,0,0,1-7.6,0,27.9,27.9,0,0,1,7.6,0Z" style="fill:#263238"></path><path d="M264.07,362.62a27.9,27.9,0,0,1-7.6,0,27.9,27.9,0,0,1,7.6,0Z" style="fill:#263238"></path><path d="M264.07,366.37a27.9,27.9,0,0,1-7.6,0,27.9,27.9,0,0,1,7.6,0Z" style="fill:#263238"></path><path d="M264.07,370.12a27.9,27.9,0,0,1-7.6,0,27.9,27.9,0,0,1,7.6,0Z" style="fill:#263238"></path><path d="M264.07,373.87a27.9,27.9,0,0,1-7.6,0,27.9,27.9,0,0,1,7.6,0Z" style="fill:#263238"></path><path d="M264.07,377.62a27.9,27.9,0,0,1-7.6,0,27.9,27.9,0,0,1,7.6,0Z" style="fill:#263238"></path><path d="M264.07,381.37a27.9,27.9,0,0,1-7.6,0,27.9,27.9,0,0,1,7.6,0Z" style="fill:#263238"></path><path d="M264.07,385.11a26.88,26.88,0,0,1-7.6,0,27.9,27.9,0,0,1,7.6,0Z" style="fill:#263238"></path><path d="M264.07,388.86a27.9,27.9,0,0,1-7.6,0,27.9,27.9,0,0,1,7.6,0Z" style="fill:#263238"></path><path d="M264.07,392.61a27.9,27.9,0,0,1-7.6,0,27.9,27.9,0,0,1,7.6,0Z" style="fill:#263238"></path><path d="M264.07,396.36a27.9,27.9,0,0,1-7.6,0,27.9,27.9,0,0,1,7.6,0Z" style="fill:#263238"></path><path d="M264.07,400.11a27.9,27.9,0,0,1-7.6,0,27.9,27.9,0,0,1,7.6,0Z" style="fill:#263238"></path><path d="M264.07,403.86a27.9,27.9,0,0,1-7.6,0,27.9,27.9,0,0,1,7.6,0Z" style="fill:#263238"></path><path d="M264.07,407.61a27.9,27.9,0,0,1-7.6,0,27.9,27.9,0,0,1,7.6,0Z" style="fill:#263238"></path><path d="M264.07,411.36a27.9,27.9,0,0,1-7.6,0,27.9,27.9,0,0,1,7.6,0Z" style="fill:#263238"></path><path d="M264.07,415.11a27.9,27.9,0,0,1-7.6,0,27.9,27.9,0,0,1,7.6,0Z" style="fill:#263238"></path><path d="M264.07,418.86a27.9,27.9,0,0,1-7.6,0,27.9,27.9,0,0,1,7.6,0Z" style="fill:#263238"></path><path d="M264.07,422.61a27.9,27.9,0,0,1-7.6,0,27.9,27.9,0,0,1,7.6,0Z" style="fill:#263238"></path><path d="M264.07,426.36a27.9,27.9,0,0,1-7.6,0,27.9,27.9,0,0,1,7.6,0Z" style="fill:#263238"></path><path d="M205.94,280.41c-3.66,3.23-5.29,8.12-7.72,12.37a34.81,34.81,0,0,1-12.3,12.52c-.82.49-1.79,1.18-1.66,2.13a2.21,2.21,0,0,0,1.31,1.45c4.82,2.64,11.05,1.89,15.64-1.12s7.65-8,9.19-13.26c.67-2.31,1.11-4.76,2.5-6.71s4.14-3.25,6.24-2.1l2.53-4.83C216.5,274.85,210,276.86,205.94,280.41Z" style="fill:#ffbf9d"></path><path d="M234.57,272.13s-15.48,3.44-17.2,14.14,0,17.21,0,17.21l-3.45,3.82h-6.49l-3.06,3.25a30.31,30.31,0,0,1-1.53,9.25c-1.53,3.94-10.71,14.05-10.71,14.05l-5.35-.25s-6.31,7.15-4.4,11.36l1.15,1.14,7.27-2.86a20.81,20.81,0,0,1,5.92-5.53c3.25-1.74,5.74-4.6,6.31-6.32s9.37-13,9.37-13,5.54,3.05,15.86-.76a29.37,29.37,0,0,0,14.91-12.79h8.41l37.06-.53,9-5.78s3.82,2.86,5.93,2.86,13-1.89,13-1.89l12.43-4.6,1.34,1.52L324,306.92l-8.6,4.54L312,308.8l-9.94,9.12s6.5,2.53,11.47,1.88S326.9,315,326.9,315s9.94-14.6,13.38-18.62l-2.87-10.7-7.65-.57-16.24-1-1.15-1s.38-3.16,1.34-7.56-3.83-10.71-3.83-10.71L308.93,249s-17.59-16.25-18.35-16.25-4,6.31-5.74,12a101.17,101.17,0,0,0-2.67,14.53s-1.53-2.1-3.06-1.91-8.41,19.41-30.4,14.29l-10.51-3.2S234.19,270.22,234.57,272.13Z" style="fill:#ffbf9d"></path><path d="M251.52,289.43c-.36.08-1.64,16.59-1.64,16.59s11.51,4.35,23,2.78,17.73-5.58,17.73-5.58l-9.32-21.71-5.12-5.94-22.29,5.94Z" style="fill:#ff9a6c"></path><path d="M251.52,289.43a4.68,4.68,0,0,1,.13-.56c.11-.38.25-.9.44-1.55.39-1.39,1-3.35,1.68-5.85l0-.07.07,0,22.27-6,.14,0,.1.11,5.13,5.93,0,0v0l8.54,19.85.8,1.85.09.22-.2.11a43.21,43.21,0,0,1-11.34,4.38,50.2,50.2,0,0,1-11.14,1.56,51.41,51.41,0,0,1-10.06-.94,54.55,54.55,0,0,1-8.42-2.25l-.13,0V306c.43-5.17.82-9.33,1.13-12.18s.57-4.43.7-4.39a6.24,6.24,0,0,0-.18,1.12c-.07.79-.18,1.89-.31,3.29-.25,2.86-.58,7-1,12.19l-.12-.19a55.85,55.85,0,0,0,18.35,3,49.4,49.4,0,0,0,11-1.58A42.85,42.85,0,0,0,290.48,303l-.1.33-.8-1.85-8.51-19.86,0,.07-5.1-6,.24.08-22.32,5.84.1-.09c-.78,2.5-1.4,4.47-1.83,5.86-.21.64-.37,1.14-.49,1.52A3.27,3.27,0,0,1,251.52,289.43Z" style="fill:#263238"></path><path d="M282.05,268.36s20.58-2.74,31.19,2.77c0,0,2.39,2.67-.4,8.92,0,0-17.56-5.05-29.69-2.35l-2.66-2.13Z" style="fill:#92E3A9"></path><polygon points="288.74 269.79 289.48 271.29 291.14 271.53 289.94 272.7 290.22 274.35 288.74 273.57 287.26 274.35 287.54 272.7 286.34 271.53 288 271.29 288.74 269.79" style="fill:#fff"></polygon><polygon points="296.08 270 296.78 271.52 298.43 271.81 297.2 272.94 297.44 274.6 295.98 273.78 294.48 274.52 294.81 272.88 293.64 271.68 295.3 271.48 296.08 270" style="fill:#fff"></polygon><polygon points="303.74 270.94 304.15 272.56 305.72 273.15 304.3 274.04 304.23 275.71 302.94 274.64 301.33 275.09 301.95 273.53 301.03 272.14 302.7 272.25 303.74 270.94" style="fill:#fff"></polygon><polygon points="311.11 272.28 311.46 273.92 313 274.57 311.55 275.4 311.41 277.07 310.17 275.94 308.54 276.33 309.23 274.8 308.36 273.37 310.02 273.55 311.11 272.28" style="fill:#fff"></polygon><g style="opacity:0.30000000000000004"><path d="M284.31,273.34c-.64-2.68-1.62-5.45-3.78-7.16l-35.92,18a28.08,28.08,0,0,0,5.14,5.52,9.44,9.44,0,0,0,7.08,2c3.25-.56,5.65-3.27,8.61-4.72a23,23,0,0,1,7.16-1.74,25.06,25.06,0,0,0,7.19-1.63,8.23,8.23,0,0,0,4.84-5.26A10.76,10.76,0,0,0,284.31,273.34Z"></path></g><path d="M234.57,272.13a10.77,10.77,0,0,0,.18,1.25c.47,2.39,2.11,7.55,7.63,9.75,7.31,2.91,7,6.21,12.61,6.3s8.41-3.21,12.25-4.31,13.28-1.86,15.53-5.29c2.36-3.62-.37-9.69-1.28-14.44a38.8,38.8,0,0,0-2.38-8s-.23.37-2.56,3.41-9.05,10.56-17.69,10.88-19.24-2.65-20.42-3.13c-1.65-.67-4.47,1.44-3.84,4" style="fill:#92E3A9"></path><path d="M297.94,261.38a12,12,0,0,1-.3-2.74,60.38,60.38,0,0,1,.05-6.67,62.88,62.88,0,0,1,.75-6.63,12,12,0,0,1,.62-2.69,16.17,16.17,0,0,1-.24,2.74c-.19,1.69-.43,4-.59,6.61s-.19,4.93-.2,6.63A17.2,17.2,0,0,1,297.94,261.38Z" style="fill:#263238"></path><path d="M307.86,265.42a23,23,0,0,0-15.1-3,6.91,6.91,0,0,1,2.27-.55,17.87,17.87,0,0,1,5.64.21,17.57,17.57,0,0,1,5.3,1.95A6.72,6.72,0,0,1,307.86,265.42Z" style="fill:#263238"></path><path d="M300.51,300.33a3,3,0,0,1-.88-.36,16,16,0,0,1-2.17-1.38,15.05,15.05,0,0,1-2.76-2.66,5.32,5.32,0,0,1-1.06-2.08,7.13,7.13,0,0,1,0-2.48,21.81,21.81,0,0,1,1.47-4.46,21.33,21.33,0,0,0,1.19-3.54,9.94,9.94,0,0,0,.11-3.42,2.18,2.18,0,0,1,.3.9,7.76,7.76,0,0,1,0,2.59,19.25,19.25,0,0,1-1.11,3.66,23.45,23.45,0,0,0-1.39,4.36,6.82,6.82,0,0,0,0,2.29,5,5,0,0,0,.94,1.88,16,16,0,0,0,2.6,2.65C299.35,299.65,300.55,300.25,300.51,300.33Z" style="fill:#263238"></path><path d="M312,291.09a28.31,28.31,0,0,0,.74-3.93,29,29,0,0,0-.36-4,7.73,7.73,0,0,1-.38,7.91Z" style="fill:#263238"></path><path d="M335.13,292.09c.06,0-.08.44-.5,1a5.68,5.68,0,0,1-4.78,2.15c-.7-.05-1.1-.22-1.08-.28a12.08,12.08,0,0,0,3.51-.71A11.78,11.78,0,0,0,335.13,292.09Z" style="fill:#263238"></path><path d="M312.14,320.18c-.14-.07.71-1.91,1.5-4.27s1.25-4.33,1.4-4.3a12.15,12.15,0,0,1-.89,4.47A11.88,11.88,0,0,1,312.14,320.18Z" style="fill:#263238"></path><path d="M208.65,314.78c-.1.1-.77-.48-1-1.5s.07-1.83.21-1.78.1.78.32,1.66S208.77,314.68,208.65,314.78Z" style="fill:#263238"></path><path d="M295,237.51,308.93,249s2.82,0,3.77,1,2.11,3.37,3.06,3.68a4,4,0,0,1,1.58,1.06s.21,3.26,1.27,4.53a9.56,9.56,0,0,0,3.68,2.07l.42-1.65,1,.1a10.85,10.85,0,0,0-1.05-3.37,9.79,9.79,0,0,0-1.48-2.21s0-1.47,1.37-.53,1.79,3,1.9,4.22a1.3,1.3,0,0,0,1.79,1.26s1.05,1.48,1.79.63.84-2.21,1.68-2.95,2.55-1.82,2.76-3.82-.54-2.6-2.33-4.39-8.32-15.92-8.32-15.92l-.11-2.09s1.69-.32.53-2.63-1.37-2.85-1.37-2.85,2.44-6.63-6.89-8.11l.26-4.74a43.35,43.35,0,0,1-5,4.43s-3.68-3.69-8.11-2.11-4.84,5.16-4.84,5.16-5.79-.84-7.58,5.58c0,0-3.9-1-3.9,4.32,0,0-4.13,1.66-1.64,7.15a5.21,5.21,0,0,0-3.31,5.79l-.05.44s-3.64,1.79-.9,5.47a3.62,3.62,0,0,0,.11,4.95c2.31,2.53,3.52,2.93,3.52,2.93Z" style="fill:#ffbf9d"></path><path d="M299.59,221.7c.53.43,7.41,8.56,7.41,8.56a3.75,3.75,0,0,1,2.07-2.15l-7.41-8.81Z" style="fill:#92E3A9"></path><path d="M314.19,221.84l-4.36,6.25a2.58,2.58,0,0,1,1.83,1.79l4.67-6.31Z" style="fill:#92E3A9"></path><path d="M300.16,240.52l7-9.21a2.2,2.2,0,0,0,2,1.44l-7.51,10.46Z" style="fill:#92E3A9"></path><path d="M310.08,232.75c.26.45,8.24,16,8.24,16a3.58,3.58,0,0,1,2-1.57s-5.47-12-8.85-15.43Z" style="fill:#92E3A9"></path><path d="M322.61,249.54a2.13,2.13,0,0,0-1.25-2l5.62-4.07,1.15,2.15Z" style="fill:#92E3A9"></path><path d="M314.44,252.44l3.57-2.27a4.81,4.81,0,0,0,1.43,1.67L316.33,254S314.37,254.25,314.44,252.44Z" style="fill:#92E3A9"></path><g style="opacity:0.30000000000000004"><path d="M330.07,255.87c-.14-1.22.09-2.75-.05-4a.79.79,0,0,1,.1-.62.5.5,0,0,1,.55-.11,1,1,0,0,1,.45.37,2.58,2.58,0,0,1,.24,2.31,5.91,5.91,0,0,1-1.29,2"></path></g><path d="M320.32,252.53a2.89,2.89,0,1,1,2.89-2.89A2.89,2.89,0,0,1,320.32,252.53Zm0-4.73a1.85,1.85,0,1,0,1.84,1.84A1.84,1.84,0,0,0,320.32,247.8Z" style="fill:#92E3A9"></path><path d="M309.37,233.35a2.89,2.89,0,1,1,2.89-2.89A2.89,2.89,0,0,1,309.37,233.35Zm0-4.73a1.85,1.85,0,1,0,1.85,1.84A1.84,1.84,0,0,0,309.37,228.62Z" style="fill:#92E3A9"></path><path d="M305.39,217.42a5.34,5.34,0,0,1-1.13-.06,5.7,5.7,0,0,0-2.93.38A2.73,2.73,0,0,0,300,219.1a5.25,5.25,0,0,0-.15,2.31,4.49,4.49,0,0,1-.46,2.76A4.12,4.12,0,0,1,297,226a3.85,3.85,0,0,1-.94.12l-.61,0,.41-.47a3.22,3.22,0,0,0,.58-2.39c-.07-.85-.28-1.68-.32-2.52a6.05,6.05,0,0,1,1.41-4.11,5.87,5.87,0,0,1,2.33-1.75,2.6,2.6,0,0,1,1-.25,9.63,9.63,0,0,1-1,.44,6.29,6.29,0,0,0-2.12,1.79,5.8,5.8,0,0,0-1.21,3.85c.05.77.27,1.6.36,2.51a3.71,3.71,0,0,1-.7,2.79l-.21-.45a3.21,3.21,0,0,0,.8-.11,3.59,3.59,0,0,0,2.08-1.59,4,4,0,0,0,.42-2.46,5.44,5.44,0,0,1,.23-2.51,3.06,3.06,0,0,1,1.62-1.54,5.45,5.45,0,0,1,3.11-.24A3.69,3.69,0,0,1,305.39,217.42Z" style="fill:#263238"></path><path d="M298.1,218.26c-.06,0,.1-.69.87-1.46a5.22,5.22,0,0,1,3.83-1.41,7.16,7.16,0,0,1,3.89,1.29c.86.61,1.24,1.15,1.19,1.2s-.53-.38-1.4-.88a8,8,0,0,0-3.69-1.06,5.31,5.31,0,0,0-3.57,1.15A14.25,14.25,0,0,0,298.1,218.26Z" style="fill:#263238"></path><path d="M315.05,222.33c0-.06.34-.39,1.05-.79a3.53,3.53,0,0,1,3.22-.3,2.12,2.12,0,0,1,1.15,1.5,1.88,1.88,0,0,1-.41,1.48c-.56.66-1.06.83-1.09.78s.37-.37.77-1a1.59,1.59,0,0,0,.24-1.17,1.76,1.76,0,0,0-.91-1.11,3.56,3.56,0,0,0-2.8.16C315.55,222.18,315.09,222.4,315.05,222.33Z" style="fill:#263238"></path><path d="M315,219.91c-.05,0,.14-.33.59-.62a3.32,3.32,0,0,1,2-.5,3.37,3.37,0,0,1,1.92.77c.41.34.56.65.51.69a7.53,7.53,0,0,0-2.47-.92A7.23,7.23,0,0,0,315,219.91Z" style="fill:#263238"></path><path d="M290.72,223s-.17.18-.31.55a2.49,2.49,0,0,0,.07,1.69,13,13,0,0,1,1,2.57,5.31,5.31,0,0,1-1.07,3.3l-.25-.41a2.82,2.82,0,0,0,.79-.18,2.78,2.78,0,0,0,1.32-1.09,3.4,3.4,0,0,0,.48-1.56,5.42,5.42,0,0,1,.73-3,2.69,2.69,0,0,1,1.85-1c.5,0,.76.09.75.12s-.27,0-.72.09a2.67,2.67,0,0,0-1.57,1,5.38,5.38,0,0,0-.54,2.8,4,4,0,0,1-.53,1.81,3.25,3.25,0,0,1-1.57,1.3,3,3,0,0,1-1,.22l-.52,0,.27-.44a5,5,0,0,0,1.06-3,15.67,15.67,0,0,0-.87-2.51,2.51,2.51,0,0,1,.1-1.88C290.46,223.11,290.71,223,290.72,223Z" style="fill:#263238"></path><path d="M291.44,224.1c-.06,0,0-.34.31-.75a3.35,3.35,0,0,1,3.56-1.17c.49.15.73.36.7.42a8.32,8.32,0,0,0-2.49.13C292.21,223.16,291.57,224.19,291.44,224.1Z" style="fill:#263238"></path><path d="M283.33,232.1c-.06,0,.09-.45.56-1a5.05,5.05,0,0,1,2.31-1.48,5.13,5.13,0,0,1,2.74-.06c.68.19,1,.45,1,.51a9.15,9.15,0,0,0-3.6.07A9.46,9.46,0,0,0,283.33,232.1Z" style="fill:#263238"></path><path d="M283.12,237.36a5.23,5.23,0,0,1,5.37-3.35,20.46,20.46,0,0,0-3,1.24A19.26,19.26,0,0,0,283.12,237.36Z" style="fill:#263238"></path><path d="M279.8,243.09c-.06,0,.08-.55.49-1.34a4.33,4.33,0,0,1,1-1.23A5.23,5.23,0,0,1,282,240a2.68,2.68,0,0,1,1-.35c1.36-.22,2.52-.21,3.32-.46s1.2-.57,1.26-.5-.28.54-1.14.87a15.73,15.73,0,0,1-3.33.62,2.64,2.64,0,0,0-.82.28,5.83,5.83,0,0,0-.7.49,4.75,4.75,0,0,0-1,1C280.14,242.65,279.87,243.13,279.8,243.09Z" style="fill:#263238"></path><path d="M278.75,248.12s-.14-.12-.2-.42a2,2,0,0,1,.19-1.28c.49-1,1.82-1.84,3.22-2.51a37.46,37.46,0,0,0,3.46-2c.86-.54,1.24-1,1.3-1s-.24.66-1.07,1.3a20.35,20.35,0,0,1-3.45,2.13,7.44,7.44,0,0,0-3.12,2.22A3,3,0,0,0,278.75,248.12Z" style="fill:#263238"></path><path d="M278.28,249.37c-.06,0,.08-.59.74-1.22a9.93,9.93,0,0,1,3-1.66,11.78,11.78,0,0,0,2.78-1.7c.64-.54.8-1,.88-1s0,.63-.61,1.28a8.83,8.83,0,0,1-2.82,1.93,12.9,12.9,0,0,0-2.94,1.46C278.61,248.94,278.36,249.41,278.28,249.37Z" style="fill:#263238"></path><path d="M279.88,254.43s-.39-.39-.48-1.24a4.56,4.56,0,0,1,1-3.06A5.19,5.19,0,0,1,283,248.3c.78-.26,1.3-.25,1.3-.18s-.46.21-1.16.54a5.86,5.86,0,0,0-2.33,1.78,4.94,4.94,0,0,0-1,2.73C279.77,253.93,280,254.39,279.88,254.43Z" style="fill:#263238"></path><path d="M280.08,241.6c-.06,0-.15-.77.53-1.74a5.22,5.22,0,0,1,1.46-1.36,12.92,12.92,0,0,1,2.18-1,17.22,17.22,0,0,0,2.13-.92,6,6,0,0,0,1.46-1.13,7,7,0,0,0,.9-1.47c.06,0,.11.77-.6,1.71a5.38,5.38,0,0,1-1.51,1.32,13.69,13.69,0,0,1-2.18,1,13.87,13.87,0,0,0-2.11,1,5.42,5.42,0,0,0-1.43,1.16A6.84,6.84,0,0,0,280.08,241.6Z" style="fill:#263238"></path><path d="M295.83,226a6.71,6.71,0,0,1-.77,1.11c-.53.68-1.27,1.7-2.14,3a60.61,60.61,0,0,0-9.36,22.06c-.31,1.51-.53,2.75-.65,3.6a6.51,6.51,0,0,1-.27,1.33,7.61,7.61,0,0,1,.06-1.35c.06-.87.22-2.12.48-3.65a54,54,0,0,1,9.43-22.21c.92-1.26,1.7-2.24,2.28-2.89A6,6,0,0,1,295.83,226Z" style="fill:#263238"></path><path d="M307.34,217.81c0,.16-1.44.24-3.12.72s-2.94,1.18-3,1a5.52,5.52,0,0,1,2.87-1.56A5.62,5.62,0,0,1,307.34,217.81Z" style="fill:#263238"></path><path d="M313.86,213.36a18.13,18.13,0,0,0-1.22,3.87,6.94,6.94,0,0,0,.41,4l.84-7.76" style="fill:#263238"></path><path d="M320.19,226a11.68,11.68,0,0,1-3.77-2,11.53,11.53,0,0,1-3.19-2.83,29.31,29.31,0,0,1,3.5,2.38A31,31,0,0,1,320.19,226Z" style="fill:#263238"></path><path d="M316.14,233.59a5.17,5.17,0,0,1,2.37-2.24,1.41,1.41,0,0,1,.9-.18.89.89,0,0,1,.63.51,1.88,1.88,0,0,1,.13.75,8.4,8.4,0,0,1-.32,2.33.94.94,0,0,1-.52.72,1.29,1.29,0,0,1-.9-.12,5.59,5.59,0,0,1-2.29-1.77" style="fill:#fff"></path><path d="M320.17,232.43a1.88,1.88,0,0,0-.13-.75.89.89,0,0,0-.63-.51,1.41,1.41,0,0,0-.9.18,5.88,5.88,0,0,0-.94.57l-.06.05-.13.13a4.21,4.21,0,0,0,1.15,3,1.55,1.55,0,0,0,.45.36.88.88,0,0,0,.32.07h0a.94.94,0,0,0,.52-.72A8.4,8.4,0,0,0,320.17,232.43Z" style="fill:#263238"></path><path d="M320.4,233.65c-.08,0-.28-.41-.37-1.09a1.81,1.81,0,0,0-.43-1c-.28-.28-.6-.27-1.06,0a11,11,0,0,0-2.72,2.56c-.07,0,0-.47.41-1.09a5.69,5.69,0,0,1,2-1.95,1.75,1.75,0,0,1,.86-.28,1.17,1.17,0,0,1,.82.39,2,2,0,0,1,.45,1.28A6.15,6.15,0,0,1,320.4,233.65Z" style="fill:#263238"></path><path d="M330.69,249.75c0,.15-.87.26-1.44,1s-.43,1.65-.57,1.68-.22-.17-.27-.56a2.08,2.08,0,0,1,1.67-2.25C330.46,249.6,330.69,249.68,330.69,249.75Z" style="fill:#263238"></path><path d="M321.27,253c0-.05.5-.25,1.33,0a4.3,4.3,0,0,1,2.5,2,8.09,8.09,0,0,1,1,3,3.11,3.11,0,0,1,0,1.31c-.08,0-.21-.47-.4-1.23a10.73,10.73,0,0,0-1.05-2.83,4.56,4.56,0,0,0-2.15-1.92C321.78,253.07,321.28,253.11,321.27,253Z" style="fill:#263238"></path><path d="M322.89,260a5.51,5.51,0,0,1-2.43-5.81,27.16,27.16,0,0,0,.81,3.07A28.32,28.32,0,0,0,322.89,260Z" style="fill:#263238"></path><path d="M310.78,247.06a2,2,0,0,1-.73.16,8.14,8.14,0,0,1-2,0,9.87,9.87,0,0,1-8.61-9,8.37,8.37,0,0,1,.06-2,1.9,1.9,0,0,1,.2-.72c.1,0-.1,1.06.12,2.7a10.06,10.06,0,0,0,8.29,8.71C309.72,247.11,310.77,247,310.78,247.06Z" style="fill:#263238"></path><g style="opacity:0.30000000000000004"><path d="M304.86,245.75a9.17,9.17,0,0,1-4.29-4.79l-.15.22a5.32,5.32,0,0,0,1.53,4.49,7.35,7.35,0,0,0,4.39,2.05,12,12,0,0,0,4.86-.52A12.88,12.88,0,0,1,304.86,245.75Z"></path></g><path d="M279.59,259.14a3.5,3.5,0,0,1,.25.62l.61,1.8c.51,1.57,1.24,3.84,2,6.7.38,1.43.76,3,1.09,4.71a11.11,11.11,0,0,1,.11,5.6,5.55,5.55,0,0,1-1.81,2.51,9.64,9.64,0,0,1-2.8,1.53,59,59,0,0,1-6.42,1.55,57.86,57.86,0,0,0-6.35,1.52,46.62,46.62,0,0,0-5.43,2.72,11.56,11.56,0,0,1-5.42,1.39,9,9,0,0,1-4.69-1.31,30.36,30.36,0,0,1-3.25-2.34,24.91,24.91,0,0,0-2.44-1.72c-1.41-.84-2.3-1.08-2.28-1.14a2.48,2.48,0,0,1,.64.18,10.74,10.74,0,0,1,1.74.78,21.07,21.07,0,0,1,2.53,1.66,30.33,30.33,0,0,0,3.25,2.25,8.65,8.65,0,0,0,4.5,1.19,11.17,11.17,0,0,0,5.19-1.38,45.19,45.19,0,0,1,5.48-2.79,60.79,60.79,0,0,1,6.42-1.55,58.43,58.43,0,0,0,6.35-1.51,6.57,6.57,0,0,0,4.31-3.71,10.87,10.87,0,0,0-.07-5.35c-.31-1.7-.67-3.27-1-4.7-.71-2.85-1.39-5.14-1.83-6.73-.21-.75-.38-1.35-.51-1.83A2.58,2.58,0,0,1,279.59,259.14Z" style="fill:#263238"></path><path d="M276.86,260.66a3.72,3.72,0,0,1,.19.67c.11.5.25,1.15.43,1.94.36,1.76.87,4.19,1.49,7.16a12,12,0,0,1,.32,5.1,4.88,4.88,0,0,1-1.52,2.47,8.71,8.71,0,0,1-2.64,1.55c-3.85,1.56-8.56,1.46-12.63,3.81-2,1.13-4,2.46-6.32,2.84a6.59,6.59,0,0,1-3.36-.26,12.15,12.15,0,0,1-2.81-1.5c-3.25-2.46-6.81-3.69-9.15-5.85a8.73,8.73,0,0,1-2.44-3.43,6.06,6.06,0,0,1-.28-3.16,4.7,4.7,0,0,1,.77-1.86,2.34,2.34,0,0,1,.47-.51,5.29,5.29,0,0,0-1,2.4,6.06,6.06,0,0,0,.35,3,8.55,8.55,0,0,0,2.42,3.25c2.26,2.05,5.87,3.26,9.16,5.72a11.9,11.9,0,0,0,2.71,1.43,6.12,6.12,0,0,0,3.1.22c2.14-.36,4.08-1.64,6.15-2.78a21.15,21.15,0,0,1,6.55-2.25,40.17,40.17,0,0,0,6.16-1.56c1.86-.69,3.5-1.94,3.9-3.67a11.6,11.6,0,0,0-.26-4.9c-.55-3-1-5.43-1.32-7.2-.14-.8-.25-1.45-.33-2A3.2,3.2,0,0,1,276.86,260.66Z" style="fill:#263238"></path><path d="M263.79,309a15.89,15.89,0,0,1-1-2.88c-.51-1.8-1.13-4.31-1.7-7.11s-1-5.36-1.22-7.21a15.44,15.44,0,0,1-.25-3,17.13,17.13,0,0,1,.63,3c.34,1.84.81,4.37,1.37,7.16s1.13,5.31,1.54,7.13A17.72,17.72,0,0,1,263.79,309Z" style="fill:#263238"></path><path d="M278.48,307.92c-.15,0-1.44-5.31-2.89-11.94s-2.51-12-2.37-12.06,1.45,5.31,2.9,11.94S278.63,307.89,278.48,307.92Z" style="fill:#263238"></path><path d="M241.46,291.84a6.64,6.64,0,0,1,1.18,1.89,16.56,16.56,0,0,1,1.5,5.16,13.45,13.45,0,0,1,0,3,9.9,9.9,0,0,1-.58,2.37,5,5,0,0,1-1.11,1.93c-.08-.05.36-.77.75-2.06a12.81,12.81,0,0,0,.4-5.16C243.13,294.85,241.28,291.92,241.46,291.84Z" style="fill:#263238"></path><path d="M221.74,278.64a22.37,22.37,0,0,0-3.45,5.39A22.9,22.9,0,0,0,217,290.3a5,5,0,0,1-.19-1.92,13.2,13.2,0,0,1,1-4.56,13.59,13.59,0,0,1,2.48-3.94A4.85,4.85,0,0,1,221.74,278.64Z" style="fill:#263238"></path><path d="M184.73,308.5c0-.06.67,0,1.86-.13a11.56,11.56,0,0,0,4.67-1.81,17.16,17.16,0,0,0,5.12-5.38,73.8,73.8,0,0,0,4.18-8.26,30.13,30.13,0,0,1,5-7.89,14.45,14.45,0,0,1,3.2-2.59,11.81,11.81,0,0,1,3.34-1.3,9.13,9.13,0,0,1,5.12.2,5.43,5.43,0,0,1,1.27.6,1.69,1.69,0,0,1,.4.28c0,.06-.59-.33-1.73-.68a9.53,9.53,0,0,0-5,0,12.54,12.54,0,0,0-6.25,3.86,30.43,30.43,0,0,0-4.87,7.78,68.31,68.31,0,0,1-4.25,8.3,17,17,0,0,1-5.34,5.43,11.05,11.05,0,0,1-4.85,1.7,6.4,6.4,0,0,1-1.4,0A1.34,1.34,0,0,1,184.73,308.5Z" style="fill:#263238"></path><path d="M217.52,285a10.66,10.66,0,0,0-1.48-.29,6.73,6.73,0,0,0-3.91.95,10,10,0,0,0-3.86,4.54,54.38,54.38,0,0,0-2.39,7.15,19.18,19.18,0,0,1-3.55,6.76,18.85,18.85,0,0,1-4.7,4.11,17,17,0,0,1-3.8,1.77,11,11,0,0,1-1.1.3c-.26.06-.39.08-.4.06a26.23,26.23,0,0,0,5.1-2.46,19.31,19.31,0,0,0,4.51-4.1,19.11,19.11,0,0,0,3.42-6.6,50.71,50.71,0,0,1,2.46-7.21,10.2,10.2,0,0,1,4.12-4.66,6.65,6.65,0,0,1,4.12-.82,4.46,4.46,0,0,1,1.11.3C217.41,284.86,217.53,284.93,217.52,285Z" style="fill:#263238"></path><path d="M210,277.21a3.3,3.3,0,0,1,1.61-.28,9.07,9.07,0,0,1,7,3.26c.64.79.88,1.38.82,1.41a11.4,11.4,0,0,0-9.41-4.39Z" style="fill:#263238"></path><g style="opacity:0.30000000000000004"><path d="M242.13,293.08a15.64,15.64,0,0,1,1.11,11.72,3.54,3.54,0,0,0,2.31-1.85,6,6,0,0,0,.63-3C246.15,297,244.52,294.81,242.13,293.08Z"></path></g></g><g id="freepik--carousel-horse-1--inject-82"><rect x="100.54" y="190.75" width="6.28" height="240.41" style="fill:#92E3A9"></rect><path d="M107.12,195a10.35,10.35,0,0,1-3.28.26,10.39,10.39,0,0,1-3.29-.26,10.75,10.75,0,0,1,3.29-.26A10.71,10.71,0,0,1,107.12,195Z" style="fill:#263238"></path><path d="M107.12,198.57a10.71,10.71,0,0,1-3.28.26,10.75,10.75,0,0,1-3.29-.26,10.39,10.39,0,0,1,3.29-.26A10.35,10.35,0,0,1,107.12,198.57Z" style="fill:#263238"></path><path d="M107.12,202.17a10.71,10.71,0,0,1-3.28.26,10.75,10.75,0,0,1-3.29-.26,10.75,10.75,0,0,1,3.29-.26A10.71,10.71,0,0,1,107.12,202.17Z" style="fill:#263238"></path><path d="M107.12,205.77a10.35,10.35,0,0,1-3.28.26,10.39,10.39,0,0,1-3.29-.26,10.75,10.75,0,0,1,3.29-.26A10.71,10.71,0,0,1,107.12,205.77Z" style="fill:#263238"></path><path d="M107.12,209.38a10.71,10.71,0,0,1-3.28.26,10.75,10.75,0,0,1-3.29-.26,10.39,10.39,0,0,1,3.29-.26A10.35,10.35,0,0,1,107.12,209.38Z" style="fill:#263238"></path><path d="M107.12,213a10.71,10.71,0,0,1-3.28.26,10.75,10.75,0,0,1-3.29-.26,10.75,10.75,0,0,1,3.29-.26A10.71,10.71,0,0,1,107.12,213Z" style="fill:#263238"></path><path d="M107.12,216.58a10.35,10.35,0,0,1-3.28.26,10.39,10.39,0,0,1-3.29-.26,10.75,10.75,0,0,1,3.29-.26A10.71,10.71,0,0,1,107.12,216.58Z" style="fill:#263238"></path><path d="M107.12,220.19a10.71,10.71,0,0,1-3.28.26,10.75,10.75,0,0,1-3.29-.26,10.39,10.39,0,0,1,3.29-.26A10.35,10.35,0,0,1,107.12,220.19Z" style="fill:#263238"></path><path d="M107.12,223.79a10.35,10.35,0,0,1-3.28.26,10.39,10.39,0,0,1-3.29-.26,10.75,10.75,0,0,1,3.29-.26A10.71,10.71,0,0,1,107.12,223.79Z" style="fill:#263238"></path><path d="M107.12,227.4a10.71,10.71,0,0,1-3.28.26,10.75,10.75,0,0,1-3.29-.26,10.21,10.21,0,0,1,3.29-.27A10.17,10.17,0,0,1,107.12,227.4Z" style="fill:#263238"></path><path d="M107.12,231a10.71,10.71,0,0,1-3.28.26,10.75,10.75,0,0,1-3.29-.26,10.39,10.39,0,0,1,3.29-.26A10.35,10.35,0,0,1,107.12,231Z" style="fill:#263238"></path><path d="M107.12,234.6a10.35,10.35,0,0,1-3.28.26,10.39,10.39,0,0,1-3.29-.26,10.75,10.75,0,0,1,3.29-.26A10.71,10.71,0,0,1,107.12,234.6Z" style="fill:#263238"></path><path d="M107.12,238.21a10.71,10.71,0,0,1-3.28.26,10.75,10.75,0,0,1-3.29-.26,10.39,10.39,0,0,1,3.29-.26A10.35,10.35,0,0,1,107.12,238.21Z" style="fill:#263238"></path><path d="M107.12,241.81a10.71,10.71,0,0,1-3.28.26,10.75,10.75,0,0,1-3.29-.26,10.75,10.75,0,0,1,3.29-.26A10.71,10.71,0,0,1,107.12,241.81Z" style="fill:#263238"></path><path d="M107.12,245.41a10.35,10.35,0,0,1-3.28.26,10.39,10.39,0,0,1-3.29-.26,10.75,10.75,0,0,1,3.29-.26A10.71,10.71,0,0,1,107.12,245.41Z" style="fill:#263238"></path><path d="M107.12,249a10.71,10.71,0,0,1-3.28.26,10.75,10.75,0,0,1-3.29-.26,10.39,10.39,0,0,1,3.29-.26A10.35,10.35,0,0,1,107.12,249Z" style="fill:#263238"></path><path d="M107.12,252.62a10.71,10.71,0,0,1-3.28.26,10.75,10.75,0,0,1-3.29-.26,10.75,10.75,0,0,1,3.29-.26A10.71,10.71,0,0,1,107.12,252.62Z" style="fill:#263238"></path><path d="M107.12,256.22a10.35,10.35,0,0,1-3.28.26,10.39,10.39,0,0,1-3.29-.26,10.75,10.75,0,0,1,3.29-.26A10.71,10.71,0,0,1,107.12,256.22Z" style="fill:#263238"></path><path d="M107.12,259.83a10.71,10.71,0,0,1-3.28.26,10.75,10.75,0,0,1-3.29-.26,10.39,10.39,0,0,1,3.29-.26A10.35,10.35,0,0,1,107.12,259.83Z" style="fill:#263238"></path><path d="M107.12,263.43a10.35,10.35,0,0,1-3.28.26,10.39,10.39,0,0,1-3.29-.26,10.75,10.75,0,0,1,3.29-.26A10.71,10.71,0,0,1,107.12,263.43Z" style="fill:#263238"></path><path d="M107.12,267a10.71,10.71,0,0,1-3.28.26,10.75,10.75,0,0,1-3.29-.26,10.21,10.21,0,0,1,3.29-.27A10.17,10.17,0,0,1,107.12,267Z" style="fill:#263238"></path><path d="M107.12,270.64a10.71,10.71,0,0,1-3.28.26,10.75,10.75,0,0,1-3.29-.26,10.75,10.75,0,0,1,3.29-.26A10.71,10.71,0,0,1,107.12,270.64Z" style="fill:#263238"></path><path d="M107.12,274.24a10.35,10.35,0,0,1-3.28.26,10.39,10.39,0,0,1-3.29-.26,10.75,10.75,0,0,1,3.29-.26A10.71,10.71,0,0,1,107.12,274.24Z" style="fill:#263238"></path><path d="M107.12,277.85a10.71,10.71,0,0,1-3.28.26,10.75,10.75,0,0,1-3.29-.26,10.39,10.39,0,0,1,3.29-.26A10.35,10.35,0,0,1,107.12,277.85Z" style="fill:#263238"></path><path d="M107.12,281.45a10.71,10.71,0,0,1-3.28.26,10.75,10.75,0,0,1-3.29-.26,10.75,10.75,0,0,1,3.29-.26A10.71,10.71,0,0,1,107.12,281.45Z" style="fill:#263238"></path><path d="M107.12,285.05a10.35,10.35,0,0,1-3.28.26,10.39,10.39,0,0,1-3.29-.26,10.75,10.75,0,0,1,3.29-.26A10.71,10.71,0,0,1,107.12,285.05Z" style="fill:#263238"></path><path d="M107.12,288.66a10.71,10.71,0,0,1-3.28.26,10.75,10.75,0,0,1-3.29-.26,10.39,10.39,0,0,1,3.29-.26A10.35,10.35,0,0,1,107.12,288.66Z" style="fill:#263238"></path><path d="M107.12,292.26a10.71,10.71,0,0,1-3.28.26,10.75,10.75,0,0,1-3.29-.26,10.75,10.75,0,0,1,3.29-.26A10.71,10.71,0,0,1,107.12,292.26Z" style="fill:#263238"></path><path d="M107.12,295.86a10.17,10.17,0,0,1-3.28.27,10.21,10.21,0,0,1-3.29-.27,10.75,10.75,0,0,1,3.29-.26A10.71,10.71,0,0,1,107.12,295.86Z" style="fill:#263238"></path><path d="M107.12,299.47a10.71,10.71,0,0,1-3.28.26,10.75,10.75,0,0,1-3.29-.26,10.39,10.39,0,0,1,3.29-.26A10.35,10.35,0,0,1,107.12,299.47Z" style="fill:#263238"></path><path d="M107.12,303.07a10.35,10.35,0,0,1-3.28.26,10.39,10.39,0,0,1-3.29-.26,10.75,10.75,0,0,1,3.29-.26A10.71,10.71,0,0,1,107.12,303.07Z" style="fill:#263238"></path><path d="M107.12,306.68a10.71,10.71,0,0,1-3.28.26,10.75,10.75,0,0,1-3.29-.26,10.39,10.39,0,0,1,3.29-.26A10.35,10.35,0,0,1,107.12,306.68Z" style="fill:#263238"></path><path d="M107.12,310.28a10.71,10.71,0,0,1-3.28.26,10.75,10.75,0,0,1-3.29-.26,10.75,10.75,0,0,1,3.29-.26A10.71,10.71,0,0,1,107.12,310.28Z" style="fill:#263238"></path><path d="M107.12,313.88a10.35,10.35,0,0,1-3.28.26,10.39,10.39,0,0,1-3.29-.26,10.75,10.75,0,0,1,3.29-.26A10.71,10.71,0,0,1,107.12,313.88Z" style="fill:#263238"></path><path d="M107.12,317.49a10.71,10.71,0,0,1-3.28.26,10.75,10.75,0,0,1-3.29-.26,10.39,10.39,0,0,1,3.29-.26A10.35,10.35,0,0,1,107.12,317.49Z" style="fill:#263238"></path><path d="M107.12,321.09a10.71,10.71,0,0,1-3.28.26,10.75,10.75,0,0,1-3.29-.26,10.75,10.75,0,0,1,3.29-.26A10.71,10.71,0,0,1,107.12,321.09Z" style="fill:#263238"></path><path d="M107.12,324.69a10.35,10.35,0,0,1-3.28.26,10.39,10.39,0,0,1-3.29-.26,10.75,10.75,0,0,1,3.29-.26A10.71,10.71,0,0,1,107.12,324.69Z" style="fill:#263238"></path><path d="M107.12,328.3a10.71,10.71,0,0,1-3.28.26,10.75,10.75,0,0,1-3.29-.26,10.39,10.39,0,0,1,3.29-.26A10.35,10.35,0,0,1,107.12,328.3Z" style="fill:#263238"></path><path d="M107.12,331.9a10.35,10.35,0,0,1-3.28.26,10.39,10.39,0,0,1-3.29-.26,10.75,10.75,0,0,1,3.29-.26A10.71,10.71,0,0,1,107.12,331.9Z" style="fill:#263238"></path><path d="M107.12,335.51a10.71,10.71,0,0,1-3.28.26,10.75,10.75,0,0,1-3.29-.26,10.21,10.21,0,0,1,3.29-.27A10.17,10.17,0,0,1,107.12,335.51Z" style="fill:#263238"></path><path d="M107.12,339.11a10.71,10.71,0,0,1-3.28.26,10.75,10.75,0,0,1-3.29-.26,10.39,10.39,0,0,1,3.29-.26A10.35,10.35,0,0,1,107.12,339.11Z" style="fill:#263238"></path><path d="M107.12,342.71a10.35,10.35,0,0,1-3.28.26,10.39,10.39,0,0,1-3.29-.26,10.75,10.75,0,0,1,3.29-.26A10.71,10.71,0,0,1,107.12,342.71Z" style="fill:#263238"></path><path d="M107.12,346.32a10.71,10.71,0,0,1-3.28.26,10.75,10.75,0,0,1-3.29-.26,10.39,10.39,0,0,1,3.29-.26A10.35,10.35,0,0,1,107.12,346.32Z" style="fill:#263238"></path><path d="M107.12,349.92a10.71,10.71,0,0,1-3.28.26,10.75,10.75,0,0,1-3.29-.26,10.75,10.75,0,0,1,3.29-.26A10.71,10.71,0,0,1,107.12,349.92Z" style="fill:#263238"></path><path d="M107.12,353.52a10.35,10.35,0,0,1-3.28.26,10.39,10.39,0,0,1-3.29-.26,10.75,10.75,0,0,1,3.29-.26A10.71,10.71,0,0,1,107.12,353.52Z" style="fill:#263238"></path><path d="M107.12,357.13a10.71,10.71,0,0,1-3.28.26,10.75,10.75,0,0,1-3.29-.26,10.39,10.39,0,0,1,3.29-.26A10.35,10.35,0,0,1,107.12,357.13Z" style="fill:#263238"></path><path d="M107.12,360.73a10.71,10.71,0,0,1-3.28.26,10.75,10.75,0,0,1-3.29-.26,10.75,10.75,0,0,1,3.29-.26A10.71,10.71,0,0,1,107.12,360.73Z" style="fill:#263238"></path><path d="M107.12,364.33a10.35,10.35,0,0,1-3.28.26,10.39,10.39,0,0,1-3.29-.26,10.75,10.75,0,0,1,3.29-.26A10.71,10.71,0,0,1,107.12,364.33Z" style="fill:#263238"></path><path d="M107.12,367.94a10.71,10.71,0,0,1-3.28.26,10.75,10.75,0,0,1-3.29-.26,10.39,10.39,0,0,1,3.29-.26A10.35,10.35,0,0,1,107.12,367.94Z" style="fill:#263238"></path><path d="M107.12,371.54a10.35,10.35,0,0,1-3.28.26,10.39,10.39,0,0,1-3.29-.26,10.75,10.75,0,0,1,3.29-.26A10.71,10.71,0,0,1,107.12,371.54Z" style="fill:#263238"></path><path d="M107.12,375.15a10.71,10.71,0,0,1-3.28.26,10.75,10.75,0,0,1-3.29-.26,10.39,10.39,0,0,1,3.29-.26A10.35,10.35,0,0,1,107.12,375.15Z" style="fill:#263238"></path><path d="M107.12,378.75a10.71,10.71,0,0,1-3.28.26,10.75,10.75,0,0,1-3.29-.26,10.75,10.75,0,0,1,3.29-.26A10.71,10.71,0,0,1,107.12,378.75Z" style="fill:#263238"></path><path d="M107.12,382.35a10.35,10.35,0,0,1-3.28.26,10.39,10.39,0,0,1-3.29-.26,10.75,10.75,0,0,1,3.29-.26A10.71,10.71,0,0,1,107.12,382.35Z" style="fill:#263238"></path><path d="M107.12,386a10.71,10.71,0,0,1-3.28.26,10.75,10.75,0,0,1-3.29-.26,10.39,10.39,0,0,1,3.29-.26A10.35,10.35,0,0,1,107.12,386Z" style="fill:#263238"></path><path d="M107.12,389.56a10.71,10.71,0,0,1-3.28.26,10.75,10.75,0,0,1-3.29-.26,10.75,10.75,0,0,1,3.29-.26A10.71,10.71,0,0,1,107.12,389.56Z" style="fill:#263238"></path><path d="M107.12,393.16a10.35,10.35,0,0,1-3.28.26,10.39,10.39,0,0,1-3.29-.26,10.75,10.75,0,0,1,3.29-.26A10.71,10.71,0,0,1,107.12,393.16Z" style="fill:#263238"></path><path d="M107.12,396.77a10.71,10.71,0,0,1-3.28.26,10.75,10.75,0,0,1-3.29-.26,10.39,10.39,0,0,1,3.29-.26A10.35,10.35,0,0,1,107.12,396.77Z" style="fill:#263238"></path><path d="M107.12,400.37a10.71,10.71,0,0,1-3.28.26,10.75,10.75,0,0,1-3.29-.26,10.75,10.75,0,0,1,3.29-.26A10.71,10.71,0,0,1,107.12,400.37Z" style="fill:#263238"></path><path d="M107.12,404a10.17,10.17,0,0,1-3.28.27,10.21,10.21,0,0,1-3.29-.27,10.75,10.75,0,0,1,3.29-.26A10.71,10.71,0,0,1,107.12,404Z" style="fill:#263238"></path><path d="M107.12,407.58a10.71,10.71,0,0,1-3.28.26,10.75,10.75,0,0,1-3.29-.26,10.39,10.39,0,0,1,3.29-.26A10.35,10.35,0,0,1,107.12,407.58Z" style="fill:#263238"></path><path d="M107.12,411.18a10.35,10.35,0,0,1-3.28.26,10.39,10.39,0,0,1-3.29-.26,10.75,10.75,0,0,1,3.29-.26A10.71,10.71,0,0,1,107.12,411.18Z" style="fill:#263238"></path><path d="M107.12,414.79a10.71,10.71,0,0,1-3.28.26,10.75,10.75,0,0,1-3.29-.26,10.39,10.39,0,0,1,3.29-.26A10.35,10.35,0,0,1,107.12,414.79Z" style="fill:#263238"></path><path d="M107.12,418.39a10.71,10.71,0,0,1-3.28.26,10.75,10.75,0,0,1-3.29-.26,10.75,10.75,0,0,1,3.29-.26A10.71,10.71,0,0,1,107.12,418.39Z" style="fill:#263238"></path><path d="M107.12,422a10.35,10.35,0,0,1-3.28.26,10.39,10.39,0,0,1-3.29-.26,10.75,10.75,0,0,1,3.29-.26A10.71,10.71,0,0,1,107.12,422Z" style="fill:#263238"></path><path d="M107.12,425.6a10.71,10.71,0,0,1-3.28.26,10.75,10.75,0,0,1-3.29-.26,10.39,10.39,0,0,1,3.29-.26A10.35,10.35,0,0,1,107.12,425.6Z" style="fill:#263238"></path><path d="M45.34,346c-3.66,3.24-5.29,8.13-7.72,12.37a34.81,34.81,0,0,1-12.3,12.52c-.82.49-1.79,1.19-1.66,2.14.09.67.72,1.12,1.31,1.45,4.82,2.63,11.05,1.89,15.64-1.13s7.65-8,9.19-13.26c.67-2.3,1.11-4.75,2.5-6.71s4.14-3.24,6.24-2.09l2.53-4.83C55.9,340.49,49.37,342.49,45.34,346Z" style="fill:#ffbf9d"></path><path d="M74,337.76s-15.48,3.44-17.2,14.15,0,17.2,0,17.2l-3.45,3.82H46.83l-3.06,3.25a30.31,30.31,0,0,1-1.53,9.25c-1.53,3.94-10.71,14.05-10.71,14.05l-5.35-.25s-6.31,7.16-4.4,11.36l1.15,1.15,7.27-2.87a20.84,20.84,0,0,1,5.92-5.52c3.25-1.74,5.74-4.61,6.31-6.33s9.37-13,9.37-13,5.54,3.05,15.86-.76a29.37,29.37,0,0,0,14.91-12.79H91l37.06-.53,9-5.78S140.87,367,143,367s13-1.9,13-1.9l12.43-4.6,1.34,1.53-6.31,10.51-8.6,4.55-3.44-2.67-9.94,9.13s6.5,2.52,11.47,1.87,13.38-4.78,13.38-4.78,9.94-14.6,13.38-18.61l-2.87-10.71-7.65-.57-16.24-1-1.15-1s.38-3.16,1.34-7.56-3.83-10.7-3.83-10.7l-.95-15.87S130.74,298.38,130,298.38s-4,6.31-5.74,12.05A100.89,100.89,0,0,0,121.57,325s-1.53-2.1-3.06-1.91-8.41,19.41-30.4,14.3L77.6,334.13S73.59,335.85,74,337.76Z" style="fill:#ffbf9d"></path><path d="M90.92,355.06c-.36.08-1.64,16.59-1.64,16.59s11.51,4.35,23,2.78S130,368.85,130,368.85l-9.32-21.71-5.12-5.94L93.3,347.14Z" style="fill:#ff9a6c"></path><path d="M90.92,355.06a4.35,4.35,0,0,1,.13-.55l.43-1.56,1.69-5.84,0-.08.07,0,22.27-6,.14,0,.1.12L120.9,347l0,0,0,0c2.63,6.13,5.52,12.84,8.54,19.85l.8,1.85.09.22-.2.12a43.17,43.17,0,0,1-11.34,4.37A49.62,49.62,0,0,1,107.69,375a52.21,52.21,0,0,1-10.06-.93,56.91,56.91,0,0,1-8.42-2.25l-.13-.05v-.14c.43-5.18.82-9.33,1.13-12.19s.57-4.43.7-4.39a6.51,6.51,0,0,0-.18,1.13c-.07.78-.18,1.88-.31,3.28-.25,2.86-.58,7-1,12.2l-.12-.19a56.38,56.38,0,0,0,18.35,3,50.59,50.59,0,0,0,11-1.58,43.23,43.23,0,0,0,11.17-4.32l-.1.34-.8-1.86c-3-7-5.88-13.73-8.51-19.86l0,.07c-1.77-2.06-3.47-4.06-5.1-5.95l.24.07-22.32,5.85.1-.1L91.6,353l-.49,1.52A3.27,3.27,0,0,1,90.92,355.06Z" style="fill:#263238"></path><path d="M121.45,334s20.58-2.75,31.19,2.76c0,0,2.39,2.68-.4,8.92,0,0-17.56-5-29.69-2.34l-2.66-2.14Z" style="fill:#455a64"></path><polygon points="128.14 335.43 128.88 336.93 130.54 337.17 129.34 338.34 129.62 339.99 128.14 339.21 126.66 339.99 126.94 338.34 125.74 337.17 127.4 336.93 128.14 335.43" style="fill:#fff"></polygon><polygon points="135.48 335.63 136.18 337.15 137.83 337.44 136.6 338.58 136.84 340.23 135.38 339.42 133.88 340.15 134.21 338.51 133.04 337.31 134.7 337.12 135.48 335.63" style="fill:#fff"></polygon><polygon points="143.14 336.57 143.55 338.19 145.12 338.78 143.7 339.67 143.63 341.34 142.34 340.27 140.73 340.72 141.35 339.17 140.43 337.77 142.1 337.88 143.14 336.57" style="fill:#fff"></polygon><polygon points="150.51 337.92 150.86 339.55 152.4 340.2 150.95 341.03 150.81 342.7 149.57 341.58 147.94 341.96 148.63 340.43 147.76 339 149.42 339.18 150.51 337.92" style="fill:#fff"></polygon><g style="opacity:0.30000000000000004"><path d="M123.71,339c-.64-2.67-1.62-5.45-3.78-7.15L84,349.77a27.53,27.53,0,0,0,5.14,5.52,9.45,9.45,0,0,0,7.08,2c3.25-.56,5.65-3.28,8.61-4.72a22.77,22.77,0,0,1,7.16-1.74,25.4,25.4,0,0,0,7.19-1.63A8.23,8.23,0,0,0,124,344,10.79,10.79,0,0,0,123.71,339Z"></path></g><path d="M74,337.76a11.06,11.06,0,0,0,.18,1.26c.47,2.39,2.11,7.54,7.63,9.74,7.31,2.91,7,6.22,12.61,6.3s8.41-3.21,12.25-4.3,13.28-1.86,15.53-5.3c2.36-3.62-.37-9.69-1.28-14.44a38.8,38.8,0,0,0-2.38-8s-.12-.36-1,.86c-.36.48-.86,1.69-1.52,2.55-2.34,3-9,10.57-17.69,10.89S79,334.68,77.84,334.2c-1.65-.67-4.47,1.44-3.84,4" style="fill:#455a64"></path><path d="M137.34,327a12.29,12.29,0,0,1-.3-2.75,60.38,60.38,0,0,1,.05-6.67,63.52,63.52,0,0,1,.75-6.63,12.16,12.16,0,0,1,.62-2.69,16.31,16.31,0,0,1-.24,2.75c-.19,1.69-.43,4-.59,6.6s-.19,4.93-.2,6.63A17.49,17.49,0,0,1,137.34,327Z" style="fill:#263238"></path><path d="M147.26,331.05a29.17,29.17,0,0,0-7.29-2.79,28.75,28.75,0,0,0-7.81-.18,6.61,6.61,0,0,1,2.27-.55,17.54,17.54,0,0,1,5.64.2,17.84,17.84,0,0,1,5.3,1.95A6.72,6.72,0,0,1,147.26,331.05Z" style="fill:#263238"></path><path d="M139.91,366a2.52,2.52,0,0,1-.88-.35,15.31,15.31,0,0,1-2.17-1.39,14.72,14.72,0,0,1-2.76-2.66,5.28,5.28,0,0,1-1.06-2.07,7.19,7.19,0,0,1,0-2.49,21.51,21.51,0,0,1,1.47-4.45,21.41,21.41,0,0,0,1.19-3.55,9.94,9.94,0,0,0,.11-3.42,2.18,2.18,0,0,1,.3.9,7.77,7.77,0,0,1,0,2.59,19,19,0,0,1-1.11,3.66,23.69,23.69,0,0,0-1.39,4.36,6.82,6.82,0,0,0-.05,2.29,4.9,4.9,0,0,0,.94,1.88,16.1,16.1,0,0,0,2.6,2.66C138.75,365.29,140,365.88,139.91,366Z" style="fill:#263238"></path><path d="M151.37,356.72a27.93,27.93,0,0,0,.74-3.93,29.26,29.26,0,0,0-.36-4,7.73,7.73,0,0,1-.38,7.91Z" style="fill:#263238"></path><path d="M174.53,357.72c.06,0-.08.44-.5,1a5.76,5.76,0,0,1-4.78,2.15c-.7-.05-1.1-.23-1.08-.29a11.7,11.7,0,0,0,3.51-.71A11.23,11.23,0,0,0,174.53,357.72Z" style="fill:#263238"></path><path d="M151.54,385.81c-.14-.07.71-1.91,1.5-4.27s1.25-4.32,1.4-4.3a12.18,12.18,0,0,1-.89,4.48A11.89,11.89,0,0,1,151.54,385.81Z" style="fill:#263238"></path><path d="M48.05,380.41c-.1.1-.77-.48-1-1.49s.07-1.84.21-1.79.1.79.32,1.66S48.17,380.31,48.05,380.41Z" style="fill:#263238"></path><path d="M134.41,303.14l13.92,11.49s2.82,0,3.77,1,2.11,3.37,3.06,3.69a3.9,3.9,0,0,1,1.58,1.05s.21,3.27,1.27,4.53a9.63,9.63,0,0,0,3.68,2.08l.42-1.66.95.11A10.85,10.85,0,0,0,162,322.1a10.07,10.07,0,0,0-1.48-2.22s0-1.47,1.37-.52,1.79,2.95,1.9,4.21a1.3,1.3,0,0,0,1.79,1.26s1,1.48,1.79.64.84-2.22,1.68-3,2.55-1.82,2.76-3.82-.54-2.61-2.33-4.4-8.32-15.92-8.32-15.92l-.11-2.09s1.68-.31.53-2.63-1.37-2.84-1.37-2.84,2.44-6.64-6.89-8.11l.26-4.74a42.61,42.61,0,0,1-5,4.42s-3.68-3.68-8.11-2.1-4.84,5.16-4.84,5.16-5.79-.85-7.58,5.58c0,0-3.9-1.06-3.9,4.32,0,0-4.13,1.65-1.64,7.14a5.21,5.21,0,0,0-3.31,5.79l0,.44s-3.64,1.79-.9,5.48a3.62,3.62,0,0,0,.11,4.95c2.31,2.53,3.52,2.92,3.52,2.92Z" style="fill:#ffbf9d"></path><path d="M139,287.33c.53.44,7.41,8.56,7.41,8.56a3.76,3.76,0,0,1,2.07-2.14l-7.41-8.81Z" style="fill:#455a64"></path><path d="M153.59,287.47l-4.36,6.26a2.55,2.55,0,0,1,1.83,1.78l4.67-6.3Z" style="fill:#455a64"></path><path d="M139.56,306.15l7-9.21a2.18,2.18,0,0,0,2,1.44L141,308.84Z" style="fill:#455a64"></path><path d="M149.48,298.38c.26.45,8.24,16,8.24,16a3.57,3.57,0,0,1,2-1.56s-5.47-12.06-8.85-15.44Z" style="fill:#455a64"></path><path d="M162,315.17a2.13,2.13,0,0,0-1.25-2l5.62-4.07,1.15,2.16Z" style="fill:#455a64"></path><path d="M153.84,318.08l3.57-2.28a4.93,4.93,0,0,0,1.43,1.68l-3.11,2.13S153.77,319.88,153.84,318.08Z" style="fill:#455a64"></path><g style="opacity:0.30000000000000004"><path d="M169.47,321.5c-.14-1.22.09-2.74-.05-4a.77.77,0,0,1,.1-.62.51.51,0,0,1,.55-.12,1.1,1.1,0,0,1,.45.38,2.58,2.58,0,0,1,.24,2.31,6,6,0,0,1-1.29,2"></path></g><path d="M159.72,318.17a2.89,2.89,0,1,1,2.89-2.89A2.9,2.9,0,0,1,159.72,318.17Zm0-4.74a1.85,1.85,0,1,0,1.84,1.85A1.85,1.85,0,0,0,159.72,313.43Z" style="fill:#455a64"></path><path d="M148.77,299a2.9,2.9,0,1,1,2.89-2.9A2.9,2.9,0,0,1,148.77,299Zm0-4.74a1.85,1.85,0,1,0,1.84,1.84A1.84,1.84,0,0,0,148.77,294.25Z" style="fill:#455a64"></path><path d="M144.79,283.05a5.34,5.34,0,0,1-1.13-.06,5.72,5.72,0,0,0-2.93.39,2.65,2.65,0,0,0-1.36,1.36,5.2,5.2,0,0,0-.15,2.3,4.48,4.48,0,0,1-.46,2.76,4.09,4.09,0,0,1-2.4,1.85,3.87,3.87,0,0,1-.94.13h-.61l.41-.47a3.16,3.16,0,0,0,.58-2.38c-.07-.85-.28-1.69-.32-2.53a6.05,6.05,0,0,1,1.41-4.11,5.93,5.93,0,0,1,2.33-1.74,2.4,2.4,0,0,1,1-.25s-.35.14-.95.43a6.29,6.29,0,0,0-2.12,1.79,5.82,5.82,0,0,0-1.21,3.85c.05.78.27,1.6.36,2.51a3.7,3.7,0,0,1-.7,2.79l-.21-.45a3.21,3.21,0,0,0,.8-.11,3.55,3.55,0,0,0,2.08-1.59,4,4,0,0,0,.42-2.46,5.45,5.45,0,0,1,.23-2.51,3,3,0,0,1,1.62-1.53,5.56,5.56,0,0,1,3.11-.25A4.11,4.11,0,0,1,144.79,283.05Z" style="fill:#263238"></path><path d="M137.5,283.89c-.06,0,.1-.69.86-1.46A5.26,5.26,0,0,1,142.2,281a7.25,7.25,0,0,1,3.89,1.29c.86.62,1.24,1.16,1.19,1.2a15.07,15.07,0,0,1-1.4-.87,7.83,7.83,0,0,0-3.69-1.07,5.31,5.31,0,0,0-3.57,1.15C137.85,283.35,137.57,283.94,137.5,283.89Z" style="fill:#263238"></path><path d="M154.45,288s.34-.38,1.05-.79a3.53,3.53,0,0,1,3.22-.3,2.16,2.16,0,0,1,1.15,1.5,1.88,1.88,0,0,1-.41,1.48c-.56.67-1.06.83-1.09.78s.37-.37.77-1a1.57,1.57,0,0,0,.24-1.16,1.71,1.71,0,0,0-.91-1.11,3.47,3.47,0,0,0-2.8.16C155,287.82,154.49,288,154.45,288Z" style="fill:#263238"></path><path d="M154.37,285.55c-.05-.05.14-.34.59-.63a3.37,3.37,0,0,1,3.93.27c.41.35.56.65.51.7a7.05,7.05,0,0,0-2.47-.92A6.77,6.77,0,0,0,154.37,285.55Z" style="fill:#263238"></path><path d="M130.12,288.67s-.17.18-.31.56a2.46,2.46,0,0,0,.07,1.68,13.27,13.27,0,0,1,1,2.57,5.31,5.31,0,0,1-1.07,3.3l-.25-.41a2.76,2.76,0,0,0,2.11-1.26,3.47,3.47,0,0,0,.48-1.57,5.42,5.42,0,0,1,.73-3,2.67,2.67,0,0,1,1.85-1c.5,0,.76.08.75.11s-.27,0-.72.1a2.6,2.6,0,0,0-1.57,1,5.42,5.42,0,0,0-.54,2.81,3.88,3.88,0,0,1-.53,1.8,3.27,3.27,0,0,1-1.57,1.31,3.31,3.31,0,0,1-1,.21l-.52,0,.27-.44a5.06,5.06,0,0,0,1.06-3,16.15,16.15,0,0,0-.87-2.52,2.51,2.51,0,0,1,.1-1.88C129.86,288.74,130.11,288.65,130.12,288.67Z" style="fill:#263238"></path><path d="M130.84,289.74c-.06,0,0-.35.31-.76a3.38,3.38,0,0,1,1.6-1.13,3.27,3.27,0,0,1,2,0c.49.15.73.36.7.42a7.62,7.62,0,0,0-2.49.13C131.61,288.79,131,289.82,130.84,289.74Z" style="fill:#263238"></path><path d="M122.73,297.73c-.06,0,.09-.45.56-1a5.07,5.07,0,0,1,5-1.54c.68.18,1,.44,1,.5a9.26,9.26,0,0,0-3.6.08A9.34,9.34,0,0,0,122.73,297.73Z" style="fill:#263238"></path><path d="M122.52,303a4.2,4.2,0,0,1,2.12-2.57,4.28,4.28,0,0,1,3.25-.78,21.32,21.32,0,0,0-3,1.24A20.25,20.25,0,0,0,122.52,303Z" style="fill:#263238"></path><path d="M119.2,308.72c-.06,0,.08-.55.49-1.34a4.17,4.17,0,0,1,1-1.22,5.25,5.25,0,0,1,.75-.57,3.11,3.11,0,0,1,1-.35c1.36-.22,2.52-.2,3.32-.45s1.2-.58,1.26-.51-.28.54-1.14.87a16.33,16.33,0,0,1-3.33.63,2.4,2.4,0,0,0-.82.27,5.83,5.83,0,0,0-.7.49,4.56,4.56,0,0,0-1,1C119.54,308.28,119.27,308.76,119.2,308.72Z" style="fill:#263238"></path><path d="M118.15,313.75s-.14-.12-.2-.42a2,2,0,0,1,.19-1.27c.49-1,1.82-1.85,3.22-2.52s2.61-1.4,3.46-2,1.24-1,1.3-1-.24.67-1.07,1.31A21.72,21.72,0,0,1,121.6,310a7.34,7.34,0,0,0-3.12,2.21A3,3,0,0,0,118.15,313.75Z" style="fill:#263238"></path><path d="M117.68,315c-.06,0,.08-.59.74-1.21a9.72,9.72,0,0,1,3-1.67,11.46,11.46,0,0,0,2.78-1.7,7.21,7.21,0,0,0,.88-1c.08,0,0,.63-.61,1.29a8.82,8.82,0,0,1-2.82,1.92,13.32,13.32,0,0,0-2.94,1.46C118,314.57,117.76,315,117.68,315Z" style="fill:#263238"></path><path d="M119.28,320.06s-.39-.39-.48-1.24a4.56,4.56,0,0,1,1-3.06,5.17,5.17,0,0,1,2.63-1.82c.78-.26,1.3-.25,1.3-.19s-.46.21-1.16.55a5.77,5.77,0,0,0-2.33,1.78,4.89,4.89,0,0,0-1,2.72C119.17,319.56,119.37,320,119.28,320.06Z" style="fill:#263238"></path><path d="M119.48,307.23c-.06,0-.15-.77.53-1.74a5.37,5.37,0,0,1,1.46-1.36,12.17,12.17,0,0,1,2.18-1,18.83,18.83,0,0,0,2.13-.93,5.73,5.73,0,0,0,1.46-1.13,7,7,0,0,0,.9-1.47c.06,0,.11.78-.6,1.71a5.38,5.38,0,0,1-1.51,1.32,12.86,12.86,0,0,1-2.18,1,14.93,14.93,0,0,0-2.11.95,5.44,5.44,0,0,0-1.43,1.17A6.92,6.92,0,0,0,119.48,307.23Z" style="fill:#263238"></path><path d="M135.23,291.66a6.71,6.71,0,0,1-.77,1.11c-.53.68-1.27,1.7-2.14,3A60.61,60.61,0,0,0,123,317.8c-.31,1.52-.53,2.75-.65,3.61a6.5,6.5,0,0,1-.27,1.32,7.62,7.62,0,0,1,.06-1.35c.06-.87.22-2.12.48-3.65A54,54,0,0,1,132,295.52c.92-1.25,1.7-2.24,2.28-2.88A6.42,6.42,0,0,1,135.23,291.66Z" style="fill:#263238"></path><path d="M146.74,283.45c0,.16-1.44.23-3.12.72s-2.94,1.17-3,1a5.5,5.5,0,0,1,2.87-1.57A5.57,5.57,0,0,1,146.74,283.45Z" style="fill:#263238"></path><path d="M153.26,279a18,18,0,0,0-1.22,3.86,6.94,6.94,0,0,0,.41,4l.84-7.75" style="fill:#263238"></path><path d="M159.59,291.66a17.76,17.76,0,0,1-7-4.8,28.48,28.48,0,0,1,3.5,2.37A28.88,28.88,0,0,1,159.59,291.66Z" style="fill:#263238"></path><path d="M155.54,299.23a5.07,5.07,0,0,1,2.37-2.24,1.42,1.42,0,0,1,.9-.19.89.89,0,0,1,.63.51,2,2,0,0,1,.13.75,8.4,8.4,0,0,1-.32,2.33.93.93,0,0,1-.52.72,1.24,1.24,0,0,1-.9-.12,5.66,5.66,0,0,1-2.29-1.76" style="fill:#fff"></path><path d="M159.57,298.06a2,2,0,0,0-.13-.75.89.89,0,0,0-.63-.51,1.42,1.42,0,0,0-.9.19,5.23,5.23,0,0,0-.94.57l-.06.05-.13.12a4.25,4.25,0,0,0,1.15,3,1.52,1.52,0,0,0,.45.35.88.88,0,0,0,.32.07h0a.93.93,0,0,0,.52-.72A8.4,8.4,0,0,0,159.57,298.06Z" style="fill:#263238"></path><path d="M159.8,299.29c-.08,0-.28-.41-.37-1.1a1.78,1.78,0,0,0-.43-1c-.28-.28-.6-.27-1.06,0a11,11,0,0,0-2.72,2.56c-.07,0,0-.47.41-1.09a5.76,5.76,0,0,1,2.05-1.94,1.75,1.75,0,0,1,.86-.28,1.09,1.09,0,0,1,.82.39,2,2,0,0,1,.45,1.28A6.21,6.21,0,0,1,159.8,299.29Z" style="fill:#263238"></path><path d="M170.09,315.38c0,.15-.87.26-1.44,1s-.43,1.66-.57,1.69-.22-.18-.27-.57a2.08,2.08,0,0,1,1.67-2.24C169.86,315.23,170.09,315.31,170.09,315.38Z" style="fill:#263238"></path><path d="M160.67,318.66c0-.06.5-.26,1.33,0a4.36,4.36,0,0,1,2.5,2,8,8,0,0,1,1,3c.09.8.09,1.29,0,1.3s-.21-.46-.4-1.23a10.68,10.68,0,0,0-1.05-2.82,4.51,4.51,0,0,0-2.15-1.92C161.18,318.7,160.68,318.75,160.67,318.66Z" style="fill:#263238"></path><path d="M162.29,325.58a4.34,4.34,0,0,1-2.13-2.52,4.43,4.43,0,0,1-.3-3.29,27,27,0,0,0,.81,3.08A27.41,27.41,0,0,0,162.29,325.58Z" style="fill:#263238"></path><path d="M150.18,312.69s-.25.11-.73.17a8.77,8.77,0,0,1-2,0,9.85,9.85,0,0,1-8.61-9,8.37,8.37,0,0,1,.06-2,1.72,1.72,0,0,1,.2-.71c.1,0-.1,1,.12,2.7a10.52,10.52,0,0,0,2.7,5.72,10.38,10.38,0,0,0,5.59,3C149.12,312.75,150.17,312.59,150.18,312.69Z" style="fill:#263238"></path><g style="opacity:0.30000000000000004"><path d="M144.26,311.39a9.23,9.23,0,0,1-4.29-4.8l-.15.23a5.32,5.32,0,0,0,1.53,4.49,7.4,7.4,0,0,0,4.38,2,12,12,0,0,0,4.87-.52A12.87,12.87,0,0,1,144.26,311.39Z"></path></g><path d="M119,324.78a2.81,2.81,0,0,1,.25.61l.61,1.8c.51,1.57,1.24,3.85,2,6.7.38,1.43.76,3,1.09,4.71a11.11,11.11,0,0,1,.11,5.6,5.63,5.63,0,0,1-1.81,2.52,9.62,9.62,0,0,1-2.8,1.52,56.74,56.74,0,0,1-6.42,1.55,62.82,62.82,0,0,0-6.35,1.52,46.67,46.67,0,0,0-5.43,2.73,11.43,11.43,0,0,1-5.42,1.38,9,9,0,0,1-4.69-1.3,31.82,31.82,0,0,1-3.25-2.34,23.3,23.3,0,0,0-2.44-1.72c-1.41-.84-2.3-1.09-2.28-1.15a4.31,4.31,0,0,1,.64.18,11.71,11.71,0,0,1,1.74.78,23.84,23.84,0,0,1,2.53,1.66,30.33,30.33,0,0,0,3.25,2.25,8.55,8.55,0,0,0,4.5,1.19,11.05,11.05,0,0,0,5.19-1.38,45.18,45.18,0,0,1,5.48-2.78,60.79,60.79,0,0,1,6.42-1.55,60.84,60.84,0,0,0,6.35-1.52,6.56,6.56,0,0,0,4.31-3.7,10.87,10.87,0,0,0-.07-5.35c-.31-1.7-.67-3.27-1-4.7-.71-2.86-1.39-5.15-1.83-6.74l-.51-1.82A2.68,2.68,0,0,1,119,324.78Z" style="fill:#263238"></path><path d="M116.26,326.3a3.12,3.12,0,0,1,.19.67c.11.49.25,1.14.43,1.94.36,1.75.87,4.18,1.49,7.16a12,12,0,0,1,.32,5.09,4.84,4.84,0,0,1-1.52,2.47,8.51,8.51,0,0,1-2.64,1.55c-3.85,1.56-8.56,1.46-12.63,3.82-2,1.12-4,2.45-6.32,2.83a6.58,6.58,0,0,1-3.36-.25,12.57,12.57,0,0,1-2.81-1.51c-3.25-2.46-6.81-3.68-9.15-5.85a8.66,8.66,0,0,1-2.44-3.43,6.06,6.06,0,0,1-.28-3.16,4.58,4.58,0,0,1,.77-1.85,2.28,2.28,0,0,1,.47-.52,5.37,5.37,0,0,0-1,2.4,6.09,6.09,0,0,0,.35,3,8.6,8.6,0,0,0,2.42,3.24c2.26,2.06,5.87,3.27,9.16,5.72a11.9,11.9,0,0,0,2.71,1.43,6,6,0,0,0,3.1.23c2.14-.36,4.08-1.64,6.15-2.79a21.42,21.42,0,0,1,6.55-2.25,40.18,40.18,0,0,0,6.16-1.55c1.86-.69,3.5-1.94,3.9-3.67a11.64,11.64,0,0,0-.26-4.91c-.55-3-1-5.43-1.32-7.19-.14-.81-.25-1.46-.33-2A3.25,3.25,0,0,1,116.26,326.3Z" style="fill:#263238"></path><path d="M103.19,374.63a15.57,15.57,0,0,1-1-2.87c-.51-1.81-1.13-4.32-1.7-7.12s-1-5.35-1.22-7.21a15.4,15.4,0,0,1-.25-3,17.44,17.44,0,0,1,.63,3c.34,1.84.81,4.37,1.37,7.17s1.13,5.3,1.54,7.12A17.72,17.72,0,0,1,103.19,374.63Z" style="fill:#263238"></path><path d="M117.88,373.56c-.15,0-1.44-5.32-2.89-11.95s-2.51-12-2.37-12.06,1.45,5.32,2.9,11.95S118,373.53,117.88,373.56Z" style="fill:#263238"></path><path d="M80.86,357.48A6.29,6.29,0,0,1,82,359.36a16.56,16.56,0,0,1,1.5,5.16,13.54,13.54,0,0,1,0,3,9.93,9.93,0,0,1-.58,2.36,5.08,5.08,0,0,1-1.11,1.94c-.08-.05.36-.78.75-2.06a12.86,12.86,0,0,0,.4-5.17C82.53,360.49,80.68,357.55,80.86,357.48Z" style="fill:#263238"></path><path d="M61.14,344.28a22.18,22.18,0,0,0-3.45,5.38,23,23,0,0,0-1.29,6.27,5,5,0,0,1-.19-1.92,13.11,13.11,0,0,1,1-4.55,13.46,13.46,0,0,1,2.48-3.94A4.66,4.66,0,0,1,61.14,344.28Z" style="fill:#263238"></path><path d="M24.13,374.13c0-.05.67,0,1.86-.13a11.41,11.41,0,0,0,4.67-1.81,17.05,17.05,0,0,0,5.12-5.38A73.8,73.8,0,0,0,40,358.55a30.29,30.29,0,0,1,5-7.89,14.12,14.12,0,0,1,3.2-2.58,12.16,12.16,0,0,1,3.34-1.31,9.32,9.32,0,0,1,5.12.2,5.87,5.87,0,0,1,1.27.6c.28.17.41.27.4.29s-.59-.34-1.73-.68a9.32,9.32,0,0,0-5,0A12.52,12.52,0,0,0,45.32,351a30.49,30.49,0,0,0-4.87,7.79,68.89,68.89,0,0,1-4.25,8.29,16.93,16.93,0,0,1-5.34,5.44A11,11,0,0,1,26,374.21a6.4,6.4,0,0,1-1.4,0A1.34,1.34,0,0,1,24.13,374.13Z" style="fill:#263238"></path><path d="M56.92,350.58c0,.06-.51-.2-1.48-.29a6.73,6.73,0,0,0-3.91.95,10,10,0,0,0-3.86,4.55,53.89,53.89,0,0,0-2.39,7.15,19.13,19.13,0,0,1-3.55,6.75A18.85,18.85,0,0,1,37,373.8a16.54,16.54,0,0,1-3.8,1.77,9.2,9.2,0,0,1-1.1.31,1.9,1.9,0,0,1-.4.06,27.81,27.81,0,0,0,5.1-2.46,19.53,19.53,0,0,0,4.51-4.1,19.26,19.26,0,0,0,3.42-6.61,50.56,50.56,0,0,1,2.46-7.2,10.22,10.22,0,0,1,4.12-4.67,6.72,6.72,0,0,1,4.12-.82,4.85,4.85,0,0,1,1.11.31C56.81,350.5,56.93,350.56,56.92,350.58Z" style="fill:#263238"></path><path d="M49.37,342.84a3.3,3.3,0,0,1,1.61-.28,9.07,9.07,0,0,1,7,3.26c.64.79.88,1.38.82,1.41a14.29,14.29,0,0,0-4.18-3.33A14.34,14.34,0,0,0,49.37,342.84Z" style="fill:#263238"></path><g style="opacity:0.30000000000000004"><path d="M81.53,358.72a15.62,15.62,0,0,1,1.11,11.71A3.54,3.54,0,0,0,85,368.58a6,6,0,0,0,.63-2.95C85.55,362.68,83.92,360.45,81.53,358.72Z"></path></g></g></svg>
