<svg xmlns="http://www.w3.org/2000/svg" xmlns:xlink="http://www.w3.org/1999/xlink" viewBox="0 0 750 500"><defs><clipPath id="freepik--clip-path--inject-12"><polygon points="124.81 443.81 117.02 443.81 110.33 453.61 124.81 453.61 124.81 443.81" style="fill:none"></polygon></clipPath><clipPath id="freepik--clip-path-2--inject-12"><polygon points="114.21 436.56 117.03 443.81 110.33 453.61 105.07 440.1 114.21 436.56" style="fill:none"></polygon></clipPath></defs><g id="freepik--background-simple--inject-12"><path d="M703,172.83c-17.67-34.93-47.63-63.53-77.86-87.58A335.24,335.24,0,0,0,577.3,53.37c-84-46-191-14.27-217.16,14.26s-42.8,72.92-95.11,83.22S143,139.76,96.21,185.73,80.72,294.35,82,318.39s-33.3,35.36-53.91,74.19-4.75,61-4.75,61H681.92S712,406.85,720.75,314.12c3.85-40.91,4.07-84.54-10.29-124A156.25,156.25,0,0,0,703,172.83Z" style="fill:#92E3A9"></path><path d="M703,172.83c-17.67-34.93-47.63-63.53-77.86-87.58A335.24,335.24,0,0,0,577.3,53.37c-84-46-191-14.27-217.16,14.26s-42.8,72.92-95.11,83.22S143,139.76,96.21,185.73,80.72,294.35,82,318.39s-33.3,35.36-53.91,74.19-4.75,61-4.75,61H681.92S712,406.85,720.75,314.12c3.85-40.91,4.07-84.54-10.29-124A156.25,156.25,0,0,0,703,172.83Z" style="fill:#fff;opacity:0.7000000000000001"></path></g><g id="freepik--Floor--inject-12"><line x1="27" y1="453.61" x2="730.49" y2="453.61" style="fill:none;stroke:#000;stroke-linecap:round;stroke-linejoin:round"></line></g><g id="freepik--Clouds--inject-12"><g style="opacity:0.30000000000000004"><path d="M463.72,114.61s-10.44-20-29.59-23.5-23.5,19.15-26.11,22.63-8.7-7-17.41-.87S381,125.05,381,125.05s-9.58-7-15.67-2.61a21.56,21.56,0,0,0-7.83,9.58H484.61S483.74,105.91,463.72,114.61Z" style="fill:none;stroke:#000;stroke-linecap:round;stroke-linejoin:round"></path><path d="M520.56,87.23S515.05,76.68,505,74.84s-12.39,10.1-13.77,11.93-4.59-3.67-9.18-.46-5,6.43-5,6.43-5.05-3.67-8.26-1.38a11.28,11.28,0,0,0-4.13,5h67S531.11,82.64,520.56,87.23Z" style="fill:none;stroke:#000;stroke-linecap:round;stroke-linejoin:round"></path><path d="M159.61,50.29S154.1,39.73,144,37.9,131.62,48,130.24,49.83s-4.59-3.67-9.18-.46-5,6.43-5,6.43-5-3.68-8.26-1.38a11.37,11.37,0,0,0-4.13,5h67S170.16,45.7,159.61,50.29Z" style="fill:none;stroke:#000;stroke-linecap:round;stroke-linejoin:round"></path></g></g><g id="freepik--roller-coaster--inject-12"><g style="opacity:0.2"><line x1="661.05" y1="97.37" x2="696.91" y2="450.96" style="fill:#fff;stroke:#000;stroke-linecap:round;stroke-linejoin:round;stroke-width:2px"></line><line x1="86.94" y1="180.21" x2="48.03" y2="452.51" style="fill:#fff;stroke:#000;stroke-linecap:round;stroke-linejoin:round;stroke-width:2px"></line><line x1="552.4" y1="110.84" x2="496.95" y2="451.74" style="fill:#fff;stroke:#000;stroke-linecap:round;stroke-linejoin:round;stroke-width:2px"></line><rect x="105.26" y="434.35" width="5.72" height="1.71" transform="translate(-149.73 68.32) rotate(-21.15)" style="fill:#fff;stroke:#000;stroke-linecap:round;stroke-linejoin:round"></rect><rect x="101.32" y="424.13" width="5.72" height="1.71" transform="translate(-145.73 65.8) rotate(-21.06)" style="fill:#fff;stroke:#000;stroke-linecap:round;stroke-linejoin:round"></rect><rect x="97.39" y="413.91" width="5.72" height="1.71" transform="translate(-141.91 63.42) rotate(-20.99)" style="fill:#fff;stroke:#000;stroke-linecap:round;stroke-linejoin:round"></rect><polygon points="97.46 410.34 108.6 439.27 105.72 440.38 94.57 411.44 97.46 410.34"></polygon><polygon points="102.8 408.29 113.93 437.2 111.05 438.32 99.91 409.4 102.8 408.29"></polygon><rect x="94.14" y="405.41" width="5.72" height="1.71" transform="translate(-138.67 61.41) rotate(-20.92)" style="fill:#fff;stroke:#000;stroke-linecap:round;stroke-linejoin:round"></rect><rect x="90.23" y="395.19" width="5.72" height="1.71" transform="translate(-134.89 59.09) rotate(-20.86)" style="fill:#fff;stroke:#000;stroke-linecap:round;stroke-linejoin:round"></rect><rect x="86.34" y="384.95" width="5.72" height="1.71" transform="translate(-131.11 56.77) rotate(-20.79)" style="fill:#fff;stroke:#000;stroke-linecap:round;stroke-linejoin:round"></rect><polygon points="86.42 381.37 97.46 410.34 94.57 411.44 83.54 382.46 86.42 381.37"></polygon><polygon points="91.77 379.34 102.8 408.29 99.91 409.4 88.88 380.44 91.77 379.34"></polygon><rect x="83.12" y="376.44" width="5.72" height="1.71" transform="translate(-127.88 54.79) rotate(-20.71)" style="fill:#fff;stroke:#000;stroke-linecap:round;stroke-linejoin:round"></rect><rect x="79.25" y="366.2" width="5.72" height="1.71" transform="translate(-124.03 52.45) rotate(-20.63)" style="fill:#fff;stroke:#000;stroke-linecap:round;stroke-linejoin:round"></rect><rect x="75.41" y="355.95" width="5.72" height="1.71" transform="translate(-120.18 50.12) rotate(-20.53)" style="fill:#fff;stroke:#000;stroke-linecap:round;stroke-linejoin:round"></rect><polygon points="75.51 352.35 86.42 381.37 83.54 382.46 72.62 353.43 75.51 352.35"></polygon><polygon points="80.86 350.35 91.77 379.34 88.88 380.44 77.97 351.43 80.86 350.35"></polygon><rect x="72.22" y="347.42" width="5.72" height="1.71" transform="translate(-116.85 48.12) rotate(-20.43)" style="fill:#fff;stroke:#000;stroke-linecap:round;stroke-linejoin:round"></rect><rect x="68.41" y="337.16" width="5.72" height="1.71" transform="translate(-112.93 45.78) rotate(-20.32)" style="fill:#fff;stroke:#000;stroke-linecap:round;stroke-linejoin:round"></rect><rect x="64.61" y="326.89" width="5.72" height="1.71" transform="translate(-108.97 43.43) rotate(-20.19)" style="fill:#fff;stroke:#000;stroke-linecap:round;stroke-linejoin:round"></rect><polygon points="64.74 323.27 75.51 352.35 72.62 353.43 61.84 324.34 64.74 323.27"></polygon><polygon points="70.11 321.31 80.86 350.35 77.97 351.43 67.21 322.37 70.11 321.31"></polygon><rect x="61.48" y="318.34" width="5.72" height="1.71" transform="translate(-105.86 41.6) rotate(-20.12)" style="fill:#fff;stroke:#000;stroke-linecap:round;stroke-linejoin:round"></rect><rect x="57.73" y="308.06" width="5.72" height="1.71" transform="translate(-101.81 39.24) rotate(-19.96)" style="fill:#fff;stroke:#000;stroke-linecap:round;stroke-linejoin:round"></rect><rect x="54.01" y="297.76" width="5.72" height="1.71" transform="translate(-97.72 36.87) rotate(-19.78)" style="fill:#fff;stroke:#000;stroke-linecap:round;stroke-linejoin:round"></rect><path d="M54.17,294.12q5.22,14.61,10.57,29.16l-2.9,1.06q-5.34-14.56-10.58-29.18Z"></path><path d="M59.56,292.2q5.2,14.57,10.55,29.11l-2.9,1.06q-5.34-14.55-10.56-29.13Z"></path><rect x="50.95" y="289.19" width="5.72" height="1.71" transform="translate(-94.08 34.8) rotate(-19.58)" style="fill:#fff;stroke:#000;stroke-linecap:round;stroke-linejoin:round"></rect><rect x="47.3" y="278.86" width="5.72" height="1.71" transform="translate(-89.78 32.38) rotate(-19.33)" style="fill:#fff;stroke:#000;stroke-linecap:round;stroke-linejoin:round"></rect><rect x="43.7" y="268.52" width="5.72" height="1.71" transform="translate(-85.36 29.94) rotate(-19.05)" style="fill:#fff;stroke:#000;stroke-linecap:round;stroke-linejoin:round"></rect><path d="M43.93,264.85q5,14.68,10.24,29.27l-2.91,1Q46,280.55,41,265.84Z"></path><path d="M49.34,263q5,14.63,10.22,29.2l-2.91,1Q51.43,278.65,46.42,264Z"></path><rect x="40.76" y="259.91" width="5.72" height="1.71" transform="translate(-81.28 27.74) rotate(-18.7)" style="fill:#fff;stroke:#000;stroke-linecap:round;stroke-linejoin:round"></rect><polygon points="42.62 248.67 43.15 250.29 37.71 252.07 37.18 250.44 42.62 248.67" style="fill:#fff;stroke:#000;stroke-linecap:round;stroke-linejoin:round"></polygon><polygon points="39.32 238.28 39.82 239.9 34.36 241.6 33.85 239.96 39.32 238.28" style="fill:#fff;stroke:#000;stroke-linecap:round;stroke-linejoin:round"></polygon><path d="M34.36,235.31c3,9.93,6.24,19.75,9.57,29.54l-2.93,1c-3.33-9.81-6.6-19.65-9.6-29.65Z"></path><path d="M39.84,233.68c2.93,9.8,6.18,19.57,9.5,29.32l-2.92,1c-3.32-9.77-6.59-19.57-9.54-29.44Z"></path><polygon points="36.74 229.61 37.21 231.24 31.72 232.82 31.24 231.17 36.74 229.61" style="fill:#fff;stroke:#000;stroke-linecap:round;stroke-linejoin:round"></polygon><path d="M34.14,219.19c.1.54.22,1.08.34,1.62L28.9,222c-.13-.58-.26-1.15-.37-1.74Z" style="fill:#fff;stroke:#000;stroke-linecap:round;stroke-linejoin:round"></path><path d="M34.47,209.62c-.17.49-.27,1-.4,1.49l-5.58-1.26c.16-.62.3-1.25.49-1.85Z" style="fill:#fff;stroke:#000;stroke-linecap:round;stroke-linejoin:round"></path><path d="M32.33,204.34a28.44,28.44,0,0,0-2.39,7.73c-.1.68-.17,1.35-.22,2a11.83,11.83,0,0,0,0,2.15,38.25,38.25,0,0,0,.62,4c1.08,5.14,2.51,10.12,4,15.09l-3,.88c-1.48-5-2.92-10-4-15.37a40.88,40.88,0,0,1-.68-4.3,15.27,15.27,0,0,1,0-2.63c.05-.77.13-1.53.25-2.28A31.64,31.64,0,0,1,29.53,203Z"></path><path d="M37.51,206.74a22.88,22.88,0,0,0-1.91,6.2c-.09.52-.14,1-.18,1.57a3.92,3.92,0,0,0,0,.58,6.14,6.14,0,0,0,0,.65,33,33,0,0,0,.54,3.35c1,4.76,2.4,9.71,3.85,14.59l-3,.88C35.42,229.63,34,224.67,33,219.7a35.23,35.23,0,0,1-.58-3.69,9.93,9.93,0,0,1,0-1.72c0-.61.11-1.22.21-1.82a25.72,25.72,0,0,1,2.16-7Z"></path><path d="M38,202.06c-.3.45-.56.91-.83,1.36l-5-2.87c.32-.52.63-1.06,1-1.57Z" style="fill:#fff;stroke:#000;stroke-linecap:round;stroke-linejoin:round"></path><path d="M44.6,194.11c-.4.37-.76.77-1.14,1.15l-4.11-4c.43-.43.83-.88,1.28-1.29Z" style="fill:#fff;stroke:#000;stroke-linecap:round;stroke-linejoin:round"></path><polygon points="52.79 187.71 51.43 188.59 48.24 183.85 49.76 182.87 52.79 187.71" style="fill:#fff;stroke:#000;stroke-linecap:round;stroke-linejoin:round"></polygon><path d="M54.54,182.25a54.24,54.24,0,0,0-12.84,9.26,45,45,0,0,0-9.37,12.83l-2.8-1.3a48.24,48.24,0,0,1,10-13.74,57.25,57.25,0,0,1,13.57-9.79Z"></path><path d="M57.18,187.32A48.25,48.25,0,0,0,45.7,195.6a39.66,39.66,0,0,0-8.19,11.14l-2.8-1.29a42.66,42.66,0,0,1,8.83-12.06,51.82,51.82,0,0,1,12.21-8.81Z"></path><polygon points="60.49 183.75 58.99 184.39 56.64 179.18 58.3 178.47 60.49 183.75" style="fill:#fff;stroke:#000;stroke-linecap:round;stroke-linejoin:round"></polygon><path d="M70.48,180.71c-.54.1-1.07.21-1.6.35l-1.3-5.57c.59-.15,1.17-.27,1.76-.38Z" style="fill:#fff;stroke:#000;stroke-linecap:round;stroke-linejoin:round"></path><polygon points="81.09 179.1 79.42 179.31 78.69 173.64 80.41 173.42 81.09 179.1" style="fill:#fff;stroke:#000;stroke-linecap:round;stroke-linejoin:round"></polygon><path d="M84.92,174.79c-5.19.47-10.32,1.2-15.48,2.17a61.33,61.33,0,0,0-7.64,2.12,57.78,57.78,0,0,0-7.26,3.17l-1.43-2.74a63.39,63.39,0,0,1,7.66-3.34,64.29,64.29,0,0,1,8-2.23l2-.39,2-.32c1.31-.2,2.61-.45,3.93-.6,2.62-.34,5.24-.7,7.88-.91Z"></path><path d="M85.47,180.48c-2.52.21-5,.55-7.51.87-1.26.14-2.49.38-3.74.57l-1.86.3-1.77.34a56.55,56.55,0,0,0-6.88,1.91,53.31,53.31,0,0,0-6.53,2.85l-1.43-2.74a56.07,56.07,0,0,1,6.93-3,57.45,57.45,0,0,1,7.29-2c5-.94,10.1-1.67,15.2-2.13Z"></path><path d="M90,178.24c-.56,0-1.12.07-1.68.12l-.46-5.7c.57,0,1.15-.08,1.73-.12Z" style="fill:#fff;stroke:#000;stroke-linecap:round;stroke-linejoin:round"></path><polygon points="100.83 177.76 99.14 177.8 98.99 172.09 100.72 172.04 100.83 177.76" style="fill:#fff;stroke:#000;stroke-linecap:round;stroke-linejoin:round"></polygon><path d="M111.65,177.8c-.56,0-1.12,0-1.69,0l.13-5.72c.58,0,1.16,0,1.73.05Z" style="fill:#fff;stroke:#000;stroke-linecap:round;stroke-linejoin:round"></path><path d="M116.07,174.12a213.13,213.13,0,0,0-31.15.67l-.3-3.07a215.15,215.15,0,0,1,31.6-.68Z"></path><path d="M115.79,179.83a207.26,207.26,0,0,0-30.32.65l-.3-3.07a209.31,209.31,0,0,1,30.77-.66Z"></path><path d="M120.63,178.26c-.56,0-1.12-.1-1.68-.12l.36-5.71c.58,0,1.15.08,1.73.13Z" style="fill:#fff;stroke:#000;stroke-linecap:round;stroke-linejoin:round"></path><polygon points="131.41 179.3 129.74 179.09 130.36 173.4 132.08 173.62 131.41 179.3" style="fill:#fff;stroke:#000;stroke-linecap:round;stroke-linejoin:round"></polygon><polygon points="142.13 180.82 140.47 180.54 141.35 174.89 143.06 175.18 142.13 180.82" style="fill:#fff;stroke:#000;stroke-linecap:round;stroke-linejoin:round"></polygon><path d="M147,177.71l-7.68-1.3c-2.57-.37-5.15-.67-7.72-1s-5.17-.53-7.76-.77l-3.88-.33-3.89-.19.15-3.08,3.94.19,3.94.33c2.62.24,5.25.41,7.85.78s5.23.64,7.83,1l7.78,1.31Z"></path><path d="M146,183.33l-7.5-1.27c-2.51-.35-5-.64-7.55-1s-5-.52-7.56-.75l-3.79-.33-3.79-.18.15-3.08,3.85.18,3.83.33c2.56.24,5.13.39,7.67.76s5.1.63,7.64,1l7.6,1.29Z"></path><polygon points="150.99 182.44 149.34 182.09 150.43 176.47 152.12 176.84 150.99 182.44" style="fill:#fff;stroke:#000;stroke-linecap:round;stroke-linejoin:round"></polygon><polygon points="161.56 184.82 159.92 184.4 161.26 178.84 162.94 179.27 161.56 184.82" style="fill:#fff;stroke:#000;stroke-linecap:round;stroke-linejoin:round"></polygon><polygon points="172.02 187.65 170.41 187.15 171.98 181.66 173.63 182.16 172.02 187.65" style="fill:#fff;stroke:#000;stroke-linecap:round;stroke-linejoin:round"></polygon><path d="M177.22,185.19A250.63,250.63,0,0,0,147,177.71l.56-3a254.25,254.25,0,0,1,30.58,7.57Z"></path><path d="M175.53,190.65A246.6,246.6,0,0,0,146,183.33l.55-3a249.72,249.72,0,0,1,29.91,7.4Z"></path><polygon points="180.63 190.3 179.02 189.81 180.78 184.37 182.43 184.88 180.63 190.3" style="fill:#fff;stroke:#000;stroke-linecap:round;stroke-linejoin:round"></polygon><polygon points="190.85 193.95 189.26 193.38 191.24 188.01 192.86 188.59 190.85 193.95" style="fill:#fff;stroke:#000;stroke-linecap:round;stroke-linejoin:round"></polygon><polygon points="200.91 197.99 199.35 197.34 201.54 192.06 203.13 192.72 200.91 197.99" style="fill:#fff;stroke:#000;stroke-linecap:round;stroke-linejoin:round"></polygon><path d="M206.4,196.05l-7.2-3c-2.41-1-4.78-2-7.24-2.86-4.89-1.73-9.74-3.6-14.74-5l.92-2.95c5.05,1.45,10,3.34,14.9,5.09,2.49.83,4.89,1.92,7.32,2.89l7.28,3Z"></path><path d="M204.1,201.29,197,198.38c-2.36-.94-4.68-2-7.09-2.81-4.79-1.69-9.54-3.52-14.42-4.92l.91-3c4.95,1.42,9.75,3.27,14.6,5,2.44.82,4.78,1.89,7.17,2.84l7.13,2.94Z"></path><polygon points="209.16 201.63 207.63 200.91 209.98 195.7 211.55 196.43 209.16 201.63" style="fill:#fff;stroke:#000;stroke-linecap:round;stroke-linejoin:round"></polygon><polygon points="218.99 206.28 217.46 205.51 220 200.39 221.53 201.16 218.99 206.28" style="fill:#fff;stroke:#000;stroke-linecap:round;stroke-linejoin:round"></polygon><rect x="226.43" y="207.38" width="5.72" height="1.71" transform="translate(-59.56 320.06) rotate(-63.41)" style="fill:#fff;stroke:#000;stroke-linecap:round;stroke-linejoin:round"></rect><path d="M234.34,209.62l-13.87-6.94c-4.64-2.28-9.39-4.42-14.07-6.63l1.24-2.83c4.73,2.24,9.54,4.4,14.2,6.69l13.89,7Z"></path><path d="M231.76,214.72l-13.83-6.92c-4.61-2.27-9.22-4.33-13.83-6.51l1.24-2.83c4.65,2.2,9.34,4.3,14,6.58L233.15,212Z"></path><polygon points="236.88 215.26 235.37 214.49 237.95 209.39 239.47 210.16 236.88 215.26" style="fill:#fff;stroke:#000;stroke-linecap:round;stroke-linejoin:round"></polygon><rect x="244.32" y="216.44" width="5.72" height="1.71" transform="translate(-58.64 338.92) rotate(-63.01)" style="fill:#fff;stroke:#000;stroke-linecap:round;stroke-linejoin:round"></rect><rect x="254.06" y="221.44" width="5.72" height="1.71" transform="translate(-58.28 349.06) rotate(-62.78)" style="fill:#fff;stroke:#000;stroke-linecap:round;stroke-linejoin:round"></rect><path d="M262,223.73q-13.77-7.11-27.61-14.11l1.39-2.76q13.85,7,27.63,14.12Z"></path><path d="M259.34,228.81q-13.77-7.11-27.58-14.09l1.39-2.75q13.83,7,27.6,14.1Z"></path><rect x="262.15" y="225.6" width="5.72" height="1.71" transform="translate(-57.59 358.52) rotate(-62.78)" style="fill:#fff;stroke:#000;stroke-linecap:round;stroke-linejoin:round"></rect><rect x="271.88" y="230.61" width="5.72" height="1.71" transform="translate(-56.86 369.67) rotate(-62.74)" style="fill:#fff;stroke:#000;stroke-linecap:round;stroke-linejoin:round"></rect><rect x="281.62" y="235.62" width="5.72" height="1.71" transform="translate(-55.57 382.12) rotate(-62.92)" style="fill:#fff;stroke:#000;stroke-linecap:round;stroke-linejoin:round"></rect><polygon points="289.52 237.9 261.95 223.73 263.36 220.98 290.92 235.15 289.52 237.9"></polygon><polygon points="286.92 242.99 259.34 228.81 260.75 226.07 288.32 240.24 286.92 242.99"></polygon><polygon points="292.05 243.55 290.52 242.77 293.12 237.68 294.64 238.45 292.05 243.55" style="fill:#fff;stroke:#000;stroke-linecap:round;stroke-linejoin:round"></polygon><rect x="299.49" y="244.7" width="5.72" height="1.71" transform="translate(-52.77 405.55) rotate(-63.33)" style="fill:#fff;stroke:#000;stroke-linecap:round;stroke-linejoin:round"></rect><polygon points="311.66 253.37 310.12 252.62 312.65 247.49 314.18 248.24 311.66 253.37" style="fill:#fff;stroke:#000;stroke-linecap:round;stroke-linejoin:round"></polygon><path d="M317.21,251.76l-7-3.39-6.92-3.47q-6.91-3.47-13.81-7l1.4-2.75q6.88,3.54,13.8,7l6.9,3.46,6.94,3.38Z"></path><path d="M314.71,256.9l-7-3.41-7-3.48q-7-3.48-13.85-7l1.4-2.75q6.89,3.54,13.83,7l6.94,3.47,7,3.4Z"></path><polygon points="319.86 257.37 318.32 256.62 320.8 251.47 322.33 252.21 319.86 257.37" style="fill:#fff;stroke:#000;stroke-linecap:round;stroke-linejoin:round"></polygon><polygon points="329.79 262.05 328.24 261.32 330.66 256.14 332.2 256.86 329.79 262.05" style="fill:#fff;stroke:#000;stroke-linecap:round;stroke-linejoin:round"></polygon><polygon points="339.79 266.6 338.22 265.91 340.56 260.69 342.12 261.38 339.79 266.6" style="fill:#fff;stroke:#000;stroke-linecap:round;stroke-linejoin:round"></polygon><path d="M345.28,264.78l-7.08-3.12c-2.36-1-4.68-2.17-7-3.25l-7-3.27-7-3.38,1.35-2.78,6.94,3.37,7,3.26c2.33,1.08,4.65,2.21,7,3.24l7,3.1Z"></path><path d="M343,270l-7.14-3.15c-2.39-1.05-4.72-2.18-7.08-3.27l-7.06-3.3-7-3.4,1.35-2.78,7,3.39,7,3.29c2.35,1.08,4.68,2.22,7.05,3.26l7.11,3.13Z"></path><polygon points="348.15 270.29 346.59 269.6 348.84 264.34 350.4 265.03 348.15 270.29" style="fill:#fff;stroke:#000;stroke-linecap:round;stroke-linejoin:round"></polygon><polygon points="358.34 274.46 356.75 273.81 358.89 268.51 360.46 269.15 358.34 274.46" style="fill:#fff;stroke:#000;stroke-linecap:round;stroke-linejoin:round"></polygon><polygon points="368.62 278.41 367.01 277.81 369.02 272.45 370.61 273.05 368.62 278.41" style="fill:#fff;stroke:#000;stroke-linecap:round;stroke-linejoin:round"></polygon><path d="M374,276.25c-9.68-3.52-19.26-7.31-28.69-11.47l1.23-2.83c9.38,4.14,18.9,7.9,28.5,11.4Z"></path><path d="M372,281.64c-9.82-3.57-19.52-7.42-29.05-11.62l1.24-2.83c9.47,4.18,19.11,8,28.85,11.54Z"></path><polygon points="377.24 281.5 375.61 280.96 377.49 275.56 379.1 276.1 377.24 281.5" style="fill:#fff;stroke:#000;stroke-linecap:round;stroke-linejoin:round"></polygon><polygon points="387.72 284.96 386.08 284.42 387.79 278.97 389.4 279.5 387.72 284.96" style="fill:#fff;stroke:#000;stroke-linecap:round;stroke-linejoin:round"></polygon><polygon points="398.33 287.99 396.68 287.51 398.2 282 399.82 282.47 398.33 287.99" style="fill:#fff;stroke:#000;stroke-linecap:round;stroke-linejoin:round"></polygon><path d="M403.46,285.33c-1.25-.27-2.49-.62-3.73-1L396,283.29l-7.42-2.12-7.33-2.42c-2.43-.84-4.9-1.56-7.3-2.5l1-2.9c2.38.93,4.83,1.64,7.24,2.47l7.27,2.4,7.34,2.1,3.67,1.05c1.23.35,2.45.7,3.7,1Z"></path><path d="M402.05,290.87c-1.28-.28-2.54-.63-3.8-1l-3.78-1.08-7.55-2.16-7.45-2.46c-2.48-.85-5-1.58-7.43-2.53l1-2.91c2.42.95,4.91,1.67,7.36,2.51l7.39,2.44,7.48,2.14,3.74,1.07c1.25.36,2.5.71,3.76,1Z"></path><polygon points="407.24 290.21 405.56 289.82 406.91 284.26 408.56 284.65 407.24 290.21" style="fill:#fff;stroke:#000;stroke-linecap:round;stroke-linejoin:round"></polygon><polygon points="418.03 292.57 416.33 292.25 417.47 286.65 419.13 286.96 418.03 292.57" style="fill:#fff;stroke:#000;stroke-linecap:round;stroke-linejoin:round"></polygon><path d="M428.9,294.53c-.57-.07-1.14-.14-1.7-.26l.91-5.64c.56.11,1.11.18,1.67.25Z" style="fill:#fff;stroke:#000;stroke-linecap:round;stroke-linejoin:round"></path><path d="M433.72,291.26a278.36,278.36,0,0,1-30.26-5.93l.77-3a275,275,0,0,0,29.92,5.86Z"></path><path d="M432.93,296.92a284,284,0,0,1-30.88-6.05l.76-3a280.81,280.81,0,0,0,30.55,6Z"></path><polygon points="438 295.75 436.3 295.52 437.02 289.85 438.69 290.07 438 295.75" style="fill:#fff;stroke:#000;stroke-linecap:round;stroke-linejoin:round"></polygon><polygon points="449.02 296.89 447.3 296.74 447.75 291.04 449.42 291.19 449.02 296.89" style="fill:#fff;stroke:#000;stroke-linecap:round;stroke-linejoin:round"></polygon><polygon points="460.09 297.36 458.36 297.33 458.52 291.61 460.21 291.65 460.09 297.36" style="fill:#fff;stroke:#000;stroke-linecap:round;stroke-linejoin:round"></polygon><path d="M464.42,293.55a201,201,0,0,1-30.7-2.29l.43-3.06,7.55,1c2.52.3,5,.47,7.55.71l7.58.41,7.6.14Z"></path><path d="M464.4,299.27l-7.89-.15-7.89-.42c-2.63-.25-5.27-.43-7.89-.74l-7.8-1,.43-3.06a203,203,0,0,0,31.05,2.32Z"></path><polygon points="469.28 297.39 467.55 297.41 467.5 291.69 469.19 291.67 469.28 297.39" style="fill:#fff;stroke:#000;stroke-linecap:round;stroke-linejoin:round"></polygon><path d="M480.32,297c-.57.05-1.15.08-1.72.09l-.28-5.71c.56,0,1.13,0,1.69-.08Z" style="fill:#fff;stroke:#000;stroke-linecap:round;stroke-linejoin:round"></path><polygon points="491.33 296.21 489.61 296.36 489.13 290.66 490.82 290.51 491.33 296.21" style="fill:#fff;stroke:#000;stroke-linecap:round;stroke-linejoin:round"></polygon><path d="M495.23,292a296.54,296.54,0,0,1-30.81,1.6v-3.08a293.25,293.25,0,0,0,30.48-1.59Z"></path><path d="M495.81,297.64a301.55,301.55,0,0,1-31.41,1.63v-3.09a298.4,298.4,0,0,0,31.08-1.61Z"></path><polygon points="500.44 295.27 498.74 295.46 498.1 289.78 499.79 289.59 500.44 295.27" style="fill:#fff;stroke:#000;stroke-linecap:round;stroke-linejoin:round"></polygon><polygon points="511.38 293.85 509.68 294.08 508.87 288.42 510.55 288.19 511.38 293.85" style="fill:#fff;stroke:#000;stroke-linecap:round;stroke-linejoin:round"></polygon><polygon points="522.26 292.07 520.57 292.38 519.6 286.74 521.27 286.44 522.26 292.07" style="fill:#fff;stroke:#000;stroke-linecap:round;stroke-linejoin:round"></polygon><path d="M525.78,287.49c-10.12,1.9-20.31,3.42-30.55,4.46l-.32-3.07c10.15-1,20.26-2.54,30.3-4.42Z"></path><path d="M526.83,293.11c-10.26,1.92-20.61,3.47-31,4.53l-.32-3.07c10.32-1.05,20.59-2.58,30.78-4.49Z"></path><polygon points="531.25 290.38 529.57 290.72 528.48 285.11 530.14 284.78 531.25 290.38" style="fill:#fff;stroke:#000;stroke-linecap:round;stroke-linejoin:round"></polygon><polygon points="542.03 288.09 540.35 288.46 539.11 282.88 540.77 282.52 542.03 288.09" style="fill:#fff;stroke:#000;stroke-linecap:round;stroke-linejoin:round"></polygon><polygon points="552.74 285.53 551.08 285.94 549.69 280.39 551.33 279.99 552.74 285.53" style="fill:#fff;stroke:#000;stroke-linecap:round;stroke-linejoin:round"></polygon><path d="M555.91,280.68q-14.92,4-30.13,6.81l-.57-3q15.07-2.82,29.91-6.77Z"></path><path d="M557.38,286.2q-15.14,4-30.55,6.91l-.56-3q15.27-2.86,30.32-6.86Z"></path><path d="M561.59,283.17c-.55.16-1.1.32-1.66.46l-1.5-5.51c.55-.14,1.09-.31,1.63-.46Z" style="fill:#fff;stroke:#000;stroke-linecap:round;stroke-linejoin:round"></path><polygon points="572.16 280.08 570.52 280.58 568.87 275.11 570.49 274.61 572.16 280.08" style="fill:#fff;stroke:#000;stroke-linecap:round;stroke-linejoin:round"></polygon><polygon points="582.66 276.72 581.02 277.26 579.23 271.83 580.84 271.3 582.66 276.72" style="fill:#fff;stroke:#000;stroke-linecap:round;stroke-linejoin:round"></polygon><path d="M585.45,271.65q-14.58,5.09-29.54,9l-.79-3q14.82-3.93,29.32-8.95Z"></path><path d="M587.33,277.05q-14.8,5.16-30,9.15l-.79-3q15-4,29.73-9.08Z"></path><polygon points="591.31 273.71 589.68 274.28 587.76 268.9 589.36 268.34 591.31 273.71" style="fill:#fff;stroke:#000;stroke-linecap:round;stroke-linejoin:round"></polygon><polygon points="601.61 269.79 600.01 270.42 597.93 265.1 599.5 264.47 601.61 269.79" style="fill:#fff;stroke:#000;stroke-linecap:round;stroke-linejoin:round"></polygon><polygon points="611.8 265.56 610.22 266.23 607.96 260.98 609.52 260.32 611.8 265.56" style="fill:#fff;stroke:#000;stroke-linecap:round;stroke-linejoin:round"></polygon><path d="M614.14,260.26c-9.37,4.24-19,8-28.69,11.39l-1-2.91c9.64-3.36,19.15-7.1,28.43-11.29Z"></path><path d="M616.5,265.47c-9.56,4.32-19.3,8.15-29.17,11.58l-1-2.91c9.79-3.41,19.45-7.21,28.9-11.48Z"></path><path d="M620.16,261.77c-.51.26-1,.49-1.56.73l-2.41-5.19c.51-.23,1-.46,1.53-.71Z" style="fill:#fff;stroke:#000;stroke-linecap:round;stroke-linejoin:round"></path><polygon points="630.05 256.83 628.52 257.63 625.9 252.55 627.39 251.77 630.05 256.83" style="fill:#fff;stroke:#000;stroke-linecap:round;stroke-linejoin:round"></polygon><polygon points="639.73 251.45 638.25 252.34 635.38 247.4 636.82 246.53 639.73 251.45" style="fill:#fff;stroke:#000;stroke-linecap:round;stroke-linejoin:round"></polygon><path d="M641.4,245.92a240.61,240.61,0,0,1-27.26,14.34l-1.27-2.81a239.72,239.72,0,0,0,26.9-14.15Z"></path><path d="M644.42,250.77a247.93,247.93,0,0,1-27.92,14.7l-1.28-2.81a243.06,243.06,0,0,0,27.57-14.51Z"></path><polygon points="647.56 246.56 646.11 247.51 643 242.71 644.4 241.8 647.56 246.56" style="fill:#fff;stroke:#000;stroke-linecap:round;stroke-linejoin:round"></polygon><polygon points="656.62 240.07 655.24 241.14 651.78 236.58 653.1 235.56 656.62 240.07" style="fill:#fff;stroke:#000;stroke-linecap:round;stroke-linejoin:round"></polygon><polygon points="665.09 232.7 663.83 233.93 659.91 229.76 661.09 228.62 665.09 232.7" style="fill:#fff;stroke:#000;stroke-linecap:round;stroke-linejoin:round"></polygon><path d="M665.34,226.92c-.87.94-1.75,1.87-2.68,2.73s-1.8,1.79-2.76,2.64c-1.93,1.66-3.83,3.35-5.89,4.88a147.37,147.37,0,0,1-12.61,8.75l-1.63-2.62a147.18,147.18,0,0,0,12.35-8.56c2-1.49,3.84-3.14,5.71-4.75.93-.81,1.77-1.69,2.66-2.53.44-.43.89-.84,1.32-1.29l1.27-1.36Z"></path><path d="M669.51,230.83l-1.37,1.46c-.47.49-1,1-1.46,1.43-1,.93-1.94,1.91-2.95,2.81-2,1.76-4.06,3.56-6.2,5.15a151.85,151.85,0,0,1-13.11,9.09l-1.63-2.62a152.16,152.16,0,0,0,12.84-8.9c2.1-1.56,4-3.3,6-5,1-.87,1.89-1.81,2.84-2.72s1.86-1.84,2.75-2.8Z"></path><polygon points="671.47 225.91 670.31 227.22 666.04 223.43 667.13 222.18 671.47 225.91" style="fill:#fff;stroke:#000;stroke-linecap:round;stroke-linejoin:round"></polygon><polygon points="678.37 217.13 677.35 218.54 672.75 215.15 673.72 213.8 678.37 217.13" style="fill:#fff;stroke:#000;stroke-linecap:round;stroke-linejoin:round"></polygon><path d="M684.46,207.76c-.3.5-.57,1-.89,1.5l-4.88-3c.3-.46.56-.95.84-1.43Z" style="fill:#fff;stroke:#000;stroke-linecap:round;stroke-linejoin:round"></path><path d="M683.19,202.1a120.29,120.29,0,0,1-17.85,24.82l-2.26-2.11a116.88,116.88,0,0,0,17.39-24.17Z"></path><path d="M688.22,204.82a126.2,126.2,0,0,1-18.71,26l-2.25-2.11a122.54,122.54,0,0,0,18.24-25.37Z"></path><polygon points="688.85 199.56 688.08 201.13 682.98 198.55 683.71 197.06 688.85 199.56" style="fill:#fff;stroke:#000;stroke-linecap:round;stroke-linejoin:round"></polygon><path d="M693.24,189.25c-.21.55-.39,1.1-.61,1.64l-5.33-2c.2-.51.38-1,.57-1.55Z" style="fill:#fff;stroke:#000;stroke-linecap:round;stroke-linejoin:round"></path><path d="M696.51,178.51c-.12.57-.28,1.13-.43,1.69l-5.54-1.44c.15-.53.3-1.06.41-1.6Z" style="fill:#fff;stroke:#000;stroke-linecap:round;stroke-linejoin:round"></path><path d="M693.63,173.47a101,101,0,0,1-10.44,28.63l-2.72-1.46a97.77,97.77,0,0,0,10.12-27.75Z"></path><path d="M699.24,174.55a106.57,106.57,0,0,1-11,30.27l-2.72-1.47A103.4,103.4,0,0,0,696.21,174Z"></path><polygon points="698.23 169.3 698 171.04 692.35 170.17 692.56 168.55 698.23 169.3" style="fill:#fff;stroke:#000;stroke-linecap:round;stroke-linejoin:round"></polygon><path d="M698.94,158c0,.59,0,1.18,0,1.77l-5.72-.08c0-.54,0-1.09,0-1.63Z" style="fill:#fff;stroke:#000;stroke-linecap:round;stroke-linejoin:round"></path><path d="M697.94,146.72c.12.58.21,1.16.28,1.75l-5.66.82c-.06-.54-.15-1.08-.25-1.61Z" style="fill:#fff;stroke:#000;stroke-linecap:round;stroke-linejoin:round"></path><path d="M693.27,143.27a71.66,71.66,0,0,1,.36,30.2l-3-.58a68.31,68.31,0,0,0-.33-28.9Z"></path><path d="M698.83,141.94a77.3,77.3,0,0,1,.41,32.61l-3-.58a74.11,74.11,0,0,0-.39-31.31Z"></path><polygon points="695.68 137.54 696.22 139.23 690.73 140.84 690.24 139.29 695.68 137.54" style="fill:#fff;stroke:#000;stroke-linecap:round;stroke-linejoin:round"></polygon><polygon points="691.25 127.06 692.09 128.62 686.97 131.16 686.2 129.73 691.25 127.06" style="fill:#fff;stroke:#000;stroke-linecap:round;stroke-linejoin:round"></polygon><path d="M685.11,117.49c.38.45.7,1,1,1.43l-4.62,3.37c-.32-.43-.61-.89-1-1.31Z" style="fill:#fff;stroke:#000;stroke-linecap:round;stroke-linejoin:round"></path><path d="M679.37,116.62a62.58,62.58,0,0,1,13.9,26.65l-3,.72A59.43,59.43,0,0,0,677,118.65Z"></path><path d="M683.67,112.86a68.28,68.28,0,0,1,15.16,29.08l-3,.72a65.22,65.22,0,0,0-14.47-27.77Z"></path><path d="M678.87,110.42c.44.4.83.84,1.23,1.27l-4.13,4c-.37-.39-.73-.81-1.13-1.17Z" style="fill:#fff;stroke:#000;stroke-linecap:round;stroke-linejoin:round"></path><polygon points="670.2 103.1 671.64 104.14 668.19 108.7 666.87 107.75 670.2 103.1" style="fill:#fff;stroke:#000;stroke-linecap:round;stroke-linejoin:round"></polygon><path d="M660.48,97.24c.53.25,1,.55,1.56.82l-2.66,5.07c-.48-.26-.94-.54-1.44-.76Z" style="fill:#fff;stroke:#000;stroke-linecap:round;stroke-linejoin:round"></path><path d="M654.94,99a67.27,67.27,0,0,1,24.43,17.64l-2.33,2a64.05,64.05,0,0,0-23.3-16.83Z"></path><path d="M657.15,93.71a72.89,72.89,0,0,1,26.52,19.15l-2.32,2A69.9,69.9,0,0,0,656,96.55Z"></path><path d="M651.77,93.63c.57.17,1.12.38,1.66.6l-2,5.36c-.5-.2-1-.39-1.53-.55Z" style="fill:#fff;stroke:#000;stroke-linecap:round;stroke-linejoin:round"></path><polygon points="640.84 90.75 642.57 91.1 641.38 96.7 639.77 96.37 640.84 90.75" style="fill:#fff;stroke:#000;stroke-linecap:round;stroke-linejoin:round"></polygon><path d="M629.67,89.36c.58,0,1.16,0,1.75.12l-.47,5.7c-.54-.07-1.09-.09-1.64-.12Z" style="fill:#fff;stroke:#000;stroke-linecap:round;stroke-linejoin:round"></path><path d="M625.21,93.06A81,81,0,0,1,654.94,99l-1.2,2.84a77.86,77.86,0,0,0-28.58-5.67Z"></path><path d="M625.3,87.35a86.35,86.35,0,0,1,31.85,6.36L656,96.55a83.44,83.44,0,0,0-30.7-6.12Z"></path><path d="M620.33,89.22c.58,0,1.17-.06,1.75,0l.08,5.72c-.55,0-1.1,0-1.65,0Z" style="fill:#fff;stroke:#000;stroke-linecap:round;stroke-linejoin:round"></path><polygon points="609.17 90.15 610.9 89.94 611.57 95.61 609.92 95.82 609.17 90.15" style="fill:#fff;stroke:#000;stroke-linecap:round;stroke-linejoin:round"></polygon><path d="M598.17,92.14c.56-.14,1.13-.27,1.7-.38l1.19,5.59c-.55.1-1.09.23-1.62.36Z" style="fill:#fff;stroke:#000;stroke-linecap:round;stroke-linejoin:round"></path><path d="M594.91,96.93a112.52,112.52,0,0,1,30.3-3.87l-.05,3.09a109.16,109.16,0,0,0-29.46,3.77Z"></path><path d="M593.46,91.4a117.85,117.85,0,0,1,31.84-4.05l0,3.08a115,115,0,0,0-31,4Z"></path><path d="M589.2,94.52c.55-.18,1.11-.35,1.67-.5l1.59,5.49c-.54.15-1.07.31-1.6.48Z" style="fill:#fff;stroke:#000;stroke-linecap:round;stroke-linejoin:round"></path><polygon points="578.67 98.19 580.29 97.56 582.32 102.91 580.77 103.51 578.67 98.19" style="fill:#fff;stroke:#000;stroke-linecap:round;stroke-linejoin:round"></polygon><path d="M568.46,102.69c.52-.27,1-.5,1.57-.75l2.45,5.17c-.5.24-1,.45-1.5.71Z" style="fill:#fff;stroke:#000;stroke-linecap:round;stroke-linejoin:round"></path><path d="M566.39,108.1a136.12,136.12,0,0,1,28.52-11.17l.79,3a133.18,133.18,0,0,0-27.86,10.9Z"></path><path d="M563.72,103A142.39,142.39,0,0,1,593.46,91.4l.78,3a138.81,138.81,0,0,0-29.08,11.38Z"></path><path d="M560.28,107.05c.5-.31,1-.58,1.52-.86l2.79,5c-.49.26-1,.53-1.45.82Z" style="fill:#fff;stroke:#000;stroke-linecap:round;stroke-linejoin:round"></path><polygon points="550.86 113.03 552.29 112.05 555.5 116.78 554.13 117.72 550.86 113.03" style="fill:#fff;stroke:#000;stroke-linecap:round;stroke-linejoin:round"></polygon><polygon points="541.98 119.72 543.31 118.62 546.85 123.12 545.55 124.18 541.98 119.72" style="fill:#fff;stroke:#000;stroke-linecap:round;stroke-linejoin:round"></polygon><path d="M541.12,125.44l3-2.44c1-.81,2-1.63,3-2.38l3.08-2.3c1-.77,2-1.55,3.11-2.25a126.57,126.57,0,0,1,13.09-8l1.45,2.72a124.75,124.75,0,0,0-12.78,7.78c-1,.69-2,1.45-3,2.21l-3,2.26c-1,.74-2,1.53-3,2.34l-2.93,2.4Z"></path><path d="M537.44,121.06c4-3.4,8.25-6.61,12.6-9.69A133.44,133.44,0,0,1,563.72,103l1.44,2.73a130.1,130.1,0,0,0-13.36,8.14c-1.09.72-2.13,1.51-3.17,2.29l-3.12,2.34c-1.06.76-2.07,1.58-3.07,2.41l-3,2.48Z"></path><polygon points="534.92 125.65 536.22 124.5 539.96 128.83 538.7 129.95 534.92 125.65" style="fill:#fff;stroke:#000;stroke-linecap:round;stroke-linejoin:round"></polygon><polygon points="526.79 133.16 528.04 131.97 531.98 136.1 530.76 137.27 526.79 133.16" style="fill:#fff;stroke:#000;stroke-linecap:round;stroke-linejoin:round"></polygon><path d="M519,141c.38-.42.79-.83,1.2-1.24l4.1,4c-.39.4-.79.8-1.17,1.21Z" style="fill:#fff;stroke:#000;stroke-linecap:round;stroke-linejoin:round"></path><path d="M518.88,146.78a251.65,251.65,0,0,1,22.24-21.34l2,2.37a247.83,247.83,0,0,0-22,21.07Z"></path><path d="M514.7,142.88a256.41,256.41,0,0,1,22.74-21.82l2,2.37A254.15,254.15,0,0,0,517,145Z"></path><polygon points="512.75 147.69 513.9 146.42 518.12 150.28 516.98 151.54 512.75 147.69" style="fill:#fff;stroke:#000;stroke-linecap:round;stroke-linejoin:round"></polygon><polygon points="505.46 155.96 506.58 154.66 510.9 158.4 509.8 159.69 505.46 155.96" style="fill:#fff;stroke:#000;stroke-linecap:round;stroke-linejoin:round"></polygon><polygon points="498.37 164.36 499.47 163.04 503.86 166.7 502.77 168.01 498.37 164.36" style="fill:#fff;stroke:#000;stroke-linecap:round;stroke-linejoin:round"></polygon><path d="M498.65,170.14c6.53-8,13.21-15.83,20.23-23.36l2.26,2.1c-7,7.46-13.6,15.26-20.1,23.21Z"></path><path d="M494.22,166.52c6.58-8,13.34-16,20.48-23.64L517,145c-7.08,7.59-13.8,15.48-20.35,23.49Z"></path><polygon points="492.59 171.43 493.67 170.1 498.11 173.7 497.03 175.02 492.59 171.43" style="fill:#fff;stroke:#000;stroke-linecap:round;stroke-linejoin:round"></polygon><polygon points="485.73 179.99 486.79 178.65 491.27 182.21 490.21 183.55 485.73 179.99" style="fill:#fff;stroke:#000;stroke-linecap:round;stroke-linejoin:round"></polygon><rect x="480.85" y="186.82" width="1.71" height="5.72" transform="translate(34.08 449.78) rotate(-51.65)" style="fill:#fff;stroke:#000;stroke-linecap:round;stroke-linejoin:round"></rect><path d="M479.32,194.34c6.42-8.1,12.79-16.22,19.33-24.2l2.39,2c-6.51,7.95-12.88,16.06-19.3,24.17Z"></path><path d="M474.84,190.79c6.4-8.09,12.8-16.23,19.38-24.27l2.39,1.95c-6.55,8-12.94,16.14-19.35,24.24Z"></path><rect x="475.19" y="193.95" width="1.71" height="5.72" transform="translate(25.8 447.08) rotate(-51.53)" style="fill:#fff;stroke:#000;stroke-linecap:round;stroke-linejoin:round"></rect><polygon points="466.44 204.22 467.51 202.9 471.96 206.49 470.88 207.82 466.44 204.22" style="fill:#fff;stroke:#000;stroke-linecap:round;stroke-linejoin:round"></polygon><rect x="461.39" y="210.96" width="1.71" height="5.72" transform="translate(2.73 433.44) rotate(-50.37)" style="fill:#fff;stroke:#000;stroke-linecap:round;stroke-linejoin:round"></rect><path d="M459.76,218.43l9.87-12q4.88-6,9.69-12.12l2.42,1.92q-4.83,6.09-9.72,12.14l-9.88,12Z"></path><path d="M455.36,214.78l9.83-11.93q4.85-6,9.65-12.06l2.42,1.92q-4.81,6.07-9.68,12.09l-9.85,11.95Z"></path><rect x="455.59" y="217.97" width="1.71" height="5.72" transform="translate(-4.78 431.49) rotate(-50.37)" style="fill:#fff;stroke:#000;stroke-linecap:round;stroke-linejoin:round"></rect><rect x="448.62" y="226.41" width="1.71" height="5.72" transform="translate(-13.37 430.18) rotate(-50.49)" style="fill:#fff;stroke:#000;stroke-linecap:round;stroke-linejoin:round"></rect><rect x="441.67" y="234.87" width="1.71" height="5.72" transform="translate(-22.05 428.81) rotate(-50.6)" style="fill:#fff;stroke:#000;stroke-linecap:round;stroke-linejoin:round"></rect><polygon points="440.05 242.34 459.76 218.43 462.14 220.4 442.44 244.3 440.05 242.34"></polygon><polygon points="435.63 238.72 455.36 214.78 457.73 216.75 438.02 240.68 435.63 238.72"></polygon><rect x="435.89" y="241.9" width="1.71" height="5.72" transform="translate(-29.29 427.69) rotate(-50.7)" style="fill:#fff;stroke:#000;stroke-linecap:round;stroke-linejoin:round"></rect><rect x="428.96" y="250.38" width="1.71" height="5.72" transform="translate(-38.22 425.88) rotate(-50.75)" style="fill:#fff;stroke:#000;stroke-linecap:round;stroke-linejoin:round"></rect><rect x="422.04" y="258.86" width="1.71" height="5.72" transform="translate(-47.26 423.87) rotate(-50.78)" style="fill:#fff;stroke:#000;stroke-linecap:round;stroke-linejoin:round"></rect><polygon points="420.44 266.34 440.05 242.34 442.44 244.3 422.83 268.29 420.44 266.34"></polygon><polygon points="416.01 262.73 435.63 238.72 438.02 240.68 418.4 264.68 416.01 262.73"></polygon><rect x="416.29" y="265.91" width="1.71" height="5.72" transform="translate(-54.65 422.57) rotate(-50.85)" style="fill:#fff;stroke:#000;stroke-linecap:round;stroke-linejoin:round"></rect><rect x="409.38" y="274.41" width="1.71" height="5.72" transform="translate(-63.66 420.76) rotate(-50.9)" style="fill:#fff;stroke:#000;stroke-linecap:round;stroke-linejoin:round"></rect><rect x="402.48" y="282.9" width="1.71" height="5.72" transform="translate(-72.71 418.88) rotate(-50.94)" style="fill:#fff;stroke:#000;stroke-linecap:round;stroke-linejoin:round"></rect><rect x="396.37" y="277.8" width="30.99" height="3.09" transform="translate(-64.69 422.73) rotate(-50.89)"></rect><rect x="391.93" y="274.19" width="31" height="3.09" transform="translate(-63.53 417.96) rotate(-50.89)"></rect><rect x="396.74" y="289.97" width="1.71" height="5.72" transform="translate(-80.32 417.04) rotate(-50.94)" style="fill:#fff;stroke:#000;stroke-linecap:round;stroke-linejoin:round"></rect><rect x="389.85" y="298.47" width="1.71" height="5.72" transform="translate(-89.43 415.01) rotate(-50.96)" style="fill:#fff;stroke:#000;stroke-linecap:round;stroke-linejoin:round"></rect><rect x="382.95" y="306.98" width="1.71" height="5.72" transform="translate(-98.56 412.91) rotate(-50.97)" style="fill:#fff;stroke:#000;stroke-linecap:round;stroke-linejoin:round"></rect><rect x="376.83" y="301.86" width="31" height="3.09" transform="translate(-90.43 417.05) rotate(-50.96)"></rect><rect x="372.39" y="298.26" width="31" height="3.09" transform="translate(-89.28 412.27) rotate(-50.96)"></rect><rect x="377.22" y="314.05" width="1.71" height="5.72" transform="translate(-106.19 411.02) rotate(-50.97)" style="fill:#fff;stroke:#000;stroke-linecap:round;stroke-linejoin:round"></rect><rect x="370.33" y="322.55" width="1.71" height="5.72" transform="translate(-115.35 408.81) rotate(-50.97)" style="fill:#fff;stroke:#000;stroke-linecap:round;stroke-linejoin:round"></rect><rect x="363.43" y="331.05" width="1.71" height="5.72" transform="translate(-124.53 406.46) rotate(-50.95)" style="fill:#fff;stroke:#000;stroke-linecap:round;stroke-linejoin:round"></rect><rect x="357.31" y="325.94" width="31" height="3.09" transform="translate(-116.37 410.75) rotate(-50.96)"></rect><rect x="352.87" y="322.33" width="30.99" height="3.09" transform="translate(-115.22 405.97) rotate(-50.96)"></rect><rect x="357.7" y="338.12" width="1.71" height="5.72" transform="translate(-132.17 404.34) rotate(-50.92)" style="fill:#fff;stroke:#000;stroke-linecap:round;stroke-linejoin:round"></rect><rect x="350.79" y="346.62" width="1.71" height="5.72" transform="translate(-141.37 401.69) rotate(-50.87)" style="fill:#fff;stroke:#000;stroke-linecap:round;stroke-linejoin:round"></rect><rect x="343.88" y="355.11" width="1.71" height="5.72" transform="translate(-150.55 398.9) rotate(-50.8)" style="fill:#fff;stroke:#000;stroke-linecap:round;stroke-linejoin:round"></rect><rect x="337.76" y="350" width="31" height="3.09" transform="translate(-142.37 403.74) rotate(-50.87)"></rect><rect x="333.33" y="346.39" width="30.99" height="3.09" transform="translate(-141.21 398.97) rotate(-50.87)"></rect><rect x="338.13" y="362.16" width="1.71" height="5.72" transform="translate(-158.13 397.06) rotate(-50.81)" style="fill:#fff;stroke:#000;stroke-linecap:round;stroke-linejoin:round"></rect><rect x="331.2" y="370.64" width="1.71" height="5.72" transform="translate(-167.28 394.13) rotate(-50.73)" style="fill:#fff;stroke:#000;stroke-linecap:round;stroke-linejoin:round"></rect><polygon points="322.26 380.65 323.37 379.37 327.73 383.07 326.59 384.38 322.26 380.65" style="fill:#fff;stroke:#000;stroke-linecap:round;stroke-linejoin:round"></polygon><path d="M322.38,386.43c6.94-7.77,13.35-15.84,19.9-23.84l2.39,2c-6.55,8-12.93,16-20,23.94Z"></path><path d="M318.11,382.62c6.72-7.51,13.21-15.66,19.74-23.64l2.39,1.95c-6.54,8-13,16.1-19.82,23.74Z"></path><polygon points="316.35 387.44 317.46 386.17 321.68 390.02 320.54 391.32 316.35 387.44" style="fill:#fff;stroke:#000;stroke-linecap:round;stroke-linejoin:round"></polygon><polygon points="308.75 395.16 309.94 393.96 313.98 398 312.76 399.23 308.75 395.16" style="fill:#fff;stroke:#000;stroke-linecap:round;stroke-linejoin:round"></polygon><polygon points="300.85 402.56 302.11 401.43 305.95 405.66 304.67 406.82 300.85 402.56" style="fill:#fff;stroke:#000;stroke-linecap:round;stroke-linejoin:round"></polygon><path d="M300.24,408.33l5.8-5.21,2.89-2.61,2.74-2.78c3.61-3.73,7.4-7.29,10.71-11.3l2.3,2.05c-3.34,4.06-7.19,7.67-10.85,11.45l-2.77,2.81-2.93,2.65-5.88,5.28Z"></path><path d="M296.51,404l5.65-5.07,2.82-2.55,2.67-2.71c3.52-3.64,7.23-7.11,10.46-11l2.31,2.05c-3.27,4-7,7.5-10.6,11.19l-2.7,2.75-2.87,2.57-5.73,5.15Z"></path><polygon points="294.06 408.44 295.38 407.39 299.05 411.78 297.69 412.86 294.06 408.44" style="fill:#fff;stroke:#000;stroke-linecap:round;stroke-linejoin:round"></polygon><path d="M285.56,415.13c.46-.32.92-.64,1.35-1l3.44,4.56c-.44.37-.92.71-1.39,1Z" style="fill:#fff;stroke:#000;stroke-linecap:round;stroke-linejoin:round"></path><polygon points="276.71 421.34 278.09 420.38 281.28 425.12 279.86 426.11 276.71 421.34" style="fill:#fff;stroke:#000;stroke-linecap:round;stroke-linejoin:round"></polygon><path d="M275.19,426.85l3.31-2.05c1.1-.7,2.14-1.48,3.21-2.22l6.38-4.49c2.09-1.55,4.08-3.21,6.13-4.81l3-2.43c.51-.41,1-.8,1.52-1.22l1.45-1.3,2,2.34L300.78,412c-.5.42-1,.82-1.54,1.23l-3.09,2.47c-2.08,1.62-4.11,3.31-6.22,4.88l-6.48,4.56c-1.09.74-2.14,1.54-3.26,2.25l-3.36,2.09Z"></path><path d="M272.15,422l3.21-2c1.07-.67,2.08-1.44,3.12-2.15l6.2-4.36c2-1.51,4-3.13,6-4.69l3-2.36c.49-.4,1-.78,1.48-1.19l1.41-1.27,2,2.34-1.43,1.29c-.49.41-1,.8-1.5,1.21l-3,2.39c-2,1.58-4,3.23-6.05,4.76l-6.3,4.43c-1.05.72-2.08,1.5-3.16,2.19l-3.27,2Z"></path><polygon points="269.08 426.07 270.51 425.18 273.47 430.07 272 430.99 269.08 426.07" style="fill:#fff;stroke:#000;stroke-linecap:round;stroke-linejoin:round"></polygon><polygon points="259.65 431.32 261.13 430.51 263.8 435.57 262.27 436.4 259.65 431.32" style="fill:#fff;stroke:#000;stroke-linecap:round;stroke-linejoin:round"></polygon><path d="M249.92,436c.52-.21,1-.43,1.53-.68l2.35,5.21c-.51.26-1.05.49-1.58.71Z" style="fill:#fff;stroke:#000;stroke-linecap:round;stroke-linejoin:round"></path><path d="M247.5,441.18a172.85,172.85,0,0,0,27.69-14.33l1.64,2.62A176.26,176.26,0,0,1,248.66,444Z"></path><path d="M245.33,435.89A167.8,167.8,0,0,0,272.15,422l1.64,2.61a170.8,170.8,0,0,1-27.29,14.13Z"></path><polygon points="241.62 439.34 243.2 438.77 245.26 444.1 243.62 444.69 241.62 439.34" style="fill:#fff;stroke:#000;stroke-linecap:round;stroke-linejoin:round"></polygon><polygon points="231.42 442.75 233.02 442.25 234.69 447.72 233.02 448.24 231.42 442.75" style="fill:#fff;stroke:#000;stroke-linecap:round;stroke-linejoin:round"></polygon><polygon points="221.03 445.32 222.65 444.97 223.83 450.56 222.11 450.93 221.03 445.32" style="fill:#fff;stroke:#000;stroke-linecap:round;stroke-linejoin:round"></polygon><path d="M217.46,449.84a131.28,131.28,0,0,0,30-8.66l1.16,2.86c-1.23.5-2.43,1-3.68,1.49l-3.75,1.35c-2.49.95-5,1.69-7.59,2.48a111.89,111.89,0,0,1-15.77,3.54Z"></path><path d="M216.71,444.17a103.48,103.48,0,0,0,14.45-3.26c2.39-.74,4.79-1.43,7.14-2.33l3.54-1.27c1.18-.42,2.33-.95,3.49-1.42l1.17,2.86c-1.19.48-2.35,1-3.56,1.44l-3.62,1.3c-2.39.92-4.85,1.62-7.29,2.38a106.2,106.2,0,0,1-14.91,3.36Z"></path><rect x="212.48" y="446.14" width="1.71" height="5.72" style="fill:#fff;stroke:#000;stroke-linecap:round;stroke-linejoin:round"></rect><rect x="201.53" y="446.14" width="1.71" height="5.72" style="fill:#fff;stroke:#000;stroke-linecap:round;stroke-linejoin:round"></rect><rect x="190.58" y="446.14" width="1.71" height="5.72" style="fill:#fff;stroke:#000;stroke-linecap:round;stroke-linejoin:round"></rect><path d="M186.31,450h29.6l.56,0,1-.13.41,3.06c-.36,0-.66.1-1.07.14l-.74.07H186.31Z"></path><path d="M186.31,444.31h29.33l.22,0c.24,0,.57-.07.85-.11l.41,3.06-.93.12a3.73,3.73,0,0,1-.83,0H186.31Z"></path><rect x="181.49" y="446.14" width="1.71" height="5.72" style="fill:#fff;stroke:#000;stroke-linecap:round;stroke-linejoin:round"></rect><rect x="170.54" y="446.14" width="1.71" height="5.72" style="fill:#fff;stroke:#000;stroke-linecap:round;stroke-linejoin:round"></rect><rect x="159.59" y="446.14" width="1.71" height="5.72" style="fill:#fff;stroke:#000;stroke-linecap:round;stroke-linejoin:round"></rect><rect x="155.31" y="450.02" width="31" height="3.09"></rect><rect x="155.31" y="444.31" width="31" height="3.09"></rect><rect x="150.49" y="446.14" width="1.71" height="5.72" style="fill:#fff;stroke:#000;stroke-linecap:round;stroke-linejoin:round"></rect><rect x="139.54" y="446.14" width="1.71" height="5.72" style="fill:#fff;stroke:#000;stroke-linecap:round;stroke-linejoin:round"></rect><rect x="128.59" y="446.14" width="1.71" height="5.72" style="fill:#fff;stroke:#000;stroke-linecap:round;stroke-linejoin:round"></rect><rect x="124.31" y="450.02" width="31" height="3.09"></rect><rect x="124.31" y="444.31" width="31" height="3.09"></rect><g style="clip-path:url(#freepik--clip-path--inject-12)"><rect x="121" y="446.14" width="1.17" height="5.72" style="fill:#fff;stroke:#000;stroke-linecap:round;stroke-linejoin:round"></rect><polygon points="112.78 447.17 114.38 446.55 114.56 447.01 114.65 447.23 114.66 447.26 114.66 447.3 114.66 447.39 114.66 447.57 114.66 449 114.66 451.86 113.49 451.86 113.49 449 112.78 447.17" style="fill:#fff;stroke:#000;stroke-linecap:round;stroke-linejoin:round"></polygon><rect x="103.19" y="450.72" width="1.72" height="3.92" transform="translate(-157.13 68.58) rotate(-21.27)" style="fill:#fff;stroke:#000;stroke-linecap:round;stroke-linejoin:round"></rect><polygon points="99.5 455.21 106.75 452.38 110.38 450.96 112.19 450.25 112.64 450.08 112.75 450.03 112.77 450.03 112.78 450.02 112.78 450.02 112.8 450.02 112.84 450.02 113.01 450.02 113.67 450.02 124.31 450.02 124.31 453.11 113.67 453.11 111.02 453.11 110.68 453.11 110.67 453.11 110.67 453.11 110.66 453.11 110.63 453.13 110.58 453.15 110.46 453.19 110.24 453.28 109.33 453.63 107.52 454.34 100.26 457.17 99.5 455.21"></polygon><polygon points="98.07 451.55 112.58 445.91 116.21 444.5 116.67 444.32 116.68 444.31 116.68 444.31 116.69 444.31 116.71 444.31 116.75 444.31 116.83 444.31 117 444.31 117.66 444.31 118.99 444.31 124.31 444.31 124.31 447.39 118.99 447.39 116.33 447.39 115 447.39 114.67 447.39 114.59 447.39 114.58 447.39 114.57 447.39 114.57 447.4 114.54 447.41 114.48 447.43 114.25 447.52 113.35 447.87 98.84 453.52 98.07 451.55"></polygon></g><g style="clip-path:url(#freepik--clip-path-2--inject-12)"><rect x="111.52" y="459.44" width="3.91" height="1.72" style="fill:#fff;stroke:#000;stroke-linecap:round;stroke-linejoin:round"></rect><polygon points="115.43 448.44 115.43 450.15 113.48 450.15 112.99 450.15 112.74 450.15 112.71 450.15 112.7 450.15 112.69 450.15 112.69 450.15 112.69 450.15 112.68 450.16 112.6 450.19 112.43 450.25 111.1 450.77 110.67 449.68 113.34 448.64 113.67 448.51 113.84 448.45 113.86 448.44 113.86 448.44 113.86 448.44 113.86 448.44 113.87 448.44 113.9 448.44 113.96 448.44 114.45 448.44 115.43 448.44" style="fill:#fff;stroke:#000;stroke-linecap:round;stroke-linejoin:round"></polygon><rect x="107.97" y="441.6" width="5.72" height="1.17" transform="translate(-152.46 70.04) rotate(-21.21)" style="fill:#fff;stroke:#000;stroke-linecap:round;stroke-linejoin:round"></rect><polygon points="108.6 439.27 112.45 449.19 112.69 449.81 112.75 449.96 112.77 450 112.78 450.02 112.78 450.02 112.78 450.03 112.78 450.05 112.78 450.17 112.78 450.66 112.78 452.6 112.78 456.5 112.78 464.28 110.67 464.28 110.67 456.5 110.67 454.55 110.67 453.57 110.67 453.33 110.67 453.21 110.67 453.15 110.67 453.12 110.67 453.11 110.67 453.11 110.66 453.1 110.54 452.79 109.57 450.31 105.72 440.38 108.6 439.27"></polygon><polygon points="113.93 437.2 115.85 442.16 116.33 443.4 116.57 444.02 116.63 444.17 116.66 444.25 116.68 444.29 116.68 444.31 116.69 444.31 116.68 444.31 116.68 444.33 116.68 444.82 116.68 448.71 116.68 464.28 114.57 464.28 114.57 448.71 114.57 447.74 114.57 447.49 114.57 447.43 114.57 447.4 114.57 447.39 114.57 447.39 114.57 447.38 114.54 447.3 114.42 446.99 113.94 445.75 112.97 443.28 111.05 438.32 113.93 437.2"></polygon></g></g></g><g id="freepik--carousel-2--inject-12"><rect x="596.02" y="422.29" width="2.53" height="23.91" style="fill:#fff;stroke:#000;stroke-linecap:round;stroke-linejoin:round"></rect><rect x="615.02" y="422.29" width="2.53" height="23.91" style="fill:#fff;stroke:#000;stroke-linecap:round;stroke-linejoin:round"></rect><rect x="634.02" y="422.29" width="2.53" height="23.91" style="fill:#fff;stroke:#000;stroke-linecap:round;stroke-linejoin:round"></rect><rect x="653.02" y="422.29" width="2.53" height="23.91" style="fill:#fff;stroke:#000;stroke-linecap:round;stroke-linejoin:round"></rect><rect x="672.02" y="422.29" width="2.53" height="23.91" style="fill:#fff;stroke:#000;stroke-linecap:round;stroke-linejoin:round"></rect><rect x="691.02" y="422.29" width="2.53" height="23.91" style="fill:#fff;stroke:#000;stroke-linecap:round;stroke-linejoin:round"></rect><rect x="582.45" y="445.67" width="124.67" height="7.94" style="fill:#92E3A9;stroke:#000;stroke-linecap:round;stroke-linejoin:round"></rect><path d="M644.26,383.62c-2.85,16.33-19.65,38.67-19.65,38.67H611.32c.76-.56,26.87-25.45,31.31-38.67Z" style="fill:#92E3A9;stroke:#000;stroke-linecap:round;stroke-linejoin:round"></path><path d="M642.63,383.62c-4.44,13.22-30.55,38.11-31.31,38.67h-14c1.09-.6,37.18-25.58,43.9-38.67Z" style="fill:#fff;stroke:#000;stroke-linecap:round;stroke-linejoin:round"></path><path d="M641.23,383.62c-20.66,27.92-42.81,38.07-43.9,38.67H581.47c32.12-8.08,57.13-36.84,58.47-38.67Z" style="fill:#92E3A9;stroke:#000;stroke-linecap:round;stroke-linejoin:round"></path><path d="M644.79,383.62v38.67H624.61s16.8-22.34,19.65-38.67Z" style="fill:#fff;stroke:#000;stroke-linecap:round;stroke-linejoin:round"></path><path d="M664.54,422.29H644.79V383.62h.65C648.2,400,664.54,422.29,664.54,422.29Z" style="fill:#92E3A9;stroke:#000;stroke-linecap:round;stroke-linejoin:round"></path><path d="M677.39,422.29H664.54S648.2,400,645.44,383.62H647C651.3,396.82,676.59,421.69,677.39,422.29Z" style="fill:#fff;stroke:#000;stroke-linecap:round;stroke-linejoin:round"></path><path d="M690.92,422.29H677.39c-.8-.6-26.09-25.47-30.38-38.67h1.36C654.86,396.71,689.85,421.68,690.92,422.29Z" style="fill:#92E3A9;stroke:#000;stroke-linecap:round;stroke-linejoin:round"></path><path d="M708.11,422.29H690.92c-1.07-.61-23.44-11.19-42.55-38.67h1.27C651,385.45,676,414.21,708.11,422.29Z" style="fill:#fff;stroke:#000;stroke-linecap:round;stroke-linejoin:round"></path><rect x="581.47" y="422.29" width="12.73" height="9.51" style="fill:#fff;stroke:#000;stroke-linecap:round;stroke-linejoin:round"></rect><rect x="604.2" y="422.29" width="12.73" height="9.51" style="fill:#fff;stroke:#000;stroke-linecap:round;stroke-linejoin:round"></rect><rect x="626.94" y="422.29" width="12.73" height="9.51" style="fill:#fff;stroke:#000;stroke-linecap:round;stroke-linejoin:round"></rect><rect x="649.67" y="422.29" width="12.73" height="9.51" style="fill:#fff;stroke:#000;stroke-linecap:round;stroke-linejoin:round"></rect><rect x="672.4" y="422.29" width="12.73" height="9.51" style="fill:#fff;stroke:#000;stroke-linecap:round;stroke-linejoin:round"></rect><rect x="695.14" y="422.29" width="12.73" height="9.51" style="fill:#fff;stroke:#000;stroke-linecap:round;stroke-linejoin:round"></rect><line x1="649.73" y1="422.74" x2="649.73" y2="425.31" style="fill:none;stroke:#000;stroke-linecap:round;stroke-linejoin:round"></line><path d="M691,422.31l0,0" style="fill:none;stroke:#000;stroke-linecap:round;stroke-linejoin:round"></path><path d="M677.41,422.31l0,0" style="fill:none;stroke:#000;stroke-linecap:round;stroke-linejoin:round"></path><circle cx="645.43" cy="377.9" r="6.88" style="fill:#fff;stroke:#000;stroke-linecap:round;stroke-linejoin:round"></circle></g><g id="freepik--wave-swinger--inject-12"><line x1="564.31" y1="257.83" x2="627.34" y2="334.13" style="fill:none;stroke:#000;stroke-linecap:round;stroke-linejoin:round"></line><path d="M620.24,334.37s-1-3.16.63-3.48,1.26-.58,2.53,1.32.63,1.53.63,1.53,5.68-.64,6.32.31,1.58,2.53,1.58,2.53,2.21-1.26,3.47-.32,4.11,6.64,4.11,6.64,4.11-.95,2.21,1-2.55,1.86-3.28,1.45-1.44-3-1.85-3.41-.83.73-.72,1.45.1,2,.72,2.26,1.54.83.82,1.14a5.17,5.17,0,0,1-2.88-.31c-.41-.21-.52-.62-.62-1.65a16.87,16.87,0,0,0-.52-2.47l-1.34-.21s-5.35,2.27-6.9,2S620.24,334.37,620.24,334.37Z" style="fill:#263238"></path><line x1="551.89" y1="263.91" x2="608.66" y2="339.05" style="fill:none;stroke:#000;stroke-linecap:round;stroke-linejoin:round"></line><path d="M603.61,339.22s-.67-2.25.45-2.47.9-.41,1.79.93.45,1.09.45,1.09,4-.45,4.49.22,1.12,1.8,1.12,1.8,1.57-.9,2.47-.23,2.92,4.71,2.92,4.71,2.92-.67,1.57.68-1.82,1.32-2.33,1-1-2.13-1.32-2.42-.58.51-.51,1,.08,1.39.51,1.61,1.1.58.59.8a3.68,3.68,0,0,1-2-.22c-.29-.14-.37-.44-.44-1.17a12.58,12.58,0,0,0-.36-1.76l-1-.14s-3.8,1.61-4.9,1.39S603.61,339.22,603.61,339.22Z" style="fill:#263238"></path><line x1="538.21" y1="260.95" x2="589.47" y2="343.62" style="fill:none;stroke:#000;stroke-linecap:round;stroke-linejoin:round"></line><path d="M584.44,343.15s-.38-2.31.76-2.39.95-.29,1.67,1.16.3,1.13.3,1.13,4.07.06,4.43.79.88,1.92.88,1.92,1.67-.69,2.48.09,2.3,5,2.3,5,3-.3,1.47.87-2,1.08-2.44.73-.74-2.24-1-2.57-.64.44-.63,1-.11,1.38.3,1.66,1,.72.48.87a3.7,3.7,0,0,1-2-.48c-.27-.18-.3-.48-.28-1.21a11.94,11.94,0,0,0-.15-1.79l-.92-.27s-4,1.12-5,.76S584.44,343.15,584.44,343.15Z" style="fill:#263238"></path><line x1="530.52" y1="255.54" x2="572.36" y2="343.36" style="fill:none;stroke:#000;stroke-linecap:round;stroke-linejoin:round"></line><path d="M567.42,342.34s-.13-2.34,1-2.29,1-.19,1.53,1.33.18,1.16.18,1.16,4,.51,4.31,1.27.67,2,.67,2,1.74-.5,2.45.37,1.73,5.26,1.73,5.26,3,0,1.37,1-2.07.86-2.5.46-.5-2.3-.72-2.66-.69.36-.74.88-.25,1.37.12,1.68.93.83.38.92a3.69,3.69,0,0,1-1.94-.69c-.25-.21-.25-.51-.15-1.24a13,13,0,0,0,.06-1.8l-.89-.36s-4.08.67-5.1.2S567.42,342.34,567.42,342.34Z" style="fill:#263238"></path><line x1="521" y1="256.88" x2="552.93" y2="348.77" style="fill:none;stroke:#000;stroke-linecap:round;stroke-linejoin:round"></line><path d="M548.12,347.21s.13-2.34,1.26-2.17,1-.08,1.38,1.49,0,1.18,0,1.18,4,1,4.14,1.73.45,2.07.45,2.07,1.78-.31,2.39.63,1.14,5.43,1.14,5.43,3,.36,1.25,1.16-2.15.63-2.54.18-.24-2.34-.41-2.72-.73.28-.83.79-.41,1.33-.07,1.69.83.92.28.95a3.66,3.66,0,0,1-1.86-.9c-.22-.24-.19-.54,0-1.25a12.31,12.31,0,0,0,.25-1.78l-.84-.46s-4.13.22-5.09-.36S548.12,347.21,548.12,347.21Z" style="fill:#263238"></path><line x1="603.63" y1="250.36" x2="674.98" y2="327.97" style="fill:none;stroke:#000;stroke-linecap:round;stroke-linejoin:round"></line><path d="M667.87,328.21s-1-3.16.63-3.48,1.27-.58,2.53,1.32.63,1.53.63,1.53,5.69-.64,6.32.31,1.58,2.53,1.58,2.53,2.21-1.26,3.48-.32,4.1,6.64,4.1,6.64,4.11-.95,2.22.95-2.56,1.86-3.28,1.45-1.44-3-1.86-3.4-.82.72-.72,1.44.11,2,.72,2.27,1.55.82.83,1.13a5.21,5.21,0,0,1-2.89-.31c-.41-.21-.51-.62-.62-1.65a17.44,17.44,0,0,0-.51-2.47l-1.34-.21s-5.36,2.27-6.91,2S667.87,328.21,667.87,328.21Z" style="fill:#263238"></path><line x1="618.82" y1="249.54" x2="695.84" y2="325.69" style="fill:none;stroke:#000;stroke-linecap:round;stroke-linejoin:round"></line><path d="M688.78,326.56s-1.23-3.06.32-3.52,1.21-.69,2.63,1.09.77,1.46.77,1.46,5.6-1.14,6.32-.25,1.8,2.38,1.8,2.38,2.09-1.46,3.43-.63,4.69,6.24,4.69,6.24,4-1.31,2.28.75-2.37,2.08-3.13,1.73-1.7-2.84-2.15-3.22-.76.8-.59,1.5.28,2,.92,2.2,1.61.68.92,1a5.14,5.14,0,0,1-2.9,0c-.43-.16-.57-.57-.76-1.58a18.1,18.1,0,0,0-.74-2.42l-1.35-.09s-5.13,2.74-6.7,2.57S688.78,326.56,688.78,326.56Z" style="fill:#263238"></path><line x1="592.13" y1="251.59" x2="658.96" y2="327.97" style="fill:none;stroke:#000;stroke-linecap:round;stroke-linejoin:round"></line><path d="M651.86,328.21s-1-3.16.63-3.48,1.26-.58,2.53,1.32.63,1.53.63,1.53,5.68-.64,6.32.31,1.58,2.53,1.58,2.53,2.21-1.26,3.47-.32,4.11,6.64,4.11,6.64,4.11-.95,2.21.95-2.55,1.86-3.28,1.45-1.44-3-1.85-3.4-.83.72-.72,1.44.1,2,.72,2.27,1.54.82.82,1.13a5.17,5.17,0,0,1-2.88-.31c-.41-.21-.52-.62-.62-1.65a16.87,16.87,0,0,0-.52-2.47l-1.34-.21s-5.35,2.27-6.9,2S651.86,328.21,651.86,328.21Z" style="fill:#263238"></path><line x1="584.74" y1="255.29" x2="651.27" y2="332.86" style="fill:none;stroke:#000;stroke-linecap:round;stroke-linejoin:round"></line><path d="M644.16,333.1s-.95-3.16.63-3.48,1.27-.58,2.53,1.32.63,1.53.63,1.53,5.69-.64,6.32.31,1.58,2.53,1.58,2.53,2.21-1.26,3.48-.32,4.1,6.64,4.1,6.64,4.11-.95,2.21.95-2.55,1.86-3.27,1.45-1.44-3-1.86-3.41-.82.73-.72,1.45.1,2,.72,2.26,1.55.83.83,1.14a5.2,5.2,0,0,1-2.89-.31c-.41-.21-.51-.62-.62-1.65a17.44,17.44,0,0,0-.51-2.47l-1.34-.21s-5.36,2.27-6.91,2S644.16,333.1,644.16,333.1Z" style="fill:#263238"></path><line x1="574.06" y1="254.47" x2="642.13" y2="331.26" style="fill:none;stroke:#000;stroke-linecap:round;stroke-linejoin:round"></line><path d="M635,331.49s-.95-3.16.63-3.47,1.27-.58,2.53,1.31.63,1.53.63,1.53,5.69-.63,6.32.32,1.58,2.52,1.58,2.52,2.21-1.26,3.47-.31,4.11,6.63,4.11,6.63,4.11-.94,2.21,1-2.55,1.86-3.27,1.45-1.45-3-1.86-3.4-.82.72-.72,1.44.1,2,.72,2.27,1.55.82.83,1.13a5.2,5.2,0,0,1-2.89-.31c-.41-.2-.51-.61-.62-1.64a17.72,17.72,0,0,0-.51-2.48l-1.34-.2s-5.36,2.26-6.91,1.95S635,331.49,635,331.49Z" style="fill:#263238"></path><rect x="511.14" y="312.1" width="50.9" height="50.63" style="fill:#9c9c9c;stroke:#000;stroke-linecap:round;stroke-linejoin:round"></rect><polygon points="562.05 360.36 511.14 360.36 506.05 395.2 567.14 395.2 562.05 360.36" style="fill:#9c9c9c;stroke:#000;stroke-linecap:round;stroke-linejoin:round"></polygon><polygon points="562.05 453.61 511.14 453.61 506.05 395.19 567.14 395.19 562.05 453.61" style="fill:#fff;stroke:#000;stroke-linecap:round;stroke-linejoin:round"></polygon><rect x="526.56" y="402.81" width="20.08" height="50.5" style="stroke:#000;stroke-linecap:round;stroke-linejoin:round"></rect><line x1="493.96" y1="245.26" x2="430.93" y2="321.56" style="fill:none;stroke:#000;stroke-linecap:round;stroke-linejoin:round"></line><path d="M438,321.79s.94-3.16-.63-3.47-1.27-.58-2.54,1.31-.62,1.53-.62,1.53-5.69-.63-6.32.32-1.58,2.53-1.58,2.53-2.21-1.27-3.48-.32-4.11,6.63-4.11,6.63-4.1-.94-2.21.95,2.56,1.86,3.28,1.45,1.44-3,1.85-3.4.83.72.73,1.44-.11,2-.73,2.27-1.54.83-.82,1.14a5.35,5.35,0,0,0,2.88-.31c.42-.21.52-.62.62-1.65a18.74,18.74,0,0,1,.52-2.48l1.34-.2s5.36,2.26,6.9,2S438,321.79,438,321.79Z" style="fill:#263238"></path><line x1="506.38" y1="251.34" x2="449.61" y2="326.47" style="fill:none;stroke:#000;stroke-linecap:round;stroke-linejoin:round"></line><path d="M454.66,326.64s.68-2.24-.44-2.47-.9-.41-1.8.94-.45,1.08-.45,1.08-4-.45-4.49.23-1.12,1.79-1.12,1.79-1.57-.89-2.47-.22S441,332.7,441,332.7s-2.91-.67-1.57.67,1.82,1.33,2.33,1,1-2.12,1.32-2.41.58.51.51,1-.07,1.39-.51,1.61-1.1.59-.59.81a3.67,3.67,0,0,0,2.05-.22c.3-.15.37-.44.44-1.17a12,12,0,0,1,.37-1.76l.95-.14s3.81,1.61,4.9,1.39S454.66,326.64,454.66,326.64Z" style="fill:#263238"></path><line x1="520.06" y1="248.37" x2="468.8" y2="331.05" style="fill:none;stroke:#000;stroke-linecap:round;stroke-linejoin:round"></line><path d="M473.83,330.58s.38-2.31-.76-2.39-.94-.3-1.66,1.15-.31,1.14-.31,1.14-4.06.06-4.42.78-.89,1.93-.89,1.93-1.67-.69-2.48.09-2.3,5-2.3,5-3-.3-1.47.87,2,1.08,2.44.72.75-2.23,1-2.56.65.44.64.95.1,1.39-.31,1.66-1,.72-.48.88a3.77,3.77,0,0,0,2-.48c.27-.18.31-.48.29-1.22a12.71,12.71,0,0,1,.14-1.79l.92-.26s4,1.12,5,.76S473.83,330.58,473.83,330.58Z" style="fill:#263238"></path><line x1="527.76" y1="242.97" x2="485.91" y2="330.79" style="fill:none;stroke:#000;stroke-linecap:round;stroke-linejoin:round"></line><path d="M490.86,329.77s.12-2.34-1-2.3-1-.19-1.53,1.33-.18,1.16-.18,1.16-4,.51-4.31,1.27-.67,2-.67,2-1.73-.5-2.45.36-1.73,5.27-1.73,5.27-3,0-1.37,1,2.08.86,2.51.46.49-2.31.71-2.66.69.36.74.87.25,1.37-.12,1.69-.93.83-.38.92a3.74,3.74,0,0,0,1.94-.69c.25-.21.25-.52.15-1.25a12.83,12.83,0,0,1-.06-1.79l.9-.36s4.07.67,5.09.2S490.86,329.77,490.86,329.77Z" style="fill:#263238"></path><line x1="537.28" y1="244.31" x2="505.34" y2="336.2" style="fill:none;stroke:#000;stroke-linecap:round;stroke-linejoin:round"></line><path d="M510.15,334.64s-.13-2.34-1.26-2.17-1-.08-1.37,1.49-.06,1.17-.06,1.17-3.95.95-4.14,1.74-.44,2.07-.44,2.07-1.79-.31-2.4.63-1.14,5.42-1.14,5.42-3,.36-1.25,1.17,2.16.63,2.54.18.24-2.35.42-2.72.72.28.83.79.4,1.33.06,1.69-.83.92-.27.95a3.74,3.74,0,0,0,1.85-.9c.22-.24.19-.54,0-1.25a12.5,12.5,0,0,1-.25-1.78l.84-.46s4.13.22,5.09-.36S510.15,334.64,510.15,334.64Z" style="fill:#263238"></path><line x1="454.64" y1="237.79" x2="383.29" y2="315.4" style="fill:none;stroke:#000;stroke-linecap:round;stroke-linejoin:round"></line><path d="M390.4,315.63s1-3.15-.63-3.47-1.27-.58-2.53,1.31-.63,1.53-.63,1.53-5.69-.63-6.32.32-1.58,2.53-1.58,2.53-2.21-1.27-3.47-.32-4.11,6.64-4.11,6.64-4.11-.95-2.21.94,2.55,1.86,3.27,1.45,1.45-3,1.86-3.4.82.72.72,1.44-.1,2-.72,2.27-1.55.83-.83,1.14a5.38,5.38,0,0,0,2.89-.31c.41-.21.52-.62.62-1.65a17.72,17.72,0,0,1,.51-2.48l1.34-.2s5.36,2.27,6.91,2S390.4,315.63,390.4,315.63Z" style="fill:#263238"></path><line x1="439.45" y1="236.96" x2="362.44" y2="313.11" style="fill:none;stroke:#000;stroke-linecap:round;stroke-linejoin:round"></line><path d="M369.5,314s1.22-3.07-.32-3.52-1.21-.69-2.64,1.08-.76,1.47-.76,1.47-5.61-1.14-6.33-.25-1.8,2.37-1.8,2.37-2.09-1.45-3.43-.62-4.68,6.24-4.68,6.24-4-1.31-2.29.74,2.38,2.09,3.13,1.74,1.71-2.85,2.15-3.22.76.79.59,1.5-.27,1.94-.92,2.2-1.61.68-.92,1a5.23,5.23,0,0,0,2.9,0c.43-.17.57-.57.76-1.59a18.28,18.28,0,0,1,.74-2.41l1.35-.09s5.14,2.74,6.7,2.57S369.5,314,369.5,314Z" style="fill:#263238"></path><line x1="466.14" y1="239.02" x2="399.31" y2="315.4" style="fill:none;stroke:#000;stroke-linecap:round;stroke-linejoin:round"></line><path d="M406.42,315.63s.95-3.15-.63-3.47-1.27-.58-2.54,1.31-.62,1.53-.62,1.53-5.69-.63-6.32.32-1.58,2.53-1.58,2.53-2.21-1.27-3.48-.32-4.11,6.64-4.11,6.64-4.1-.95-2.21.94,2.56,1.86,3.28,1.45,1.44-3,1.85-3.4.83.72.73,1.44-.11,2-.73,2.27-1.54.83-.82,1.14a5.35,5.35,0,0,0,2.88-.31c.42-.21.52-.62.62-1.65a18.74,18.74,0,0,1,.52-2.48l1.34-.2s5.36,2.27,6.9,2S406.42,315.63,406.42,315.63Z" style="fill:#263238"></path><line x1="473.53" y1="242.71" x2="407" y2="320.29" style="fill:none;stroke:#000;stroke-linecap:round;stroke-linejoin:round"></line><path d="M414.11,320.52s.95-3.16-.63-3.47-1.27-.58-2.53,1.31-.63,1.53-.63,1.53-5.69-.63-6.32.32-1.58,2.53-1.58,2.53-2.21-1.27-3.47-.32-4.11,6.64-4.11,6.64-4.11-.95-2.21.94,2.55,1.86,3.27,1.45,1.45-3,1.86-3.4.82.72.72,1.44-.1,2-.72,2.27-1.55.83-.82,1.14a5.35,5.35,0,0,0,2.88-.31c.41-.21.52-.62.62-1.65a17.72,17.72,0,0,1,.51-2.48l1.34-.2s5.36,2.26,6.91,2S414.11,320.52,414.11,320.52Z" style="fill:#263238"></path><line x1="484.21" y1="241.89" x2="416.15" y2="318.68" style="fill:none;stroke:#000;stroke-linecap:round;stroke-linejoin:round"></line><path d="M423.25,318.92s.95-3.16-.63-3.48-1.26-.58-2.53,1.32-.63,1.53-.63,1.53-5.68-.63-6.32.31-1.58,2.53-1.58,2.53-2.21-1.26-3.47-.31-4.11,6.63-4.11,6.63-4.11-.95-2.21.95,2.55,1.86,3.28,1.45,1.44-3,1.85-3.4.82.72.72,1.44-.1,2-.72,2.27-1.55.82-.82,1.13A5.17,5.17,0,0,0,409,331c.41-.2.52-.62.62-1.65a16.87,16.87,0,0,1,.52-2.47l1.33-.21s5.36,2.27,6.91,2S423.25,318.92,423.25,318.92Z" style="fill:#263238"></path><rect x="519.08" y="268.47" width="35.04" height="43.63" style="fill:#92E3A9;stroke:#000;stroke-linecap:round;stroke-linejoin:round"></rect><path d="M556.81,204.53a24.17,24.17,0,0,0,5.12-10.59,12.81,12.81,0,0,0-10.45-15,13.17,13.17,0,0,0-14.77,11.09,23.78,23.78,0,0,0,1.44,11.59Z" style="fill:none;stroke:#000;stroke-linecap:round;stroke-linejoin:round"></path><path d="M553.77,204.06a33.3,33.3,0,0,0,4-10.75c1.19-7.2-1.64-13.61-6.33-14.33S542,183.5,540.83,190.7a32.81,32.81,0,0,0,.37,11.43Z" style="fill:none;stroke:#000;stroke-linecap:round;stroke-linejoin:round"></path><path d="M549.44,203.39a99.57,99.57,0,0,0,2.52-11c1.2-7.19,1-13.21-.48-13.43s-3.61,5.42-4.8,12.62a98.55,98.55,0,0,0-1.15,11.19Z" style="fill:none;stroke:#000;stroke-linecap:round;stroke-linejoin:round"></path><polygon points="587.76 254.98 492.44 240.32 538.27 204.54 555.78 207.23 587.76 254.98" style="fill:#9c9c9c;stroke:#000;stroke-linecap:round;stroke-linejoin:round"></polygon><polygon points="451.51 224.77 631.68 252.48 552.53 275.04 519.44 269.95 451.51 224.77" style="fill:#9c9c9c;stroke:#000;stroke-linecap:round;stroke-linejoin:round"></polygon><polygon points="558.55 208.81 535.12 205.21 535.77 201.26 559.21 204.86 558.55 208.81" style="stroke:#000;stroke-linecap:round;stroke-linejoin:round"></polygon><path d="M478.08,216.22c-1.94,0-4.09,1.24-6.75.52s-2.62-2.59-2.47-3.5a18.76,18.76,0,0,1,.67-2.39s-4.21.29-5-1.4c-.65-1.32-1.69-4.43-2.11-5.7l.09-.53-.18.24c-.05-.17-.09-.28-.09-.28l-.09.52a58.78,58.78,0,0,1-3.84,4.79c-1.34,1.36-5.25-.18-5.25-.18a18.48,18.48,0,0,1-.13,2.47c-.15.92-.72,2.7-3.48,2.58s-4.4-1.92-6.24-2.51a7.71,7.71,0,0,0-3.57-.24l-.25,1.52-.16.91-3.92,23.7,42,6.45,3.93-23.7.15-.91.25-1.52A7.61,7.61,0,0,0,478.08,216.22Z" style="fill:#92E3A9;stroke:#000;stroke-linecap:round;stroke-linejoin:round"></path><path d="M519.59,222.6c-2,0-4.09,1.24-6.75.52s-2.62-2.59-2.47-3.5a18.76,18.76,0,0,1,.67-2.39s-4.21.29-5-1.39c-.65-1.33-1.69-4.44-2.11-5.71l.09-.53-.18.25c-.06-.18-.09-.29-.09-.29l-.09.53c-.81,1.08-2.8,3.72-3.85,4.79-1.33,1.35-5.24-.19-5.24-.19a18.6,18.6,0,0,1-.13,2.48c-.15.91-.73,2.69-3.48,2.58s-4.4-1.93-6.25-2.52a7.71,7.71,0,0,0-3.57-.24l-.25,1.52-.15.91-3.93,23.71,42,6.45,3.92-23.7.16-.92.25-1.52A7.81,7.81,0,0,0,519.59,222.6Z" style="fill:#92E3A9;stroke:#000;stroke-linecap:round;stroke-linejoin:round"></path><path d="M561.1,229c-2,0-4.09,1.24-6.75.52s-2.63-2.58-2.47-3.49a18.24,18.24,0,0,1,.67-2.39s-4.21.28-5-1.4a59.47,59.47,0,0,1-2.11-5.71l.09-.52-.18.24-.09-.28-.09.52a61.18,61.18,0,0,1-3.85,4.79c-1.33,1.35-5.24-.18-5.24-.18a18.48,18.48,0,0,1-.13,2.47c-.15.91-.73,2.69-3.48,2.58s-4.4-1.92-6.25-2.52a7.79,7.79,0,0,0-3.57-.23l-.25,1.52-.15.91-3.93,23.7,42,6.45,3.93-23.7.15-.91.26-1.52A7.74,7.74,0,0,0,561.1,229Z" style="fill:#92E3A9;stroke:#000;stroke-linecap:round;stroke-linejoin:round"></path><path d="M602.6,235.37c-1.94,0-4.09,1.24-6.74.52s-2.63-2.59-2.48-3.5a18.17,18.17,0,0,1,.68-2.39s-4.21.29-5-1.4a59.18,59.18,0,0,1-2.1-5.7l.08-.53-.17.24-.1-.28-.08.52a61.18,61.18,0,0,1-3.85,4.79c-1.33,1.36-5.24-.18-5.24-.18a17.41,17.41,0,0,1-.14,2.47c-.15.92-.72,2.7-3.48,2.58s-4.4-1.92-6.24-2.51a7.71,7.71,0,0,0-3.57-.24l-.25,1.52-.15.91-3.93,23.7,42,6.45,3.93-23.7.15-.91.25-1.52A7.61,7.61,0,0,0,602.6,235.37Z" style="fill:#92E3A9;stroke:#000;stroke-linecap:round;stroke-linejoin:round"></path><path d="M644.11,241.75c-1.94,0-4.09,1.24-6.75.52s-2.62-2.59-2.47-3.5a18.76,18.76,0,0,1,.67-2.39s-4.21.29-5-1.4a59.18,59.18,0,0,1-2.1-5.7l.08-.53-.18.25c-.05-.18-.09-.29-.09-.29l-.09.53c-.8,1.08-2.79,3.72-3.84,4.79-1.34,1.35-5.25-.19-5.25-.19a18.6,18.6,0,0,1-.13,2.48c-.15.91-.72,2.69-3.48,2.58s-4.4-1.93-6.24-2.52a7.71,7.71,0,0,0-3.57-.24l-.25,1.52-.15.91-3.93,23.7,42,6.46L647.18,245l.15-.91.25-1.52A7.76,7.76,0,0,0,644.11,241.75Z" style="fill:#92E3A9;stroke:#000;stroke-linecap:round;stroke-linejoin:round"></path><ellipse cx="458.61" cy="227.23" rx="8.82" ry="14.02" transform="translate(175.21 653.43) rotate(-82.74)" style="fill:#fff;stroke:#000;stroke-linecap:round;stroke-linejoin:round"></ellipse><path d="M513.49,235c-.61,4.83-7.34,7.95-15,7s-13.42-5.7-12.8-10.53,7.34-8,15-7S514.11,230.16,513.49,235Z" style="fill:#fff;stroke:#000;stroke-linecap:round;stroke-linejoin:round"></path><path d="M555.72,241.93c-.62,4.83-7.34,8-15,7s-13.41-5.69-12.79-10.53,7.34-8,15-7S556.34,237.09,555.72,241.93Z" style="fill:#fff;stroke:#000;stroke-linecap:round;stroke-linejoin:round"></path><path d="M597,247.92c-.61,4.83-7.34,8-15,7s-13.41-5.7-12.8-10.53,7.35-8,15-7S597.62,243.08,597,247.92Z" style="fill:#fff;stroke:#000;stroke-linecap:round;stroke-linejoin:round"></path><path d="M638.29,254.53c-.62,4.84-7.35,8-15,7s-13.41-5.69-12.8-10.52,7.35-8,15-7S638.9,249.7,638.29,254.53Z" style="fill:#fff;stroke:#000;stroke-linecap:round;stroke-linejoin:round"></path><rect x="515.03" y="315.14" width="6.78" height="41.59" style="fill:#92E3A9;stroke:#000;stroke-linecap:round;stroke-linejoin:round"></rect><rect x="526.83" y="315.14" width="6.78" height="41.59" style="fill:#92E3A9;stroke:#000;stroke-linecap:round;stroke-linejoin:round"></rect><rect x="538.63" y="315.14" width="6.78" height="41.59" style="fill:#92E3A9;stroke:#000;stroke-linecap:round;stroke-linejoin:round"></rect><rect x="550.43" y="315.14" width="6.78" height="41.59" style="fill:#92E3A9;stroke:#000;stroke-linecap:round;stroke-linejoin:round"></rect></g><g id="freepik--carousel-1--inject-12"><path d="M365.77,391.32v61.11H511.83V391.32Zm20.75,60.91H368.73V415.67a8.18,8.18,0,0,1,8.18-8.18h1.43a8.18,8.18,0,0,1,8.18,8.18Zm20.36,0H389.09V415.67a8.18,8.18,0,0,1,8.18-8.18h1.43a8.18,8.18,0,0,1,8.18,8.18Zm20.36,0H409.45V415.67a8.18,8.18,0,0,1,8.18-8.18h1.43a8.18,8.18,0,0,1,8.18,8.18Zm20.36,0H429.81V415.67a8.18,8.18,0,0,1,8.18-8.18h1.43a8.18,8.18,0,0,1,8.18,8.18Zm20.36,0H450.17V415.67a8.18,8.18,0,0,1,8.18-8.18h1.43a8.18,8.18,0,0,1,8.18,8.18Zm20.36,0H470.53V415.67a8.18,8.18,0,0,1,8.18-8.18h1.43a8.18,8.18,0,0,1,8.18,8.18Zm20.36,0H490.89V415.67a8.18,8.18,0,0,1,8.18-8.18h1.43a8.18,8.18,0,0,1,8.18,8.18Z" style="stroke:#000;stroke-linecap:round;stroke-linejoin:round"></path><rect x="361.44" y="392.31" width="2.56" height="55.19" style="fill:#fff;stroke:#000;stroke-linecap:round;stroke-linejoin:round"></rect><rect x="386.77" y="392.31" width="2.56" height="55.19" style="fill:#fff;stroke:#000;stroke-linecap:round;stroke-linejoin:round"></rect><rect x="412.1" y="392.31" width="2.56" height="55.19" style="fill:#fff;stroke:#000;stroke-linecap:round;stroke-linejoin:round"></rect><rect x="437.42" y="392.31" width="2.56" height="55.19" style="fill:#fff;stroke:#000;stroke-linecap:round;stroke-linejoin:round"></rect><rect x="462.75" y="392.31" width="2.56" height="55.19" style="fill:#fff;stroke:#000;stroke-linecap:round;stroke-linejoin:round"></rect><rect x="488.08" y="392.31" width="2.56" height="55.19" style="fill:#fff;stroke:#000;stroke-linecap:round;stroke-linejoin:round"></rect><rect x="513.41" y="392.31" width="2.56" height="55.19" style="fill:#fff;stroke:#000;stroke-linecap:round;stroke-linejoin:round"></rect><path d="M437.82,345c-5.81,33.29-23.6,47.31-23.6,47.31H398c.93-.68,27.5-20.36,36.55-47.31Z" style="fill:#92E3A9;stroke:#000;stroke-linecap:round;stroke-linejoin:round"></path><path d="M434.51,345C425.46,372,398.89,391.63,398,392.31H380.84c1.34-.73,37.11-20.61,50.8-47.31Z" style="stroke:#000;stroke-linecap:round;stroke-linejoin:round"></path><path d="M431.64,345c-13.69,26.7-49.46,46.58-50.8,47.31h-19.4c39.29-9.89,64.84-43.58,67.57-47.31Z" style="fill:#92E3A9;stroke:#000;stroke-linecap:round;stroke-linejoin:round"></path><path d="M438.9,345v47.31H414.22s17.79-14,23.6-47.31Z" style="stroke:#000;stroke-linecap:round;stroke-linejoin:round"></path><path d="M463.06,392.31H438.9V345h1.34C445.86,378.29,463.06,392.31,463.06,392.31Z" style="fill:#92E3A9;stroke:#000;stroke-linecap:round;stroke-linejoin:round"></path><path d="M478.79,392.31H463.06s-17.2-14-22.82-47.31h3.19C452.18,371.92,477.82,391.58,478.79,392.31Z" style="stroke:#000;stroke-linecap:round;stroke-linejoin:round"></path><path d="M495.34,392.31H478.79c-1-.73-26.61-20.39-35.36-47.31h2.78C459.45,371.69,494,391.57,495.34,392.31Z" style="fill:#92E3A9;stroke:#000;stroke-linecap:round;stroke-linejoin:round"></path><path d="M516.37,392.31h-21c-1.31-.74-35.89-20.62-49.13-47.31h2.58C451.52,348.73,477.07,382.42,516.37,392.31Z" style="stroke:#000;stroke-linecap:round;stroke-linejoin:round"></path><rect x="428.67" y="328.13" width="20.39" height="16.93" style="stroke:#000;stroke-linecap:round;stroke-linejoin:round"></rect><path d="M432.75,332h0a2.52,2.52,0,0,0-2.52,2.52V345h5V334.51A2.52,2.52,0,0,0,432.75,332Z" style="fill:#fff;stroke:#000;stroke-linecap:round;stroke-linejoin:round"></path><path d="M438.8,332h0a2.52,2.52,0,0,0-2.52,2.52V345h5.05V334.51A2.52,2.52,0,0,0,438.8,332Z" style="fill:#fff;stroke:#000;stroke-linecap:round;stroke-linejoin:round"></path><path d="M444.86,332h0a2.52,2.52,0,0,0-2.53,2.52V345h5.05V334.51A2.52,2.52,0,0,0,444.86,332Z" style="fill:#fff;stroke:#000;stroke-linecap:round;stroke-linejoin:round"></path><rect x="428.67" y="341.48" width="20.39" height="3.58" style="fill:#fff;stroke:#000;stroke-linecap:round;stroke-linejoin:round"></rect><path d="M438.86,307.84h0a132.33,132.33,0,0,1-15.25,21.89l-.48.55h31.46a132.06,132.06,0,0,1-15.34-21.75Z" style="fill:#92E3A9;stroke:#000;stroke-linecap:round;stroke-linejoin:round"></path><rect x="361.44" y="392.31" width="15.57" height="11.63" style="fill:#92E3A9;stroke:#000;stroke-linecap:round;stroke-linejoin:round"></rect><rect x="389.25" y="392.31" width="15.57" height="11.63" style="fill:#92E3A9;stroke:#000;stroke-linecap:round;stroke-linejoin:round"></rect><rect x="417.06" y="392.31" width="15.57" height="11.63" style="fill:#92E3A9;stroke:#000;stroke-linecap:round;stroke-linejoin:round"></rect><rect x="444.87" y="392.31" width="15.57" height="11.63" style="fill:#92E3A9;stroke:#000;stroke-linecap:round;stroke-linejoin:round"></rect><rect x="472.69" y="392.31" width="15.57" height="11.63" style="fill:#92E3A9;stroke:#000;stroke-linecap:round;stroke-linejoin:round"></rect><rect x="500.5" y="392.31" width="15.57" height="11.63" style="fill:#92E3A9;stroke:#000;stroke-linecap:round;stroke-linejoin:round"></rect><rect x="364.99" y="425.62" width="1.18" height="20.89" style="fill:#fff;stroke:#000;stroke-linecap:round;stroke-linejoin:round"></rect><rect x="370.31" y="425.62" width="1.18" height="20.89" style="fill:#fff;stroke:#000;stroke-linecap:round;stroke-linejoin:round"></rect><rect x="375.63" y="425.62" width="1.18" height="20.89" style="fill:#fff;stroke:#000;stroke-linecap:round;stroke-linejoin:round"></rect><rect x="380.95" y="425.62" width="1.18" height="20.89" style="fill:#fff;stroke:#000;stroke-linecap:round;stroke-linejoin:round"></rect><rect x="386.27" y="425.62" width="1.18" height="20.89" style="fill:#fff;stroke:#000;stroke-linecap:round;stroke-linejoin:round"></rect><rect x="391.6" y="425.62" width="1.18" height="20.89" style="fill:#fff;stroke:#000;stroke-linecap:round;stroke-linejoin:round"></rect><rect x="396.92" y="425.62" width="1.18" height="20.89" style="fill:#fff;stroke:#000;stroke-linecap:round;stroke-linejoin:round"></rect><rect x="402.24" y="425.62" width="1.18" height="20.89" style="fill:#fff;stroke:#000;stroke-linecap:round;stroke-linejoin:round"></rect><rect x="407.56" y="425.62" width="1.18" height="20.89" style="fill:#fff;stroke:#000;stroke-linecap:round;stroke-linejoin:round"></rect><rect x="412.88" y="425.62" width="1.18" height="20.89" style="fill:#fff;stroke:#000;stroke-linecap:round;stroke-linejoin:round"></rect><rect x="418.21" y="425.62" width="1.18" height="20.89" style="fill:#fff;stroke:#000;stroke-linecap:round;stroke-linejoin:round"></rect><rect x="423.53" y="425.62" width="1.18" height="20.89" style="fill:#fff;stroke:#000;stroke-linecap:round;stroke-linejoin:round"></rect><rect x="428.85" y="425.62" width="1.18" height="20.89" style="fill:#fff;stroke:#000;stroke-linecap:round;stroke-linejoin:round"></rect><rect x="434.17" y="425.62" width="1.18" height="20.89" style="fill:#fff;stroke:#000;stroke-linecap:round;stroke-linejoin:round"></rect><rect x="439.49" y="425.62" width="1.18" height="20.89" style="fill:#fff;stroke:#000;stroke-linecap:round;stroke-linejoin:round"></rect><rect x="444.82" y="425.62" width="1.18" height="20.89" style="fill:#fff;stroke:#000;stroke-linecap:round;stroke-linejoin:round"></rect><rect x="450.14" y="425.62" width="1.18" height="20.89" style="fill:#fff;stroke:#000;stroke-linecap:round;stroke-linejoin:round"></rect><rect x="455.46" y="425.62" width="1.18" height="20.89" style="fill:#fff;stroke:#000;stroke-linecap:round;stroke-linejoin:round"></rect><rect x="460.78" y="425.62" width="1.18" height="20.89" style="fill:#fff;stroke:#000;stroke-linecap:round;stroke-linejoin:round"></rect><rect x="466.1" y="425.62" width="1.18" height="20.89" style="fill:#fff;stroke:#000;stroke-linecap:round;stroke-linejoin:round"></rect><rect x="471.43" y="425.62" width="1.18" height="20.89" style="fill:#fff;stroke:#000;stroke-linecap:round;stroke-linejoin:round"></rect><rect x="476.75" y="425.62" width="1.18" height="20.89" style="fill:#fff;stroke:#000;stroke-linecap:round;stroke-linejoin:round"></rect><rect x="482.07" y="425.62" width="1.18" height="20.89" style="fill:#fff;stroke:#000;stroke-linecap:round;stroke-linejoin:round"></rect><rect x="487.39" y="425.62" width="1.18" height="20.89" style="fill:#fff;stroke:#000;stroke-linecap:round;stroke-linejoin:round"></rect><rect x="492.71" y="425.62" width="1.18" height="20.89" style="fill:#fff;stroke:#000;stroke-linecap:round;stroke-linejoin:round"></rect><rect x="498.04" y="425.62" width="1.18" height="20.89" style="fill:#fff;stroke:#000;stroke-linecap:round;stroke-linejoin:round"></rect><rect x="503.36" y="425.62" width="1.18" height="20.89" style="fill:#fff;stroke:#000;stroke-linecap:round;stroke-linejoin:round"></rect><rect x="508.68" y="425.62" width="1.18" height="20.89" style="fill:#fff;stroke:#000;stroke-linecap:round;stroke-linejoin:round"></rect><rect x="361.24" y="439.02" width="154.73" height="14.59" style="fill:#92E3A9;stroke:#000;stroke-linecap:round;stroke-linejoin:round"></rect><rect x="361.24" y="423.91" width="154.73" height="2.36" style="fill:#fff;stroke:#000;stroke-linecap:round;stroke-linejoin:round"></rect><line x1="444.95" y1="392.86" x2="444.95" y2="396.01" style="fill:none;stroke:#000;stroke-linecap:round;stroke-linejoin:round"></line><path d="M495.38,392.33l0,0" style="fill:none;stroke:#000;stroke-linecap:round;stroke-linejoin:round"></path><path d="M478.82,392.33a0,0,0,0,1,0,0" style="fill:none;stroke:#000;stroke-linecap:round;stroke-linejoin:round"></path></g><g id="freepik--ferris-wheel--inject-12"><rect x="186.86" y="125.09" width="22.56" height="26.39" style="fill:none;stroke:#000;stroke-linecap:round;stroke-linejoin:round"></rect><polygon points="209.42 151.48 186.86 151.48 184.6 144.76 186.86 135.91 209.42 135.91 211.67 144.76 209.42 151.48" style="fill:#92E3A9;stroke:#000;stroke-linecap:round;stroke-linejoin:round"></polygon><rect x="192.09" y="135.91" width="12.1" height="15.57" style="fill:#92E3A9;stroke:#000;stroke-linecap:round;stroke-linejoin:round"></rect><line x1="192.09" y1="135.91" x2="192.09" y2="116.33" style="fill:none;stroke:#000;stroke-linecap:round;stroke-linejoin:round"></line><line x1="204.26" y1="135.91" x2="204.26" y2="116.33" style="fill:none;stroke:#000;stroke-linecap:round;stroke-linejoin:round"></line><rect x="186.86" y="113.99" width="22.56" height="2.54" style="fill:#fff;stroke:#000;stroke-linecap:round;stroke-linejoin:round"></rect><rect x="144.18" y="150.22" width="22.56" height="26.39" style="fill:none;stroke:#000;stroke-linecap:round;stroke-linejoin:round"></rect><polygon points="166.74 176.61 144.18 176.61 141.93 169.89 144.18 161.04 166.74 161.04 168.99 169.89 166.74 176.61" style="fill:#92E3A9;stroke:#000;stroke-linecap:round;stroke-linejoin:round"></polygon><rect x="149.41" y="161.04" width="12.1" height="15.57" style="fill:#92E3A9;stroke:#000;stroke-linecap:round;stroke-linejoin:round"></rect><line x1="149.41" y1="161.04" x2="149.41" y2="141.46" style="fill:none;stroke:#000;stroke-linecap:round;stroke-linejoin:round"></line><line x1="161.58" y1="161.04" x2="161.58" y2="141.46" style="fill:none;stroke:#000;stroke-linecap:round;stroke-linejoin:round"></line><rect x="144.18" y="139.12" width="22.56" height="2.54" style="fill:#fff;stroke:#000;stroke-linecap:round;stroke-linejoin:round"></rect><rect x="110.29" y="193.71" width="22.56" height="26.39" style="fill:none;stroke:#000;stroke-linecap:round;stroke-linejoin:round"></rect><polygon points="132.85 220.09 110.29 220.09 108.04 213.38 110.29 204.53 132.85 204.53 135.1 213.38 132.85 220.09" style="fill:#92E3A9;stroke:#000;stroke-linecap:round;stroke-linejoin:round"></polygon><rect x="115.52" y="204.53" width="12.1" height="15.57" style="fill:#92E3A9;stroke:#000;stroke-linecap:round;stroke-linejoin:round"></rect><line x1="115.52" y1="204.53" x2="115.52" y2="184.94" style="fill:none;stroke:#000;stroke-linecap:round;stroke-linejoin:round"></line><line x1="127.7" y1="204.53" x2="127.7" y2="184.94" style="fill:none;stroke:#000;stroke-linecap:round;stroke-linejoin:round"></line><rect x="110.29" y="182.61" width="22.56" height="2.54" style="fill:#fff;stroke:#000;stroke-linecap:round;stroke-linejoin:round"></rect><rect x="94.69" y="244.78" width="22.56" height="26.39" style="fill:none;stroke:#000;stroke-linecap:round;stroke-linejoin:round"></rect><polygon points="117.25 271.17 94.69 271.17 92.44 264.45 94.69 255.6 117.25 255.6 119.5 264.45 117.25 271.17" style="fill:#92E3A9;stroke:#000;stroke-linecap:round;stroke-linejoin:round"></polygon><rect x="99.92" y="255.6" width="12.1" height="15.57" style="fill:#92E3A9;stroke:#000;stroke-linecap:round;stroke-linejoin:round"></rect><line x1="99.92" y1="255.6" x2="99.92" y2="236.02" style="fill:none;stroke:#000;stroke-linecap:round;stroke-linejoin:round"></line><line x1="112.09" y1="255.6" x2="112.09" y2="236.02" style="fill:none;stroke:#000;stroke-linecap:round;stroke-linejoin:round"></line><rect x="94.69" y="233.68" width="22.56" height="2.54" style="fill:#fff;stroke:#000;stroke-linecap:round;stroke-linejoin:round"></rect><rect x="109.84" y="298.63" width="22.56" height="26.39" style="fill:none;stroke:#000;stroke-linecap:round;stroke-linejoin:round"></rect><polygon points="132.39 325.02 109.84 325.02 107.58 318.3 109.84 309.45 132.39 309.45 134.65 318.3 132.39 325.02" style="fill:#92E3A9;stroke:#000;stroke-linecap:round;stroke-linejoin:round"></polygon><rect x="115.07" y="309.45" width="12.1" height="15.57" style="fill:#92E3A9;stroke:#000;stroke-linecap:round;stroke-linejoin:round"></rect><line x1="115.07" y1="309.45" x2="115.07" y2="289.87" style="fill:none;stroke:#000;stroke-linecap:round;stroke-linejoin:round"></line><line x1="127.24" y1="309.45" x2="127.24" y2="289.87" style="fill:none;stroke:#000;stroke-linecap:round;stroke-linejoin:round"></line><rect x="109.84" y="287.53" width="22.56" height="2.54" style="fill:#fff;stroke:#000;stroke-linecap:round;stroke-linejoin:round"></rect><rect x="132.97" y="342.11" width="22.56" height="26.39" style="fill:none;stroke:#000;stroke-linecap:round;stroke-linejoin:round"></rect><polygon points="155.53 368.49 132.97 368.49 130.72 361.78 132.97 352.93 155.53 352.93 157.78 361.78 155.53 368.49" style="fill:#92E3A9;stroke:#000;stroke-linecap:round;stroke-linejoin:round"></polygon><rect x="138.2" y="352.93" width="12.1" height="15.57" style="fill:#92E3A9;stroke:#000;stroke-linecap:round;stroke-linejoin:round"></rect><line x1="138.2" y1="352.93" x2="138.2" y2="333.34" style="fill:none;stroke:#000;stroke-linecap:round;stroke-linejoin:round"></line><line x1="150.37" y1="352.93" x2="150.37" y2="333.34" style="fill:none;stroke:#000;stroke-linecap:round;stroke-linejoin:round"></line><rect x="132.97" y="331.01" width="22.56" height="2.54" style="fill:#fff;stroke:#000;stroke-linecap:round;stroke-linejoin:round"></rect><rect x="173.66" y="369.01" width="22.56" height="26.39" style="fill:none;stroke:#000;stroke-linecap:round;stroke-linejoin:round"></rect><polygon points="196.21 395.39 173.66 395.39 171.4 388.68 173.66 379.83 196.21 379.83 198.47 388.68 196.21 395.39" style="fill:#92E3A9;stroke:#000;stroke-linecap:round;stroke-linejoin:round"></polygon><rect x="178.88" y="379.83" width="12.1" height="15.57" style="fill:#92E3A9;stroke:#000;stroke-linecap:round;stroke-linejoin:round"></rect><line x1="178.88" y1="379.83" x2="178.88" y2="360.24" style="fill:none;stroke:#000;stroke-linecap:round;stroke-linejoin:round"></line><line x1="191.06" y1="379.83" x2="191.06" y2="360.24" style="fill:none;stroke:#000;stroke-linecap:round;stroke-linejoin:round"></line><rect x="173.66" y="357.91" width="22.56" height="2.54" style="fill:#fff;stroke:#000;stroke-linecap:round;stroke-linejoin:round"></rect><rect x="229.1" y="378.98" width="22.56" height="26.39" style="fill:none;stroke:#000;stroke-linecap:round;stroke-linejoin:round"></rect><polygon points="251.65 405.37 229.1 405.37 226.84 398.65 229.1 389.8 251.65 389.8 253.91 398.65 251.65 405.37" style="fill:#92E3A9;stroke:#000;stroke-linecap:round;stroke-linejoin:round"></polygon><rect x="234.33" y="389.8" width="12.1" height="15.57" style="fill:#92E3A9;stroke:#000;stroke-linecap:round;stroke-linejoin:round"></rect><line x1="234.33" y1="389.8" x2="234.33" y2="370.22" style="fill:none;stroke:#000;stroke-linecap:round;stroke-linejoin:round"></line><line x1="246.5" y1="389.8" x2="246.5" y2="370.22" style="fill:none;stroke:#000;stroke-linecap:round;stroke-linejoin:round"></line><rect x="229.1" y="367.88" width="22.56" height="2.54" style="fill:#fff;stroke:#000;stroke-linecap:round;stroke-linejoin:round"></rect><rect x="282.95" y="365.42" width="22.56" height="26.39" style="fill:none;stroke:#000;stroke-linecap:round;stroke-linejoin:round"></rect><polygon points="305.5 391.8 282.95 391.8 280.69 385.09 282.95 376.24 305.5 376.24 307.76 385.09 305.5 391.8" style="fill:#92E3A9;stroke:#000;stroke-linecap:round;stroke-linejoin:round"></polygon><rect x="288.17" y="376.24" width="12.1" height="15.57" style="fill:#92E3A9;stroke:#000;stroke-linecap:round;stroke-linejoin:round"></rect><line x1="288.17" y1="376.24" x2="288.17" y2="356.65" style="fill:none;stroke:#000;stroke-linecap:round;stroke-linejoin:round"></line><line x1="300.35" y1="376.24" x2="300.35" y2="356.65" style="fill:none;stroke:#000;stroke-linecap:round;stroke-linejoin:round"></line><rect x="282.95" y="354.32" width="22.56" height="2.54" style="fill:#fff;stroke:#000;stroke-linecap:round;stroke-linejoin:round"></rect><rect x="328.42" y="333.51" width="22.56" height="26.39" style="fill:none;stroke:#000;stroke-linecap:round;stroke-linejoin:round"></rect><polygon points="350.97 359.89 328.42 359.89 326.16 353.18 328.42 344.33 350.97 344.33 353.23 353.18 350.97 359.89" style="fill:#92E3A9;stroke:#000;stroke-linecap:round;stroke-linejoin:round"></polygon><rect x="333.65" y="344.33" width="12.1" height="15.57" style="fill:#92E3A9;stroke:#000;stroke-linecap:round;stroke-linejoin:round"></rect><line x1="333.65" y1="344.33" x2="333.65" y2="324.74" style="fill:none;stroke:#000;stroke-linecap:round;stroke-linejoin:round"></line><line x1="345.82" y1="344.33" x2="345.82" y2="324.74" style="fill:none;stroke:#000;stroke-linecap:round;stroke-linejoin:round"></line><rect x="328.42" y="322.41" width="22.56" height="2.54" style="fill:#fff;stroke:#000;stroke-linecap:round;stroke-linejoin:round"></rect><rect x="349.7" y="285.9" width="22.56" height="26.39" style="fill:none;stroke:#000;stroke-linecap:round;stroke-linejoin:round"></rect><polygon points="372.25 312.29 349.7 312.29 347.44 305.57 349.7 296.72 372.25 296.72 374.51 305.57 372.25 312.29" style="fill:#92E3A9;stroke:#000;stroke-linecap:round;stroke-linejoin:round"></polygon><rect x="354.92" y="296.72" width="12.1" height="15.57" style="fill:#92E3A9;stroke:#000;stroke-linecap:round;stroke-linejoin:round"></rect><line x1="354.92" y1="296.72" x2="354.92" y2="277.14" style="fill:none;stroke:#000;stroke-linecap:round;stroke-linejoin:round"></line><line x1="367.1" y1="296.72" x2="367.1" y2="277.14" style="fill:none;stroke:#000;stroke-linecap:round;stroke-linejoin:round"></line><rect x="349.7" y="274.8" width="22.56" height="2.54" style="fill:#fff;stroke:#000;stroke-linecap:round;stroke-linejoin:round"></rect><rect x="352.73" y="230.2" width="22.56" height="26.39" style="fill:none;stroke:#000;stroke-linecap:round;stroke-linejoin:round"></rect><polygon points="375.29 256.59 352.73 256.59 350.48 249.87 352.73 241.02 375.29 241.02 377.54 249.87 375.29 256.59" style="fill:#92E3A9;stroke:#000;stroke-linecap:round;stroke-linejoin:round"></polygon><rect x="357.96" y="241.02" width="12.1" height="15.57" style="fill:#92E3A9;stroke:#000;stroke-linecap:round;stroke-linejoin:round"></rect><line x1="357.96" y1="241.02" x2="357.96" y2="221.44" style="fill:none;stroke:#000;stroke-linecap:round;stroke-linejoin:round"></line><line x1="370.14" y1="241.02" x2="370.14" y2="221.44" style="fill:none;stroke:#000;stroke-linecap:round;stroke-linejoin:round"></line><rect x="352.73" y="219.1" width="22.56" height="2.54" style="fill:#fff;stroke:#000;stroke-linecap:round;stroke-linejoin:round"></rect><rect x="337.99" y="179.54" width="22.56" height="26.39" style="fill:none;stroke:#000;stroke-linecap:round;stroke-linejoin:round"></rect><polygon points="360.55 205.93 337.99 205.93 335.73 199.21 337.99 190.36 360.55 190.36 362.8 199.21 360.55 205.93" style="fill:#92E3A9;stroke:#000;stroke-linecap:round;stroke-linejoin:round"></polygon><rect x="343.22" y="190.36" width="12.1" height="15.57" style="fill:#92E3A9;stroke:#000;stroke-linecap:round;stroke-linejoin:round"></rect><line x1="343.22" y1="190.36" x2="343.22" y2="170.78" style="fill:none;stroke:#000;stroke-linecap:round;stroke-linejoin:round"></line><line x1="355.39" y1="190.36" x2="355.39" y2="170.78" style="fill:none;stroke:#000;stroke-linecap:round;stroke-linejoin:round"></line><rect x="337.99" y="168.44" width="22.56" height="2.54" style="fill:#fff;stroke:#000;stroke-linecap:round;stroke-linejoin:round"></rect><rect x="295.71" y="140.06" width="22.56" height="26.39" style="fill:none;stroke:#000;stroke-linecap:round;stroke-linejoin:round"></rect><polygon points="318.26 166.44 295.71 166.44 293.45 159.72 295.71 150.87 318.26 150.87 320.52 159.72 318.26 166.44" style="fill:#92E3A9;stroke:#000;stroke-linecap:round;stroke-linejoin:round"></polygon><rect x="300.94" y="150.87" width="12.1" height="15.57" style="fill:#92E3A9;stroke:#000;stroke-linecap:round;stroke-linejoin:round"></rect><line x1="300.94" y1="150.87" x2="300.94" y2="131.29" style="fill:none;stroke:#000;stroke-linecap:round;stroke-linejoin:round"></line><line x1="313.11" y1="150.87" x2="313.11" y2="131.29" style="fill:none;stroke:#000;stroke-linecap:round;stroke-linejoin:round"></line><rect x="295.71" y="128.95" width="22.56" height="2.54" style="fill:#fff;stroke:#000;stroke-linecap:round;stroke-linejoin:round"></rect><rect x="239.47" y="118.92" width="22.56" height="26.39" style="fill:none;stroke:#000;stroke-linecap:round;stroke-linejoin:round"></rect><polygon points="262.02 145.3 239.47 145.3 237.21 138.58 239.47 129.73 262.02 129.73 264.28 138.58 262.02 145.3" style="fill:#92E3A9;stroke:#000;stroke-linecap:round;stroke-linejoin:round"></polygon><rect x="244.7" y="129.73" width="12.1" height="15.57" style="fill:#92E3A9;stroke:#000;stroke-linecap:round;stroke-linejoin:round"></rect><line x1="244.7" y1="129.73" x2="244.7" y2="110.15" style="fill:none;stroke:#000;stroke-linecap:round;stroke-linejoin:round"></line><line x1="256.87" y1="129.73" x2="256.87" y2="110.15" style="fill:none;stroke:#000;stroke-linecap:round;stroke-linejoin:round"></line><rect x="239.47" y="107.81" width="22.56" height="2.54" style="fill:#fff;stroke:#000;stroke-linecap:round;stroke-linejoin:round"></rect><path d="M361.41,218.46,237.23,240.07l105.16-70.59a1,1,0,0,0-1.1-1.64L236.63,238.08,304,130.82a1,1,0,0,0-1.68-1l-67,106.74,17.91-125.39a1,1,0,0,0-.84-1.11,1,1,0,0,0-1.12.83L233.41,235.63,198.77,113.79a1,1,0,0,0-1.9.54l34.47,121.25-81.2-97.21a1,1,0,0,0-1.39-.13,1,1,0,0,0-.13,1.4l80.81,96.74L115.71,180.6a1,1,0,0,0-.87,1.77L228,237.88l-126.57-4.7a1,1,0,0,0-.07,2l126,4.68L109.77,287a1,1,0,0,0,.74,1.84l117-47L139.3,332.82a1,1,0,1,0,1.42,1.38l87.76-90.48L184.89,362.65a1,1,0,0,0,1.86.68L230.13,245l8.55,126.37a1,1,0,0,0,2-.13l-8.5-125.76,59.21,112a1,1,0,0,0,1.75-.93L234.18,245.07l99.63,78.21a1,1,0,0,0,1.23-1.56l-99.15-77.83,122.82,30.92a1,1,0,1,0,.49-1.91L237,242.12l124.79-21.71a1,1,0,0,0,.8-1.14A1,1,0,0,0,361.41,218.46ZM232,240.81l0,0-.08-.14s0,0,0,0v-.15s0,0,0,0l0-.15s0,0,0,0l.11-.11,0,0,.14-.06,0,0h.19l.14.07h0l.09.12,0,0,.05.15s0,0,0,0l0,.15v0l-.08.13s0,0,0,0l-.13.08,0,0-.15,0h0l-.15,0h0Z" style="fill:#fff;stroke:#000;stroke-linecap:round;stroke-linejoin:round"></path><path d="M233.64,104.38A135.75,135.75,0,1,0,369.39,240.13,135.74,135.74,0,0,0,233.64,104.38Zm0,265.74a130,130,0,1,1,130-130A130,130,0,0,1,233.64,370.12Z" style="fill:#fff;stroke:#000;stroke-linecap:round;stroke-linejoin:round"></path><path d="M319.46,453.61H145a4.9,4.9,0,0,1-4.5-6.83l87.21-203.33a4.9,4.9,0,0,1,9,0L324,446.78a4.9,4.9,0,0,1-4.51,6.83Zm-167-9.8H312l-79.78-186Z" style="fill:#fff;stroke:#000;stroke-linecap:round;stroke-linejoin:round"></path><circle cx="233.64" cy="240.13" r="15.13" style="fill:#fff;stroke:#000;stroke-linecap:round;stroke-linejoin:round"></circle></g></svg>